<svg width="24" height="29" viewBox="0 0 24 29" fill="none" xmlns="http://www.w3.org/2000/svg">
<path d="M2.2 29V24.04L12.68 14.24C13.4267 13.5467 13.9733 12.9333 14.32 12.4C14.6933 11.8667 14.9333 11.3867 15.04 10.96C15.1733 10.5067 15.24 10.0933 15.24 9.72C15.24 8.81333 14.9333 8.10667 14.32 7.6C13.7333 7.09333 12.84 6.84 11.64 6.84C10.6267 6.84 9.68 7.06667 8.8 7.52C7.92 7.97333 7.2 8.65333 6.64 9.56L0.76 6.28C1.8 4.52 3.30667 3.10667 5.28 2.04C7.25333 0.973332 9.61333 0.439998 12.36 0.439998C14.52 0.439998 16.4133 0.786665 18.04 1.48C19.6667 2.17333 20.9333 3.16 21.84 4.44C22.7733 5.72 23.24 7.22666 23.24 8.96C23.24 9.86667 23.12 10.7733 22.88 11.68C22.64 12.56 22.1733 13.5067 21.48 14.52C20.8133 15.5067 19.8133 16.6133 18.48 17.84L10.16 25.52L8.84 22.72H24V29H2.2Z" fill="#F2C2C3"/>
</svg>
