<svg width="24" height="29" viewBox="0 0 24 29" fill="none" xmlns="http://www.w3.org/2000/svg">
<path d="M11.72 28.56C9.77333 28.56 7.82667 28.32 5.88 27.84C3.96 27.36 2.28 26.68 0.84 25.8L3.72 19.84C4.84 20.5867 6.08 21.16 7.44 21.56C8.82667 21.96 10.1733 22.16 11.48 22.16C12.84 22.16 13.92 21.9067 14.72 21.4C15.52 20.8933 15.92 20.1733 15.92 19.24C15.92 18.4133 15.5867 17.76 14.92 17.28C14.2533 16.7733 13.16 16.52 11.64 16.52H8.32V11.52L15.84 3.4L16.6 6.12H2.28V-1.90735e-06H22.52V4.96L15 13.08L11.12 10.88H13.28C16.7733 10.88 19.4133 11.6667 21.2 13.24C23.0133 14.7867 23.92 16.7867 23.92 19.24C23.92 20.84 23.48 22.3467 22.6 23.76C21.7467 25.1733 20.4267 26.3333 18.64 27.24C16.8533 28.12 14.5467 28.56 11.72 28.56Z" fill="#F2C2C3"/>
</svg>
