<svg width="44" height="44" viewBox="0 0 44 44" fill="none" xmlns="http://www.w3.org/2000/svg">
<g id="more-horiz">
<path id="Vector" d="M32.9987 22.9193C33.505 22.9193 33.9154 22.5089 33.9154 22.0026C33.9154 21.4963 33.505 21.0859 32.9987 21.0859C32.4924 21.0859 32.082 21.4963 32.082 22.0026C32.082 22.5089 32.4924 22.9193 32.9987 22.9193Z" fill="white"/>
<path id="Vector (Stroke)" fill-rule="evenodd" clip-rule="evenodd" d="M32.9987 22.4609C33.2518 22.4609 33.457 22.2557 33.457 22.0026C33.457 21.7495 33.2518 21.5443 32.9987 21.5443C32.7456 21.5443 32.5404 21.7495 32.5404 22.0026C32.5404 22.2557 32.7456 22.4609 32.9987 22.4609ZM30.707 22.0026C30.707 20.737 31.733 19.7109 32.9987 19.7109C34.2644 19.7109 35.2904 20.737 35.2904 22.0026C35.2904 23.2683 34.2644 24.2943 32.9987 24.2943C31.733 24.2943 30.707 23.2683 30.707 22.0026Z" fill="white"/>
<path id="Vector_2" d="M21.9987 22.9193C22.505 22.9193 22.9154 22.5089 22.9154 22.0026C22.9154 21.4963 22.505 21.0859 21.9987 21.0859C21.4924 21.0859 21.082 21.4963 21.082 22.0026C21.082 22.5089 21.4924 22.9193 21.9987 22.9193Z" fill="white"/>
<path id="Vector (Stroke)_2" fill-rule="evenodd" clip-rule="evenodd" d="M21.9987 22.4609C22.2518 22.4609 22.457 22.2557 22.457 22.0026C22.457 21.7495 22.2518 21.5443 21.9987 21.5443C21.7456 21.5443 21.5404 21.7495 21.5404 22.0026C21.5404 22.2557 21.7456 22.4609 21.9987 22.4609ZM19.707 22.0026C19.707 20.737 20.733 19.7109 21.9987 19.7109C23.2643 19.7109 24.2904 20.737 24.2904 22.0026C24.2904 23.2683 23.2643 24.2943 21.9987 24.2943C20.733 24.2943 19.707 23.2683 19.707 22.0026Z" fill="white"/>
<path id="Vector_3" d="M10.9987 22.9193C11.505 22.9193 11.9154 22.5089 11.9154 22.0026C11.9154 21.4963 11.505 21.0859 10.9987 21.0859C10.4924 21.0859 10.082 21.4963 10.082 22.0026C10.082 22.5089 10.4924 22.9193 10.9987 22.9193Z" fill="white"/>
<path id="Vector (Stroke)_3" fill-rule="evenodd" clip-rule="evenodd" d="M10.9987 22.4609C11.2518 22.4609 11.457 22.2557 11.457 22.0026C11.457 21.7495 11.2518 21.5443 10.9987 21.5443C10.7456 21.5443 10.5404 21.7495 10.5404 22.0026C10.5404 22.2557 10.7456 22.4609 10.9987 22.4609ZM8.70703 22.0026C8.70703 20.737 9.73305 19.7109 10.9987 19.7109C12.2644 19.7109 13.2904 20.737 13.2904 22.0026C13.2904 23.2683 12.2644 24.2943 10.9987 24.2943C9.73305 24.2943 8.70703 23.2683 8.70703 22.0026Z" fill="white"/>
</g>
</svg>
