<svg width="32" height="32" viewBox="0 0 32 32" fill="none" xmlns="http://www.w3.org/2000/svg">
<g id="ArrowBendDownLeft-r">
<g id="Vector">
<path d="M21.2933 18.2925C21.1057 18.4801 21 18.7348 21 19C21 19.2652 21.1054 19.5196 21.2929 19.7071L21.3015 19.7156C21.4883 19.8976 21.7393 20 22 20C22.03 20 22.06 19.9987 22.0899 19.996C22.3231 19.9749 22.5415 19.8727 22.7071 19.7071L28.7071 13.7071C28.8946 13.5196 29 13.2652 29 13C29 12.7348 28.8946 12.4804 28.7071 12.2929L22.7071 6.29289C22.5196 6.10536 22.2652 6 22 6C21.7348 6 21.4804 6.10536 21.2929 6.29289C21.1054 6.48043 21 6.73478 21 7C21 7.26522 21.1054 7.51957 21.2929 7.70711L26.5858 13L21.2933 18.2925Z" fill="white"/>
<path d="M16 14L28 14C28.5523 14 29 13.5523 29 13C29 12.4477 28.5523 12 28 12L16 12C13.4141 12 11.0251 12.9896 11.0251 12.9896C8.6361 13.9791 6.80761 15.8076 6.80761 15.8076C4.97913 17.6361 3.98957 20.0251 3.98957 20.0251C3 22.4141 3 25 3 25C3 25.5523 3.44772 26 4 26C4.55228 26 5 25.5523 5 25C5 22.812 5.83733 20.7905 5.83733 20.7905C6.67465 18.769 8.22183 17.2218 8.22183 17.2218C9.76901 15.6746 11.7905 14.8373 11.7905 14.8373C13.812 14 16 14 16 14Z" fill="white"/>
</g>
</g>
</svg>
