<svg xmlns="http://www.w3.org/2000/svg" width="24" height="24" viewBox="0 0 24 24" fill="none">
  <path d="M20.25 11.25L3.75 11.25C3.33579 11.25 3 11.5858 3 12C3 12.4142 3.33579 12.75 3.75 12.75L20.25 12.75C20.6642 12.75 21 12.4142 21 12C21 11.5858 20.6642 11.25 20.25 11.25Z" fill="#F2C2C3"/>
  <path d="M11.03 5.78061C11.1707 5.63996 11.25 5.44891 11.25 5.25C11.25 5.05109 11.171 4.86032 11.0303 4.71967L11.0239 4.71327C10.8838 4.5768 10.6956 4.5 10.5 4.5C10.3011 4.5 10.1103 4.57902 9.96967 4.71967L3.21967 11.4697C3.07902 11.6103 3 11.8011 3 12C3 12.1989 3.07902 12.3897 3.21967 12.5303L9.96967 19.2803C10.1103 19.421 10.3011 19.5 10.5 19.5C10.6989 19.5 10.8897 19.421 11.0303 19.2803C11.171 19.1397 11.25 18.9489 11.25 18.75C11.25 18.5511 11.171 18.3603 11.0303 18.2197L4.81066 12L11.03 5.78061Z" fill="#F2C2C3"/>
</svg>
