<svg xmlns="http://www.w3.org/2000/svg" width="32" height="33" viewBox="0 0 32 33" fill="none">
  <path d="M5 17.5H27C27.5523 17.5 28 17.0523 28 16.5C28 15.9477 27.5523 15.5 27 15.5H5C4.44772 15.5 4 15.9477 4 16.5C4 17.0523 4.44772 17.5 5 17.5Z" fill="#F2C2C3"/>
  <path d="M25.5858 16.5L17.2929 24.7929C17.1054 24.9804 17 25.2348 17 25.5C17 25.7652 17.1054 26.0196 17.2929 26.2071C17.4804 26.3946 17.7348 26.5 18 26.5C18.2652 26.5 18.5196 26.3946 18.7071 26.2071L27.7071 17.2071C28.0976 16.8166 28.0976 16.1834 27.7071 15.7929L18.7071 6.79289C18.5196 6.60536 18.2652 6.5 18 6.5C17.7348 6.5 17.4804 6.60536 17.2929 6.79289C17.1054 6.98043 17 7.23478 17 7.5C17 7.76522 17.1054 8.01957 17.2929 8.20711L25.5858 16.5Z" fill="#F2C2C3"/>
</svg>
