<svg width="32" height="32" viewBox="0 0 32 32" fill="none" xmlns="http://www.w3.org/2000/svg">
<g id="ArrowBendDownLeft-r">
<g id="Vector">
<path d="M10.7067 18.2925C10.8943 18.4801 11 18.7348 11 19C11 19.2652 10.8946 19.5196 10.7071 19.7071L10.6985 19.7156C10.5117 19.8976 10.2607 20 10 20C9.97 20 9.94002 19.9987 9.91015 19.996C9.67692 19.9749 9.45848 19.8727 9.29289 19.7071L3.29289 13.7071C3.10536 13.5196 3 13.2652 3 13C3 12.7348 3.10536 12.4804 3.29289 12.2929L9.29289 6.29289C9.48043 6.10536 9.73478 6 10 6C10.2652 6 10.5196 6.10536 10.7071 6.29289C10.8946 6.48043 11 6.73478 11 7C11 7.26522 10.8946 7.51957 10.7071 7.70711L5.41421 13L10.7067 18.2925Z" fill="white"/>
<path d="M16 14L4 14C3.44772 14 3 13.5523 3 13C3 12.4477 3.44772 12 4 12L16 12C18.5859 12 20.9749 12.9896 20.9749 12.9896C23.3639 13.9791 25.1924 15.8076 25.1924 15.8076C27.0209 17.6361 28.0104 20.0251 28.0104 20.0251C29 22.4141 29 25 29 25C29 25.5523 28.5523 26 28 26C27.4477 26 27 25.5523 27 25C27 22.812 26.1627 20.7905 26.1627 20.7905C25.3253 18.769 23.7782 17.2218 23.7782 17.2218C22.231 15.6746 20.2095 14.8373 20.2095 14.8373C18.188 14 16 14 16 14Z" fill="white"/>
</g>
</g>
</svg>
