<svg width="16" height="16" viewBox="0 0 16 16" fill="none" xmlns="http://www.w3.org/2000/svg">
<path d="M8 5.70711L12.6464 10.3536C12.7402 10.4473 12.8674 10.5 13 10.5C13.1326 10.5 13.2598 10.4473 13.3536 10.3536C13.4473 10.2598 13.5 10.1326 13.5 10C13.5 9.86739 13.4473 9.74021 13.3536 9.64645L8.35355 4.64645C8.25979 4.55268 8.13261 4.5 8 4.5C7.86739 4.5 7.74021 4.55268 7.64645 4.64645L2.64663 9.64626L2.64645 9.64645C2.55268 9.74021 2.5 9.86739 2.5 10C2.5 10.1326 2.55268 10.2598 2.64645 10.3536C2.74021 10.4473 2.86739 10.5 3 10.5C3.13261 10.5 3.25979 10.4473 3.35355 10.3536L3.35374 10.3534L8 5.70711Z" fill="#1C1C1C"/>
</svg>
