<svg xmlns="http://www.w3.org/2000/svg" width="33" height="32" viewBox="0 0 33 32" fill="none">
  <path d="M29.9992 14C29.9969 16.2536 29.1006 18.4143 27.5071 20.0078C25.9135 21.6014 23.7529 22.4977 21.4992 22.5H8.12423L11.5642 25.9387C11.7038 26.0783 11.8144 26.2439 11.89 26.4262C11.9655 26.6085 12.0043 26.8039 12.0043 27.0012C12.0043 27.1986 11.9655 27.394 11.89 27.5763C11.8144 27.7586 11.7038 27.9242 11.5642 28.0637C11.4247 28.2033 11.2591 28.314 11.0768 28.3895C10.8944 28.465 10.6991 28.5039 10.5017 28.5039C10.3044 28.5039 10.109 28.465 9.92671 28.3895C9.7444 28.314 9.57876 28.2033 9.43923 28.0637L3.43923 22.0637C3.29939 21.9244 3.18843 21.7588 3.11273 21.5765C3.03702 21.3941 2.99805 21.1987 2.99805 21.0012C2.99805 20.8038 3.03702 20.6083 3.11273 20.426C3.18843 20.2437 3.29939 20.0781 3.43923 19.9387L9.43923 13.9388C9.57876 13.7992 9.7444 13.6885 9.92671 13.613C10.109 13.5375 10.3044 13.4986 10.5017 13.4986C10.6991 13.4986 10.8944 13.5375 11.0768 13.613C11.2591 13.6885 11.4247 13.7992 11.5642 13.9388C11.7038 14.0783 11.8144 14.2439 11.89 14.4262C11.9655 14.6085 12.0043 14.8039 12.0043 15.0013C12.0043 15.1986 11.9655 15.394 11.89 15.5763C11.8144 15.7586 11.7038 15.9242 11.5642 16.0637L8.12423 19.5H21.4992C22.9579 19.5 24.3569 18.9205 25.3883 17.8891C26.4198 16.8576 26.9992 15.4587 26.9992 14C26.9992 12.5413 26.4198 11.1424 25.3883 10.1109C24.3569 9.07946 22.9579 8.5 21.4992 8.5H10.4992C10.1014 8.5 9.71987 8.34196 9.43857 8.06066C9.15726 7.77936 8.99923 7.39782 8.99923 7C8.99923 6.60218 9.15726 6.22064 9.43857 5.93934C9.71987 5.65804 10.1014 5.5 10.4992 5.5H21.4992C23.7529 5.50232 25.9135 6.39859 27.5071 7.99215C29.1006 9.58571 29.9969 11.7464 29.9992 14Z" fill="#13476C"/>
</svg>
