<svg width="20" height="21" viewBox="0 0 20 21" fill="none" xmlns="http://www.w3.org/2000/svg">
<path fill-rule="evenodd" clip-rule="evenodd" d="M16.2344 9.24994C16.2344 9.24994 16.2344 12.4919 17.2519 14.2493C17.2519 14.2493 17.4194 14.5395 17.4197 14.8738C17.4197 14.8738 17.42 15.2082 17.2533 15.498C17.2533 15.498 17.0867 15.7879 16.7976 15.9558C16.7976 15.9558 16.5085 16.1238 16.1741 16.1249L3.82817 16.1249C3.82817 16.1249 3.49162 16.1238 3.20251 15.9558C3.20251 15.9558 2.9134 15.7879 2.74674 15.498C2.74674 15.498 2.58007 15.2082 2.58037 14.8738C2.58037 14.8738 2.58066 14.5395 2.74784 14.2499C2.74784 14.2499 3.76567 12.4919 3.76567 9.24994C3.76567 9.24994 3.76567 8.00984 4.24023 6.86415C4.24023 6.86415 4.71479 5.71845 5.59167 4.84157C5.59167 4.84157 6.46855 3.96469 7.61425 3.49013C7.61425 3.49013 8.75995 3.01556 10 3.01556C10 3.01556 11.2401 3.01556 12.3858 3.49013C12.3858 3.49013 13.5315 3.96469 14.4084 4.84157C14.4084 4.84157 15.2853 5.71845 15.7599 6.86415C15.7599 6.86415 16.2344 8.00984 16.2344 9.24994ZM16.1697 14.8749C16.1697 14.8749 14.9844 12.8271 14.9844 9.24994C14.9844 9.24994 14.9844 8.25848 14.605 7.3425C14.605 7.3425 14.2256 6.42651 13.5245 5.72545C13.5245 5.72545 12.8235 5.02439 11.9075 4.64498C11.9075 4.64498 10.9915 4.26556 10 4.26556C10 4.26556 9.00859 4.26556 8.0926 4.64498C8.0926 4.64498 7.17662 5.02439 6.47556 5.72545C6.47556 5.72545 5.77449 6.42652 5.39508 7.3425C5.39508 7.3425 5.01567 8.25848 5.01567 9.24994C5.01567 9.24994 5.01567 12.8276 3.83037 14.8749H16.1697Z" fill="#F2C2C3"/>
<path d="M13.125 16.125V15.5C13.125 15.1548 12.8452 14.875 12.5 14.875C12.1549 14.875 11.875 15.1548 11.875 15.5V16.125C11.875 16.9016 11.3259 17.4508 11.3259 17.4508C10.7767 18 10 18 10 18C9.22338 18 8.6742 17.4508 8.6742 17.4508C8.12503 16.9016 8.12503 16.125 8.12503 16.125V15.5C8.12503 15.1548 7.84521 14.875 7.50003 14.875C7.15485 14.875 6.87503 15.1548 6.87503 15.5V16.125C6.87503 17.4194 7.79032 18.3347 7.79032 18.3347C8.70561 19.25 10 19.25 10 19.25C11.2944 19.25 12.2097 18.3347 12.2097 18.3347C13.125 17.4194 13.125 16.125 13.125 16.125Z" fill="#F2C2C3"/>
<path d="M16.7369 5.94144C16.8424 6.15406 17.0596 6.28906 17.2969 6.28906C17.304 6.28906 17.3111 6.28894 17.3181 6.2887C17.4074 6.28567 17.4949 6.26357 17.5749 6.22387C17.7875 6.11832 17.9219 5.90144 17.9219 5.66406C17.9219 5.65699 17.9218 5.64992 17.9216 5.64285C17.9185 5.55363 17.8964 5.46609 17.8567 5.38613C16.7557 3.16848 14.6618 1.84649 14.6618 1.84649C14.5619 1.78346 14.4463 1.75 14.3282 1.75L14.3262 1.75C14.2805 1.75015 14.2349 1.75531 14.1904 1.76538C14.0287 1.80193 13.8882 1.90121 13.7997 2.04138C13.7366 2.14124 13.7032 2.25691 13.7032 2.375L13.7032 2.37702C13.7033 2.42271 13.7085 2.46824 13.7186 2.51281C13.7551 2.67449 13.8544 2.81503 13.9946 2.90351C15.7915 4.03784 16.7369 5.94144 16.7369 5.94144Z" fill="#F2C2C3"/>
<path d="M3.26294 5.94198C4.20809 4.03812 6.0055 2.90351 6.0055 2.90351C6.14567 2.81503 6.24494 2.67449 6.28149 2.51281C6.29172 2.46758 6.29687 2.42136 6.29687 2.375L6.29673 2.36158C6.29429 2.24808 6.26099 2.13738 6.20038 2.04138C6.1119 1.90121 5.97136 1.80193 5.80968 1.76538C5.76446 1.75516 5.71824 1.75 5.67188 1.75L5.65846 1.75014C5.54495 1.75258 5.43426 1.78589 5.33825 1.84649C3.24437 3.16825 2.14331 5.38615 2.14331 5.38615C2.10044 5.47252 2.07812 5.56764 2.07812 5.66406L2.07821 5.67431C2.08204 5.90797 2.2159 6.11996 2.42521 6.22387C2.51158 6.26675 2.6067 6.28906 2.70312 6.28906L2.70716 6.28905C2.77358 6.28862 2.83951 6.27761 2.90246 6.25642C3.05956 6.20356 3.18923 6.09045 3.26294 5.94198Z" fill="#F2C2C3"/>
</svg>
