<svg width="24" height="24" viewBox="0 0 24 24" fill="none" xmlns="http://www.w3.org/2000/svg">
<g id="CaretDown-r">
<path id="Vector" d="M5.03033 8.46967C4.88968 8.32902 4.69891 8.25 4.5 8.25C4.30109 8.25 4.11032 8.32902 3.96967 8.46967C3.82902 8.61032 3.75 8.80109 3.75 9C3.75 9.19891 3.82902 9.38968 3.96967 9.53033L11.4697 17.0303C11.7626 17.3232 12.2374 17.3232 12.5303 17.0303L20.0303 9.53033C20.171 9.38968 20.25 9.19891 20.25 9C20.25 8.80109 20.171 8.61032 20.0303 8.46967C19.8897 8.32902 19.6989 8.25 19.5 8.25C19.3011 8.25 19.1103 8.32902 18.9697 8.46967L12 15.4393L5.03033 8.46967Z" fill="#13476C" fill-opacity="0.6"/>
</g>
</svg>
