<svg width="20" height="21" viewBox="0 0 20 21" fill="none" xmlns="http://www.w3.org/2000/svg">
<g id="CaretLeft-r">
<path id="Vector" d="M7.05829 16.3078L7.05806 16.3081C6.94085 16.4253 6.875 16.5842 6.875 16.75C6.875 16.9158 6.94085 17.0747 7.05806 17.1919L7.05842 17.1923L7.06345 17.1973L7.06382 17.1976C7.18053 17.3114 7.33704 17.375 7.5 17.375C7.66576 17.375 7.82473 17.3092 7.94194 17.1919L7.94218 17.1917L14.1919 10.9419C14.3092 10.8247 14.375 10.6658 14.375 10.5C14.375 10.3342 14.3092 10.1753 14.1919 10.0581L7.94194 3.80806C7.82473 3.69085 7.66576 3.625 7.5 3.625C7.33424 3.625 7.17527 3.69085 7.05806 3.80806C6.94085 3.92527 6.875 4.08424 6.875 4.25C6.875 4.41576 6.94085 4.57473 7.05806 4.69194L12.8661 10.5L7.05829 16.3078Z" fill="#FCFBF8"/>
</g>
</svg>
