<svg width="16" height="17" viewBox="0 0 16 17" fill="none" xmlns="http://www.w3.org/2000/svg">
<g id="Weight=Regular">
<path id="Vector" d="M3.35355 6.14645C3.25979 6.05268 3.13261 6 3 6C2.86739 6 2.74021 6.05268 2.64645 6.14645C2.55268 6.24021 2.5 6.36739 2.5 6.5C2.5 6.63261 2.55268 6.75979 2.64645 6.85355L7.64645 11.8536C7.84171 12.0488 8.15829 12.0488 8.35355 11.8536L13.3536 6.85355C13.4473 6.75979 13.5 6.63261 13.5 6.5C13.5 6.36739 13.4473 6.24021 13.3536 6.14645C13.2598 6.05268 13.1326 6 13 6C12.8674 6 12.7402 6.05268 12.6464 6.14645L8 10.7929L3.35355 6.14645Z" fill="white"/>
</g>
</svg>
