<svg width="112" height="92" viewBox="0 0 112 92" fill="none" xmlns="http://www.w3.org/2000/svg">
<path d="M107.49 8.26814C98.6839 3.18122 88.7105 0.460921 78.5409 0.372029C68.3713 0.283138 58.3519 2.82868 49.4579 7.7609C40.564 12.6931 33.0985 19.844 27.7881 28.5174C22.4777 37.1909 19.5033 47.0914 19.1544 57.2555L3.94395 70.7434C2.6844 71.86 1.76071 73.3053 1.27641 74.9174C0.792108 76.5294 0.766341 78.2445 1.20199 79.8704C1.63765 81.4963 2.5175 82.9687 3.74294 84.1226C4.96838 85.2765 6.49098 86.0664 8.14009 86.4036L28.0567 90.4792C32.7974 98.0682 39.2047 104.477 46.7923 109.22C54.3798 113.963 62.9482 116.916 71.847 117.853C80.7458 118.79 89.7411 117.687 98.1502 114.629C106.559 111.571 114.161 106.637 120.379 100.202C126.596 93.7666 131.266 85.9998 134.034 77.4906C136.802 68.9814 137.594 59.9535 136.352 51.0921C135.11 42.2308 131.865 33.7689 126.864 26.3488C121.863 18.9286 115.238 12.7453 107.49 8.26814ZM53.1153 102.448C45.5238 98.0724 39.2222 91.7697 34.8475 84.1774C34.5276 83.6209 34.0931 83.1386 33.5727 82.7626C33.0524 82.3867 32.4581 82.1256 31.8292 81.9966L9.94933 77.5265L26.6579 62.7125C27.1386 62.2872 27.5234 61.7646 27.7869 61.1793C28.0504 60.594 28.1866 59.9595 28.1863 59.3176C28.1777 48.344 31.7907 37.6742 38.4649 28.9635C45.139 20.2528 54.5012 13.988 65.0992 11.1412C75.6971 8.29428 86.9383 9.02437 97.0789 13.2182C107.22 17.412 115.693 24.8351 121.184 34.336C126.676 43.8368 128.878 54.8843 127.45 65.7646C126.022 76.645 121.043 86.7499 113.286 94.5119C105.529 102.274 95.4274 107.259 84.5479 108.694C73.6685 110.129 62.6196 107.934 53.1153 102.448Z" fill="#FCFBF8"/>
</svg>
