<svg width="20" height="20" viewBox="0 0 20 20" fill="none" xmlns="http://www.w3.org/2000/svg">
<path d="M9.99822 0.25C8.31491 0.249633 6.66018 0.685083 5.19508 1.51396C3.72999 2.34285 2.50445 3.53692 1.63776 4.97997C0.771063 6.42301 0.292736 8.06587 0.249336 9.74862C0.205935 11.4314 0.59894 13.0967 1.3901 14.5825L0.326034 17.7747C0.237895 18.039 0.225104 18.3226 0.289095 18.5938C0.353086 18.8649 0.49133 19.1129 0.688333 19.3099C0.885335 19.5069 1.13331 19.6451 1.40447 19.7091C1.67562 19.7731 1.95924 19.7603 2.22353 19.6722L5.41572 18.6081C6.72332 19.3036 8.17217 19.6921 9.65231 19.744C11.1324 19.7959 12.605 19.51 13.9581 18.9079C15.3112 18.3057 16.5094 17.4033 17.4617 16.269C18.4139 15.1346 19.0953 13.7983 19.454 12.3613C19.8127 10.9244 19.8393 9.42456 19.5318 7.97578C19.2243 6.52701 18.5908 5.16732 17.6794 3.99992C16.7679 2.83253 15.6025 1.88811 14.2716 1.23836C12.9407 0.588614 11.4793 0.250608 9.99822 0.25ZM12.9982 12.25H6.99822C6.79931 12.25 6.60854 12.171 6.46789 12.0303C6.32724 11.8897 6.24822 11.6989 6.24822 11.5C6.24822 11.3011 6.32724 11.1103 6.46789 10.9697C6.60854 10.829 6.79931 10.75 6.99822 10.75H12.9982C13.1971 10.75 13.3879 10.829 13.5286 10.9697C13.6692 11.1103 13.7482 11.3011 13.7482 11.5C13.7482 11.6989 13.6692 11.8897 13.5286 12.0303C13.3879 12.171 13.1971 12.25 12.9982 12.25ZM12.9982 9.25H6.99822C6.79931 9.25 6.60854 9.17098 6.46789 9.03033C6.32724 8.88968 6.24822 8.69891 6.24822 8.5C6.24822 8.30109 6.32724 8.11032 6.46789 7.96967C6.60854 7.82902 6.79931 7.75 6.99822 7.75H12.9982C13.1971 7.75 13.3879 7.82902 13.5286 7.96967C13.6692 8.11032 13.7482 8.30109 13.7482 8.5C13.7482 8.69891 13.6692 8.88968 13.5286 9.03033C13.3879 9.17098 13.1971 9.25 12.9982 9.25Z" fill="#13476C"/>
</svg>
