<svg width="16" height="8" viewBox="0 0 16 8" fill="none" xmlns="http://www.w3.org/2000/svg">
<path d="M9.60477 1.60516L4.10477 7.10516C4.0092 7.19757 3.88146 7.24922 3.74852 7.24922C3.61558 7.24922 3.48784 7.19757 3.39227 7.10516L0.642266 4.35516C0.562535 4.25801 0.521789 4.13468 0.527954 4.00915C0.534119 3.88362 0.586754 3.76488 0.675621 3.67601C0.764489 3.58714 0.883234 3.53451 1.00876 3.52834C1.13429 3.52218 1.25762 3.56293 1.35477 3.64266L3.74852 6.04266L8.89227 0.892657C8.98941 0.812925 9.11275 0.772179 9.23827 0.778344C9.3638 0.784509 9.48254 0.837145 9.57141 0.926012C9.66028 1.01488 9.71291 1.13362 9.71908 1.25915C9.72524 1.38468 9.6845 1.50801 9.60477 1.60516ZM15.3548 0.892657C15.26 0.798766 15.1319 0.746094 14.9985 0.746094C14.8651 0.746094 14.7371 0.798766 14.6423 0.892657L9.49852 6.04266L8.39227 4.93641C8.29715 4.85023 8.17254 4.80392 8.04423 4.80708C7.91592 4.81024 7.79374 4.86262 7.70299 4.95338C7.61223 5.04413 7.55985 5.16631 7.55669 5.29462C7.55353 5.42293 7.59984 5.54754 7.68602 5.64266L9.14227 7.10516C9.23784 7.19757 9.36557 7.24922 9.49852 7.24922C9.63146 7.24922 9.7592 7.19757 9.85477 7.10516L15.3548 1.60516C15.4487 1.51036 15.5013 1.38233 15.5013 1.24891C15.5013 1.11548 15.4487 0.987454 15.3548 0.892657Z" fill="#FDEAEA"/>
</svg>
