<svg width="16" height="7" viewBox="0 0 16 7" fill="none" xmlns="http://www.w3.org/2000/svg">
<path d="M9.60477 1.10516L4.10477 6.60516C4.0092 6.69757 3.88146 6.74922 3.74852 6.74922C3.61558 6.74922 3.48784 6.69757 3.39227 6.60516L0.642266 3.85516C0.562535 3.75801 0.521789 3.63468 0.527954 3.50915C0.534119 3.38362 0.586754 3.26488 0.675621 3.17601C0.764489 3.08714 0.883234 3.03451 1.00876 3.02834C1.13429 3.02218 1.25762 3.06293 1.35477 3.14266L3.74852 5.54266L8.89227 0.392657C8.98941 0.312925 9.11275 0.272179 9.23827 0.278344C9.3638 0.284509 9.48254 0.337145 9.57141 0.426012C9.66028 0.514879 9.71291 0.633625 9.71908 0.759151C9.72524 0.884677 9.6845 1.00801 9.60477 1.10516ZM15.3548 0.392657C15.26 0.298766 15.1319 0.246094 14.9985 0.246094C14.8651 0.246094 14.7371 0.298766 14.6423 0.392657L9.49852 5.54266L8.39227 4.43641C8.29715 4.35023 8.17254 4.30392 8.04423 4.30708C7.91592 4.31024 7.79374 4.36262 7.70299 4.45338C7.61223 4.54413 7.55985 4.66631 7.55669 4.79462C7.55353 4.92293 7.59984 5.04754 7.68602 5.14266L9.14227 6.60516C9.23784 6.69757 9.36557 6.74922 9.49852 6.74922C9.63146 6.74922 9.7592 6.69757 9.85477 6.60516L15.3548 1.10516C15.4487 1.01036 15.5013 0.88233 15.5013 0.748907C15.5013 0.615483 15.4487 0.487454 15.3548 0.392657Z" fill="#89A3B5"/>
</svg>
