<svg xmlns="http://www.w3.org/2000/svg" width="64" height="65" viewBox="0 0 64 65" fill="none">
  <path d="M32 6.5C26.8577 6.5 21.8309 8.02487 17.5552 10.8818C13.2795 13.7387 9.94702 17.7994 7.97914 22.5502C6.01127 27.3011 5.49638 32.5288 6.49959 37.5723C7.50281 42.6159 9.97907 47.2486 13.6152 50.8848C17.2514 54.5209 21.8842 56.9972 26.9277 58.0004C31.9712 59.0036 37.1989 58.4887 41.9498 56.5209C46.7007 54.553 50.7613 51.2205 53.6182 46.9448C56.4751 42.6691 58 37.6423 58 32.5C57.9868 25.6084 55.2433 19.0029 50.3702 14.1298C45.4971 9.25674 38.8916 6.51321 32 6.5ZM44.375 27.95L29.725 41.95C29.3463 42.3063 28.845 42.5032 28.325 42.5C28.0709 42.5036 27.8185 42.4569 27.5825 42.3625C27.3465 42.2681 27.1315 42.1279 26.95 41.95L19.625 34.95C19.4218 34.7727 19.2566 34.5562 19.1393 34.3135C19.0219 34.0708 18.9548 33.8068 18.9421 33.5375C18.9293 33.2681 18.9712 32.999 19.0651 32.7463C19.159 32.4935 19.3031 32.2624 19.4886 32.0668C19.6741 31.8711 19.8973 31.715 20.1447 31.6078C20.3921 31.5006 20.6586 31.4445 20.9282 31.443C21.1979 31.4414 21.465 31.4944 21.7136 31.5987C21.9623 31.703 22.1872 31.8565 22.375 32.05L28.325 37.725L41.625 25.05C42.0139 24.7107 42.5189 24.5349 43.0344 24.5593C43.5499 24.5837 44.036 24.8064 44.3911 25.1809C44.7462 25.5553 44.9428 26.0526 44.9398 26.5687C44.9368 27.0847 44.7344 27.5797 44.375 27.95Z" fill="#F2C2C3"/>
</svg>
