<svg xmlns="http://www.w3.org/2000/svg" width="20" height="21" viewBox="0 0 20 21" fill="none">
  <path d="M4.19218 10.0583L4.19194 10.0581C4.07473 9.94085 3.91576 9.875 3.75 9.875C3.58424 9.875 3.42527 9.94085 3.30806 10.0581C3.19085 10.1753 3.125 10.3342 3.125 10.5C3.125 10.51 3.12524 10.52 3.12572 10.53C3.13319 10.6852 3.19819 10.8321 3.30806 10.9419L3.30829 10.9422L7.68306 15.3169C7.92714 15.561 8.32286 15.561 8.56694 15.3169L17.3169 6.56694C17.4342 6.44973 17.5 6.29076 17.5 6.125C17.5 5.95924 17.4342 5.80027 17.3169 5.68306C17.1997 5.56585 17.0408 5.5 16.875 5.5C16.7092 5.5 16.5503 5.56585 16.4331 5.68306L8.125 13.9911L4.19218 10.0583Z" fill="#FCFBF8"/>
</svg>
