<svg width="14" height="14" viewBox="0 0 14 14" fill="none" xmlns="http://www.w3.org/2000/svg">
<g id="Circle">
<path id="Vector" d="M12.6875 7C12.6875 8.12488 12.3539 9.2245 11.729 10.1598C11.104 11.0951 10.2158 11.8241 9.17651 12.2546C8.13726 12.685 6.99369 12.7977 5.89043 12.5782C4.78716 12.3588 3.77374 11.8171 2.97833 11.0217C2.18292 10.2263 1.64124 9.21284 1.42179 8.10958C1.20233 7.00631 1.31496 5.86274 1.74544 4.82349C2.17591 3.78423 2.90489 2.89597 3.8402 2.27102C4.7755 1.64607 5.87512 1.3125 7 1.3125C8.50784 1.31438 9.95339 1.9142 11.0196 2.98041C12.0858 4.04661 12.6856 5.49216 12.6875 7Z" fill="#C359AC"/>
</g>
</svg>
