<svg width="32" height="32" viewBox="0 0 32 32" fill="none" xmlns="http://www.w3.org/2000/svg">
<g filter="url(#filter0_b_8490_27367)">
<rect width="32" height="32" rx="16" fill="grey" fill-opacity="0.3"/>
<path d="M16.0815 17.3309L15.9986 17.248L15.9157 17.3309L7.62323 25.6247C7.45757 25.7903 7.23289 25.8834 6.9986 25.8834C6.76432 25.8834 6.53963 25.7903 6.37397 25.6246C6.2083 25.459 6.11523 25.2343 6.11523 25C6.11523 24.7657 6.2083 24.541 6.37397 24.3754L14.6677 16.0829L14.7506 16L14.6677 15.9171L6.37397 7.62464C6.37396 7.62464 6.37396 7.62464 6.37396 7.62464C6.2083 7.45897 6.11523 7.23429 6.11523 7.00001C6.11523 6.76572 6.2083 6.54103 6.37397 6.37537C6.53963 6.20971 6.76432 6.11664 6.9986 6.11664C7.23288 6.11664 7.45757 6.2097 7.62323 6.37536C7.62323 6.37537 7.62324 6.37537 7.62324 6.37537L15.9157 14.6691L15.9986 14.752L16.0815 14.6691L24.374 6.37536C24.5396 6.20971 24.7643 6.11664 24.9986 6.11664C25.2329 6.11664 25.4576 6.20971 25.6232 6.37537C25.7889 6.54103 25.882 6.76572 25.882 7.00001C25.882 7.23429 25.7889 7.45898 25.6232 7.62464L17.3295 15.9171L17.2466 16L17.3295 16.0829L25.6232 24.3754C25.7053 24.4574 25.7703 24.5548 25.8147 24.662C25.8591 24.7691 25.882 24.884 25.882 25C25.882 25.116 25.8591 25.2309 25.8147 25.3381C25.7703 25.4452 25.7053 25.5426 25.6232 25.6246C25.5412 25.7067 25.4438 25.7717 25.3367 25.8161C25.2295 25.8605 25.1146 25.8834 24.9986 25.8834C24.8826 25.8834 24.7677 25.8605 24.6606 25.8161C24.5534 25.7717 24.456 25.7067 24.374 25.6246L16.0815 17.3309Z" fill="#FCFBF8" stroke="#FCFBF8" stroke-width="0.234375"/>
</g>
<defs>
<filter id="filter0_b_8490_27367" x="-5.14286" y="-5.14286" width="42.2857" height="42.2857" filterUnits="userSpaceOnUse" color-interpolation-filters="sRGB">
<feFlood flood-opacity="0" result="BackgroundImageFix"/>
<feGaussianBlur in="BackgroundImageFix" stdDeviation="2.57143"/>
<feComposite in2="SourceAlpha" operator="in" result="effect1_backgroundBlur_8490_27367"/>
<feBlend mode="normal" in="SourceGraphic" in2="effect1_backgroundBlur_8490_27367" result="shape"/>
</filter>
</defs>
</svg>

