<svg width="25" height="24" viewBox="0 0 25 24" fill="none" xmlns="http://www.w3.org/2000/svg">
<path fill-rule="evenodd" clip-rule="evenodd" d="M3.5 9C3.5 9 3.5 8.37868 3.93934 7.93934C3.93934 7.93934 4.37868 7.5 5 7.5H20C20 7.5 20.6213 7.5 21.0607 7.93934C21.0607 7.93934 21.5 8.37868 21.5 9V19.5C21.5 19.5 21.5 20.1213 21.0607 20.5607C21.0607 20.5607 20.6213 21 20 21H5C5 21 4.37868 21 3.93934 20.5607C3.93934 20.5607 3.5 20.1213 3.5 19.5V9ZM5 9V19.5L20 19.5V9H5Z" fill="#15476C"/>
<path d="M14.3562 3.01884C15.125 3.78769 15.125 4.875 15.125 4.875C15.125 5.28921 15.4608 5.625 15.875 5.625C16.2892 5.625 16.625 5.28921 16.625 4.875C16.625 3.16637 15.4168 1.95818 15.4168 1.95818C14.2086 0.75 12.5 0.75 12.5 0.75C10.7914 0.75 9.58319 1.95818 9.58319 1.95818C8.375 3.16637 8.375 4.875 8.375 4.875V8.25C8.375 8.66421 8.71079 9 9.125 9C9.53921 9 9.875 8.66421 9.875 8.25V4.875C9.875 3.78769 10.6438 3.01884 10.6438 3.01884C11.4127 2.25 12.5 2.25 12.5 2.25C13.5873 2.25 14.3562 3.01884 14.3562 3.01884Z" fill="#15476C"/>
<path d="M13.625 14.25C13.625 14.8713 13.1213 15.375 12.5 15.375C11.8787 15.375 11.375 14.8713 11.375 14.25C11.375 13.6287 11.8787 13.125 12.5 13.125C13.1213 13.125 13.625 13.6287 13.625 14.25Z" fill="#15476C"/>
</svg>
