<svg width="105" height="96" viewBox="0 0 105 96" fill="none" xmlns="http://www.w3.org/2000/svg">
<path d="M84.2838 13.6366C83.8929 12.1852 83.1427 10.8557 82.1024 9.77073C81.0622 8.68574 79.7654 7.88024 78.3318 7.42856C76.8982 6.97689 75.3739 6.89358 73.8996 7.18633C72.4253 7.47908 71.0484 8.13847 69.8961 9.10363L3.25977 65.0599C2.16252 65.9836 1.30287 67.157 0.752993 68.4817C0.203107 69.8064 -0.020966 71.2436 0.0995847 72.6728C0.220131 74.102 0.681782 75.4814 1.44578 76.6953C2.20979 77.9091 3.25384 78.922 4.49031 79.6488C5.40841 80.1706 6.41064 80.5279 7.45176 80.7046L93.1366 95.8382C94.6172 96.0987 96.1395 95.982 97.563 95.499C98.9866 95.0159 100.266 94.182 101.282 93.0742C102.298 91.9665 103.019 90.6206 103.378 89.1608C103.737 87.7009 103.722 86.1742 103.335 84.7216L84.2838 13.6366ZM41.9059 77.601L34.6497 50.5206L51.3598 36.4858L63.3946 81.4005L41.9059 77.601ZM9.26308 71.8353L27.0082 56.9592L32.0772 75.8768L9.26308 71.8353ZM73.2626 83.1474L59.0322 30.0389L75.5675 16.1255L94.5226 86.8672L73.2626 83.1474ZM102.593 36.8762C104.199 34.2659 106.346 32.0305 108.889 30.3214C114.488 26.6277 121.044 26.6 127.353 30.242C130.639 32.1394 133.397 32.2339 136.09 30.571C137.554 29.616 138.801 28.3637 139.749 26.8954C140.354 25.8569 141.347 25.1012 142.509 24.7945C143.67 24.4879 144.907 24.6553 145.945 25.2601C146.984 25.8649 147.739 26.8574 148.046 28.0194C148.353 29.1814 148.185 30.4176 147.581 31.4561C143.939 37.7642 134.339 44.7399 122.821 38.0903C119.535 36.1929 116.777 36.0984 114.084 37.7613C112.62 38.7163 111.373 39.9686 110.425 41.4369C110.125 41.9511 109.727 42.4013 109.254 42.7618C108.781 43.1222 108.241 43.3859 107.665 43.5378C107.09 43.6896 106.49 43.7267 105.901 43.6468C105.311 43.5669 104.743 43.3717 104.229 43.0722C103.715 42.7728 103.264 42.3749 102.904 41.9015C102.543 41.4281 102.28 40.8882 102.128 40.3129C101.976 39.7375 101.939 39.1379 102.019 38.5482C102.099 37.9586 102.294 37.3904 102.593 36.8762ZM99.8834 14.3826L106.68 2.61008C107.281 1.56932 108.271 0.809886 109.432 0.498848C110.592 0.187809 111.829 0.350641 112.87 0.951523C113.911 1.5524 114.67 2.54212 114.981 3.70293C115.292 4.86374 115.129 6.10057 114.529 7.14133L107.732 18.9139C107.131 19.9546 106.141 20.714 104.98 21.0251C103.82 21.3361 102.583 21.1733 101.542 20.5724C100.501 19.9715 99.7417 18.9818 99.4307 17.821C99.1196 16.6602 99.2825 15.4234 99.8834 14.3826ZM126.431 83.5626C126.585 84.1375 126.624 84.7371 126.546 85.3271C126.468 85.9171 126.274 86.486 125.977 87.0012C125.679 87.5165 125.283 87.968 124.81 88.3301C124.338 88.6922 123.799 88.9577 123.224 89.1115C122.649 89.2653 122.05 89.3043 121.46 89.2263C120.87 89.1484 120.301 88.955 119.785 88.6572C119.27 88.3594 118.819 87.9631 118.457 87.4908C118.094 87.0185 117.829 86.4795 117.675 85.9046L114.358 73.525C114.047 72.3635 114.21 71.126 114.811 70.0847C115.412 69.0433 116.402 68.2835 117.564 67.9723C118.725 67.6611 119.963 67.824 121.004 68.4252C122.046 69.0264 122.805 70.0167 123.117 71.1781L126.431 83.5626ZM140.927 63.972L126.889 61.0993C125.711 60.8584 124.678 60.1596 124.015 59.1566C123.353 58.1536 123.116 56.9287 123.357 55.7513C123.598 54.5738 124.297 53.5403 125.3 52.8781C126.303 52.2159 127.528 51.9792 128.705 52.2202L142.744 55.0929C143.921 55.3338 144.955 56.0326 145.617 57.0356C146.279 58.0385 146.516 59.2635 146.275 60.4409C146.034 61.6184 145.335 62.6519 144.332 63.3141C143.329 63.9763 142.104 64.213 140.927 63.972Z" fill="#FCFBF8"/>
</svg>
