<svg width="18" height="10" viewBox="0 0 18 10" fill="none" xmlns="http://www.w3.org/2000/svg">
  <path d="M2.03033 0.46967C1.88968 0.329018 1.69891 0.25 1.5 0.25C1.30109 0.25 1.11032 0.329018 0.96967 0.46967C0.829018 0.610322 0.75 0.801088 0.75 1C0.75 1.19891 0.829018 1.38968 0.96967 1.53033L8.46967 9.03033C8.76256 9.32322 9.23744 9.32322 9.53033 9.03033L17.0303 1.53033C17.171 1.38968 17.25 1.19891 17.25 1C17.25 0.801088 17.171 0.610322 17.0303 0.46967C16.8897 0.329018 16.6989 0.25 16.5 0.25C16.3011 0.25 16.1103 0.329018 15.9697 0.46967L9 7.43934L2.03033 0.46967Z" fill="#13476C" fill-opacity="0.6"/>
</svg>
