<svg width="48" height="48" viewBox="0 0 48 48" fill="none" xmlns="http://www.w3.org/2000/svg">
<path d="M42 9.75H6C5.80109 9.75 5.61032 9.82902 5.46967 9.96967C5.32902 10.1103 5.25 10.3011 5.25 10.5V36C5.25 36.5967 5.48705 37.169 5.90901 37.591C6.33097 38.0129 6.90326 38.25 7.5 38.25H40.5C41.0967 38.25 41.669 38.0129 42.091 37.591C42.5129 37.169 42.75 36.5967 42.75 36V10.5C42.75 10.3011 42.671 10.1103 42.5303 9.96967C42.3897 9.82902 42.1989 9.75 42 9.75ZM24 25.9819L7.9275 11.25H40.0725L24 25.9819ZM19.6181 24L6.75 35.7956V12.2044L19.6181 24ZM20.7281 25.0181L23.4938 27.5625C23.632 27.689 23.8126 27.7591 24 27.7591C24.1874 27.7591 24.368 27.689 24.5062 27.5625L27.2719 25.0275L40.0725 36.75H7.9275L20.7281 25.0181ZM28.3819 24L41.25 12.2044V35.7956L28.3819 24Z" fill="#1C1C1C"/>
</svg>
