<svg width="20" height="21" viewBox="0 0 20 21" fill="none" xmlns="http://www.w3.org/2000/svg">
<path d="M19.5311 18.9696L14.838 14.2765C16.2009 12.6419 16.8812 10.5448 16.7372 8.42137C16.5933 6.29798 15.6363 4.31183 14.0652 2.8761C12.4942 1.44037 10.4301 0.665607 8.30238 0.712989C6.17464 0.760371 4.14709 1.62625 2.64152 3.13049C1.13595 4.63473 0.268277 6.66152 0.219015 8.78921C0.169753 10.9169 0.94269 12.9817 2.37703 14.554C3.81137 16.1263 5.79668 17.0851 7.91994 17.2309C10.0432 17.3767 12.1409 16.6983 13.7767 15.3368L18.4699 20.0309C18.5395 20.1005 18.6223 20.1558 18.7133 20.1935C18.8044 20.2312 18.9019 20.2507 19.0005 20.2507C19.099 20.2507 19.1966 20.2312 19.2877 20.1935C19.3787 20.1558 19.4614 20.1005 19.5311 20.0309C19.6008 19.9612 19.6561 19.8785 19.6938 19.7874C19.7315 19.6964 19.7509 19.5988 19.7509 19.5002C19.7509 19.4017 19.7315 19.3041 19.6938 19.2131C19.6561 19.122 19.6008 19.0393 19.5311 18.9696ZM1.75049 9.00024C1.75049 7.66522 2.14637 6.36017 2.88807 5.25014C3.62977 4.14011 4.68397 3.27495 5.91737 2.76406C7.15077 2.25316 8.50797 2.11949 9.81735 2.37994C11.1267 2.64039 12.3295 3.28327 13.2735 4.22727C14.2175 5.17128 14.8603 6.37401 15.1208 7.68338C15.3812 8.99275 15.2476 10.35 14.7367 11.5834C14.2258 12.8168 13.3606 13.871 12.2506 14.6127C11.1406 15.3544 9.83551 15.7502 8.50049 15.7502C6.71088 15.7483 4.99515 15.0365 3.72971 13.771C2.46427 12.5056 1.75247 10.7898 1.75049 9.00024Z" fill="#15476C"/>
</svg>
