<svg xmlns="http://www.w3.org/2000/svg" width="24" height="24" viewBox="0 0 24 24" fill="none">
  <path d="M15.4068 5.96744C15.5474 6.10809 15.7386 6.1875 15.9375 6.1875C16.1364 6.1875 16.3272 6.10848 16.4678 5.96783C16.6085 5.82718 16.6875 5.63641 16.6875 5.4375C16.6875 5.23859 16.6085 5.04782 16.4678 4.90717L12.5303 0.96967C12.3897 0.829018 12.1989 0.75 12 0.75C11.8011 0.75 11.6103 0.829018 11.4697 0.96967L7.53245 4.90689C7.3918 5.04754 7.3125 5.23859 7.3125 5.4375C7.3125 5.44951 7.31279 5.46153 7.31337 5.47353C7.32232 5.65976 7.40033 5.83599 7.53217 5.96783C7.67282 6.10848 7.86359 6.1875 8.0625 6.1875C8.26141 6.1875 8.45218 6.10848 8.59283 5.96783L12 2.56066L15.4068 5.96744Z" fill="#F2C2C3"/>
  <path d="M12.75 12V1.5C12.75 1.08579 12.4142 0.75 12 0.75C11.5858 0.75 11.25 1.08579 11.25 1.5V12C11.25 12.4142 11.5858 12.75 12 12.75C12.4142 12.75 12.75 12.4142 12.75 12Z" fill="#F2C2C3"/>
  <path d="M5.25 9.75H7.5C7.91421 9.75 8.25 9.41421 8.25 9C8.25 8.58579 7.91421 8.25 7.5 8.25H5.25C4.62868 8.25 4.18934 8.68934 4.18934 8.68934C3.75 9.12868 3.75 9.75 3.75 9.75V19.5C3.75 20.1213 4.18934 20.5607 4.18934 20.5607C4.62868 21 5.25 21 5.25 21H18.75C19.3713 21 19.8107 20.5607 19.8107 20.5607C20.25 20.1213 20.25 19.5 20.25 19.5V9.75C20.25 9.12868 19.8107 8.68934 19.8107 8.68934C19.3713 8.25 18.75 8.25 18.75 8.25H16.5C16.0858 8.25 15.75 8.58579 15.75 9C15.75 9.41421 16.0858 9.75 16.5 9.75H18.75V19.5H5.25V9.75Z" fill="#F2C2C3"/>
</svg>
