<svg width="114" height="99" viewBox="0 0 114 99" fill="none" xmlns="http://www.w3.org/2000/svg">
<path d="M145.859 51.963L59.5272 2.11922C57.4457 0.917457 54.972 0.591793 52.6504 1.21387C50.3288 1.83595 48.3494 3.35481 47.1476 5.43632L1.8351 83.9199C0.962548 85.4107 0.538622 87.1216 0.614181 88.8473C0.68974 90.5731 1.26157 92.2404 2.26108 93.6492C3.02157 94.7315 4.008 95.6358 5.1522 96.2995C6.99716 97.3588 9.15773 97.7303 11.2506 97.3481C11.2828 97.3464 11.3147 97.3406 11.3455 97.331L35.0619 92.6389L100.547 130.447C102.628 131.648 105.102 131.974 107.423 131.352C109.745 130.73 111.724 129.211 112.926 127.129L149.176 64.3426C150.378 62.2611 150.704 59.7874 150.082 57.4658C149.459 55.1441 147.941 53.1647 145.859 51.963ZM105.078 122.598L39.5931 84.7905C37.7455 83.7226 35.5802 83.3411 33.4788 83.713L33.3887 83.733L9.68345 88.4511L54.996 9.96757L141.328 59.8113L105.078 122.598ZM64.9473 47.1064C65.5482 46.0656 66.5379 45.3062 67.6987 44.9952C68.8595 44.6841 70.0963 44.847 71.1371 45.4478L102.53 63.5728C103.571 64.1737 104.331 65.1634 104.642 66.3242C104.953 67.4851 104.79 68.7219 104.189 69.7626C103.588 70.8034 102.598 71.5628 101.438 71.8739C100.277 72.1849 99.04 72.0221 97.9992 71.4212L66.6058 53.2962C65.5651 52.6953 64.8056 51.7056 64.4946 50.5448C64.1836 49.384 64.3464 48.1471 64.9473 47.1064ZM55.8848 62.8031C56.4857 61.7623 57.4754 61.0029 58.6362 60.6919C59.797 60.3808 61.0338 60.5437 62.0746 61.1445L93.468 79.2695C94.5087 79.8704 95.2682 80.8601 95.5792 82.0209C95.8903 83.1818 95.7274 84.4186 95.1265 85.4593C94.5257 86.5001 93.536 87.2595 92.3751 87.5706C91.2143 87.8816 89.9775 87.7188 88.9367 87.1179L57.5433 68.9929C56.5026 68.392 55.7431 67.4023 55.4321 66.2415C55.1211 65.0807 55.2839 63.8439 55.8848 62.8031Z" fill="#FCFBF8"/>
</svg>
