<svg width="16" height="17" viewBox="0 0 16 17" fill="none" xmlns="http://www.w3.org/2000/svg">
<g id="Weight=Regular">
<g id="Vector">
<path d="M9.25 10.75H2.5C2.22386 10.75 2 10.9739 2 11.25C2 11.5261 2.22386 11.75 2.5 11.75H9.25C9.52614 11.75 9.75 11.5261 9.75 11.25C9.75 10.9739 9.52614 10.75 9.25 10.75Z" fill="#262C30"/>
<path d="M13.5 10.75H11.75C11.4739 10.75 11.25 10.9739 11.25 11.25C11.25 11.5261 11.4739 11.75 11.75 11.75H13.5C13.7761 11.75 14 11.5261 14 11.25C14 10.9739 13.7761 10.75 13.5 10.75Z" fill="#262C30"/>
<path fill-rule="evenodd" clip-rule="evenodd" d="M10.5 9.5C10.5 9.5 11.2249 9.5 11.7374 10.0126C11.7374 10.0126 12.25 10.5251 12.25 11.25C12.25 11.25 12.25 11.9749 11.7374 12.4874C11.7374 12.4874 11.2249 13 10.5 13C10.5 13 9.77513 13 9.26256 12.4874C9.26256 12.4874 8.75 11.9749 8.75 11.25C8.75 11.25 8.75 10.5251 9.26256 10.0126C9.26256 10.0126 9.77513 9.5 10.5 9.5ZM10.5 10.5C10.5 10.5 10.1893 10.5 9.96967 10.7197C9.96967 10.7197 9.75 10.9393 9.75 11.25C9.75 11.25 9.75 11.5607 9.96967 11.7803C9.96967 11.7803 10.1893 12 10.5 12C10.5 12 10.8107 12 11.0303 11.7803C11.0303 11.7803 11.25 11.5607 11.25 11.25C11.25 11.25 11.25 10.9393 11.0303 10.7197C11.0303 10.7197 10.8107 10.5 10.5 10.5Z" fill="#262C30"/>
<path d="M5.25 5.25H2.5C2.22386 5.25 2 5.47386 2 5.75C2 6.02614 2.22386 6.25 2.5 6.25H5.25C5.52614 6.25 5.75 6.02614 5.75 5.75C5.75 5.47386 5.52614 5.25 5.25 5.25Z" fill="#262C30"/>
<path d="M13.5 5.25H7.75C7.47386 5.25 7.25 5.47386 7.25 5.75C7.25 6.02614 7.47386 6.25 7.75 6.25H13.5C13.7761 6.25 14 6.02614 14 5.75C14 5.47386 13.7761 5.25 13.5 5.25Z" fill="#262C30"/>
<path fill-rule="evenodd" clip-rule="evenodd" d="M6.5 4C6.5 4 7.22487 4 7.73744 4.51256C7.73744 4.51256 8.25 5.02513 8.25 5.75C8.25 5.75 8.25 6.47487 7.73744 6.98744C7.73744 6.98744 7.22487 7.5 6.5 7.5C6.5 7.5 5.77513 7.5 5.26256 6.98744C5.26256 6.98744 4.75 6.47487 4.75 5.75C4.75 5.75 4.75 5.02513 5.26256 4.51256C5.26256 4.51256 5.77513 4 6.5 4ZM6.5 5C6.5 5 6.18934 5 5.96967 5.21967C5.96967 5.21967 5.75 5.43934 5.75 5.75C5.75 5.75 5.75 6.06066 5.96967 6.28033C5.96967 6.28033 6.18934 6.5 6.5 6.5C6.5 6.5 6.81066 6.5 7.03033 6.28033C7.03033 6.28033 7.25 6.06066 7.25 5.75C7.25 5.75 7.25 5.43934 7.03033 5.21967C7.03033 5.21967 6.81066 5 6.5 5Z" fill="#262C30"/>
</g>
</g>
</svg>
