<svg width="133" height="100" viewBox="0 0 133 100" fill="none" xmlns="http://www.w3.org/2000/svg">
<g style="mix-blend-mode:color-dodge">
<path opacity="0.2" d="M134.354 87.6731C132.264 91.2912 131.489 95.5203 132.158 99.6446C132.828 103.769 134.903 107.535 138.03 110.306C138.811 110.998 139.33 111.938 139.498 112.968C139.666 113.998 139.473 115.055 138.952 115.959L131.926 128.129C131.325 129.17 130.335 129.929 129.174 130.24C128.014 130.551 126.777 130.388 125.736 129.788L62.9492 93.5375L103.73 22.9023L166.517 59.1523C167.558 59.7532 168.318 60.7429 168.629 61.9037C168.94 63.0646 168.777 64.3014 168.176 65.3421L161.15 77.512C160.627 78.4153 159.808 79.1104 158.832 79.4799C157.856 79.8495 156.783 79.8708 155.793 79.5403C151.829 78.217 147.531 78.3038 143.624 79.7858C139.717 81.2678 136.443 84.0541 134.354 87.6731Z" fill="#fcfbf8"/>
<path d="M154.352 83.8366C156.333 84.4995 158.482 84.4575 160.436 83.718C162.39 82.9784 164.028 81.5865 165.073 79.778L172.1 67.6081C173.301 65.5266 173.627 63.053 173.005 60.7313C172.383 58.4097 170.864 56.4303 168.783 55.2285L74.6023 0.853524C72.5208 -0.348238 70.0471 -0.673902 67.7255 -0.0518239C65.4039 0.570254 63.4244 2.08912 62.2227 4.17063L55.1964 16.3405C54.1529 18.1502 53.7666 20.2648 54.103 22.3266C54.4393 24.3883 55.4776 26.2706 57.0422 27.6548C59.3756 29.735 60.9208 32.5558 61.4175 35.6421C61.9142 38.7284 61.332 41.8916 59.7689 44.5988C58.2059 47.306 55.7576 49.3918 52.8365 50.5048C49.9153 51.6178 46.6998 51.6901 43.7317 50.7093C41.7469 50.0453 39.5935 50.0886 37.6371 50.832C35.6807 51.5754 34.0419 52.9731 32.9989 54.7876L25.9727 66.9575C24.7709 69.039 24.4452 71.5126 25.0673 73.8343C25.6894 76.1559 27.2083 78.1353 29.2898 79.3371L123.47 133.712C125.552 134.914 128.025 135.24 130.347 134.617C132.668 133.995 134.648 132.476 135.85 130.395L142.876 118.225C143.919 116.415 144.306 114.301 143.969 112.239C143.633 110.177 142.595 108.295 141.03 106.911C138.697 104.831 137.151 102.01 136.655 98.9235C136.158 95.8372 136.74 92.674 138.303 89.9668C139.866 87.2596 142.315 85.1738 145.236 84.0608C148.157 82.9478 151.372 82.8755 154.341 83.8563L154.352 83.8366ZM40.8445 59.3238C45.7986 60.98 51.1729 60.8735 56.0576 59.0222C60.9422 57.1709 65.0371 53.6885 67.6489 49.1646C70.2608 44.6408 71.2292 39.3534 70.3901 34.1975C69.5511 29.0416 66.9562 24.334 63.0448 20.8717L70.071 8.70188L97.5403 24.5613L61.2903 87.3481L33.821 71.4887L40.8445 59.3238ZM135.025 113.699L128.001 125.864L69.1386 91.8793L105.389 29.0925L164.251 63.0769L157.228 75.2418C152.274 73.5856 146.899 73.6921 142.015 75.5434C137.13 77.3947 133.035 80.8771 130.423 85.401C127.812 89.9248 126.843 95.2122 127.682 100.368C128.521 105.524 131.116 110.232 135.028 113.694L135.025 113.699Z" fill="#fcfbf8"/>
</g>
</svg>
