<svg width="32" height="32" viewBox="0 0 32 32" fill="none" xmlns="http://www.w3.org/2000/svg">
  <rect width="32" height="32" rx="16" fill="#FCFBF8" fill-opacity="0.6"/>
  <path d="M19.5312 22.9698C19.6009 23.0395 19.6562 23.1222 19.6939 23.2132C19.7316 23.3043 19.751 23.4019 19.751 23.5004C19.751 23.599 19.7316 23.6965 19.6939 23.7876C19.6562 23.8786 19.6009 23.9614 19.5312 24.031C19.4615 24.1007 19.3788 24.156 19.2878 24.1937C19.1967 24.2314 19.0991 24.2508 19.0006 24.2508C18.902 24.2508 18.8045 24.2314 18.7134 24.1937C18.6224 24.156 18.5396 24.1007 18.47 24.031L10.97 16.531C10.9002 16.4614 10.8449 16.3787 10.8072 16.2876C10.7694 16.1966 10.75 16.099 10.75 16.0004C10.75 15.9019 10.7694 15.8043 10.8072 15.7132C10.8449 15.6222 10.9002 15.5394 10.97 15.4698L18.47 7.96979C18.6107 7.82906 18.8016 7.75 19.0006 7.75C19.1996 7.75 19.3905 7.82906 19.5312 7.96979C19.6719 8.11052 19.751 8.30139 19.751 8.50042C19.751 8.69944 19.6719 8.89031 19.5312 9.03104L12.5609 16.0004L19.5312 22.9698Z" fill="#13476C" fill-opacity="0.6"/>
</svg>
