<svg width="65" height="65" viewBox="0 0 65 65" fill="none" xmlns="http://www.w3.org/2000/svg">
<g id="HandPointing-f">
<path id="Vector" d="M47.7344 21.3281C46.4257 21.3222 45.1416 21.6828 44.0273 22.3691C43.2188 20.6591 41.7643 19.3401 39.9836 18.7021C38.2029 18.064 36.2417 18.1593 34.5312 18.9668V9.14062C34.5312 7.2551 33.7822 5.4468 32.4489 4.11354C31.1157 2.78027 29.3074 2.03125 27.4219 2.03125C25.5363 2.03125 23.728 2.78027 22.3948 4.11354C21.0615 5.4468 20.3125 7.2551 20.3125 9.14062V32.3477L18.5351 29.2754C17.6025 27.6357 16.0566 26.4336 14.2377 25.9336C12.4187 25.4336 10.4756 25.6767 8.83591 26.6094C7.19618 27.542 5.99411 29.0879 5.49413 30.9068C4.99416 32.7258 5.23724 34.6689 6.1699 36.3086C14.4219 53.6758 19.9062 60.9375 32.5 60.9375C38.4238 60.9308 44.1032 58.5746 48.292 54.3857C52.4808 50.1969 54.837 44.5176 54.8437 38.5938V28.4375C54.837 26.554 54.0859 24.7496 52.754 23.4178C51.4222 22.086 49.6178 21.3348 47.7344 21.3281ZM50.7812 38.5938C50.7745 43.4402 48.8463 48.0862 45.4194 51.5131C41.9924 54.9401 37.3464 56.8683 32.5 56.875C27.3711 56.875 23.8164 55.4785 20.5664 52.2539C17.3164 49.0293 14.2949 43.9258 9.82615 34.5059L9.74998 34.3535C9.54468 34.0094 9.41177 33.6269 9.35938 33.2297C9.30699 32.8324 9.33622 32.4286 9.44529 32.043C9.54608 31.6545 9.72388 31.2903 9.96813 30.9719C10.2124 30.6535 10.5181 30.3874 10.8672 30.1895C11.5665 29.7857 12.3976 29.6761 13.1777 29.8848C13.5627 29.9859 13.9232 30.1641 14.2374 30.4085C14.5516 30.6529 14.813 30.9584 15.0058 31.3066L20.5918 40.9551C20.8195 41.3381 21.1654 41.6368 21.5776 41.8062C21.9897 41.9756 22.4457 42.0066 22.8769 41.8945C23.3085 41.7816 23.6901 41.5281 23.9614 41.174C24.2327 40.8199 24.3782 40.3855 24.375 39.9395V9.14062C24.375 8.33254 24.696 7.55756 25.2674 6.98616C25.8388 6.41476 26.6138 6.09375 27.4219 6.09375C28.2299 6.09375 29.0049 6.41476 29.5763 6.98616C30.1477 7.55756 30.4687 8.33254 30.4687 9.14062V26.4062C30.4687 26.945 30.6827 27.4616 31.0637 27.8426C31.4446 28.2235 31.9613 28.4375 32.5 28.4375C33.0387 28.4375 33.5554 28.2235 33.9363 27.8426C34.3172 27.4616 34.5312 26.945 34.5312 26.4062V25.3906C34.5312 24.5825 34.8522 23.8076 35.4236 23.2362C35.995 22.6648 36.77 22.3438 37.5781 22.3438C38.3862 22.3438 39.1612 22.6648 39.7326 23.2362C40.304 23.8076 40.625 24.5825 40.625 25.3906V28.4375C40.625 28.9762 40.839 29.4929 41.2199 29.8738C41.6008 30.2547 42.1175 30.4688 42.6562 30.4688C43.195 30.4688 43.7116 30.2547 44.0925 29.8738C44.4735 29.4929 44.6875 28.9762 44.6875 28.4375C44.6875 27.6294 45.0085 26.8544 45.5799 26.283C46.1513 25.7116 46.9263 25.3906 47.7344 25.3906C48.5424 25.3906 49.3174 25.7116 49.8888 26.283C50.4602 26.8544 50.7812 27.6294 50.7812 28.4375V38.5938Z" fill="#F2C2C3"/>
</g>
</svg>
