<svg width="65" height="65" viewBox="0 0 65 65" fill="none" xmlns="http://www.w3.org/2000/svg">
<g id="HandPointing-f">
<path id="Vector" d="M47.7348 21.3281C46.4262 21.3222 45.142 21.6828 44.0278 22.3691C43.2193 20.6591 41.7648 19.3401 39.9841 18.7021C38.2034 18.064 36.2422 18.1593 34.5317 18.9668V9.14062C34.5317 7.2551 33.7827 5.4468 32.4494 4.11354C31.1162 2.78027 29.3079 2.03125 27.4223 2.03125C25.5368 2.03125 23.7285 2.78027 22.3953 4.11354C21.062 5.4468 20.313 7.2551 20.313 9.14062V32.3477L18.5356 29.2754C17.603 27.6357 16.0571 26.4336 14.2382 25.9336C12.4192 25.4336 10.4761 25.6767 8.8364 26.6094C7.19667 27.542 5.99459 29.0879 5.49462 30.9068C4.99464 32.7258 5.23773 34.6689 6.17039 36.3086C14.4223 53.6758 19.9067 60.9375 32.5005 60.9375C38.4243 60.9308 44.1037 58.5746 48.2925 54.3857C52.4813 50.1969 54.8375 44.5176 54.8442 38.5938V28.4375C54.8375 26.554 54.0864 24.7496 52.7545 23.4178C51.4227 22.086 49.6183 21.3348 47.7348 21.3281ZM50.7817 38.5938C50.775 43.4402 48.8468 48.0862 45.4198 51.5131C41.9929 54.9401 37.3469 56.8683 32.5005 56.875C27.3716 56.875 23.8169 55.4785 20.5669 52.2539C17.3169 49.0293 14.2954 43.9258 9.82664 34.5059L9.75046 34.3535C9.54517 34.0094 9.41226 33.6269 9.35987 33.2297C9.30748 32.8324 9.33671 32.4286 9.44578 32.043C9.54657 31.6545 9.72437 31.2903 9.96862 30.9719C10.2129 30.6535 10.5186 30.3874 10.8677 30.1895C11.567 29.7857 12.3981 29.6761 13.1782 29.8848C13.5632 29.9859 13.9237 30.1641 14.2379 30.4085C14.5521 30.6529 14.8135 30.9584 15.0063 31.3066L20.5923 40.9551C20.82 41.3381 21.1659 41.6368 21.578 41.8062C21.9902 41.9756 22.4462 42.0066 22.8774 41.8945C23.309 41.7816 23.6905 41.5281 23.9619 41.174C24.2332 40.8199 24.3787 40.3855 24.3755 39.9395V9.14062C24.3755 8.33254 24.6965 7.55756 25.2679 6.98616C25.8393 6.41476 26.6143 6.09375 27.4223 6.09375C28.2304 6.09375 29.0054 6.41476 29.5768 6.98616C30.1482 7.55756 30.4692 8.33254 30.4692 9.14062V26.4062C30.4692 26.945 30.6832 27.4616 31.0642 27.8426C31.4451 28.2235 31.9617 28.4375 32.5005 28.4375C33.0392 28.4375 33.5558 28.2235 33.9368 27.8426C34.3177 27.4616 34.5317 26.945 34.5317 26.4062V25.3906C34.5317 24.5825 34.8527 23.8076 35.4241 23.2362C35.9955 22.6648 36.7705 22.3438 37.5786 22.3438C38.3867 22.3438 39.1617 22.6648 39.7331 23.2362C40.3045 23.8076 40.6255 24.5825 40.6255 25.3906V28.4375C40.6255 28.9762 40.8395 29.4929 41.2204 29.8738C41.6013 30.2547 42.118 30.4688 42.6567 30.4688C43.1954 30.4688 43.7121 30.2547 44.093 29.8738C44.474 29.4929 44.688 28.9762 44.688 28.4375C44.688 27.6294 45.009 26.8544 45.5804 26.283C46.1518 25.7116 46.9268 25.3906 47.7348 25.3906C48.5429 25.3906 49.3179 25.7116 49.8893 26.283C50.4607 26.8544 50.7817 27.6294 50.7817 28.4375V38.5938Z" fill="white"/>
</g>
</svg>
