<svg width="138" height="16" viewBox="0 0 138 16" fill="none" xmlns="http://www.w3.org/2000/svg">
<path d="M15 5.875C15 10.25 8.51312 13.7913 8.23687 13.9375C8.16406 13.9767 8.08268 13.9972 8 13.9972C7.91732 13.9972 7.83594 13.9767 7.76312 13.9375C7.48688 13.7913 1 10.25 1 5.875C1.00116 4.84764 1.40979 3.86269 2.13624 3.13624C2.86269 2.40979 3.84764 2.00116 4.875 2C6.16563 2 7.29562 2.555 8 3.49313C8.70438 2.555 9.83438 2 11.125 2C12.1524 2.00116 13.1373 2.40979 13.8638 3.13624C14.5902 3.86269 14.9988 4.84764 15 5.875Z" fill="#C359AC"/>
<path d="M29.8295 5.95455C29.7784 5.52273 29.571 5.1875 29.2074 4.94886C28.8438 4.71023 28.3977 4.59091 27.8693 4.59091C27.483 4.59091 27.1449 4.65341 26.8551 4.77841C26.5682 4.90341 26.3438 5.07528 26.1818 5.29403C26.0227 5.51278 25.9432 5.76136 25.9432 6.03977C25.9432 6.27273 25.9986 6.47301 26.1094 6.64062C26.223 6.8054 26.3679 6.94318 26.544 7.05398C26.7202 7.16193 26.9048 7.25142 27.098 7.32244C27.2912 7.39062 27.4688 7.44602 27.6307 7.48864L28.517 7.72727C28.7443 7.78693 28.9972 7.86932 29.2756 7.97443C29.5568 8.07955 29.8253 8.22301 30.081 8.40483C30.3395 8.58381 30.5526 8.81392 30.7202 9.09517C30.8878 9.37642 30.9716 9.72159 30.9716 10.1307C30.9716 10.6023 30.848 11.0284 30.6009 11.4091C30.3565 11.7898 29.9986 12.0923 29.527 12.3168C29.0582 12.5412 28.4886 12.6534 27.8182 12.6534C27.1932 12.6534 26.652 12.5526 26.1946 12.3509C25.7401 12.1491 25.3821 11.8679 25.1207 11.5071C24.8622 11.1463 24.7159 10.7273 24.6818 10.25H25.7727C25.8011 10.5795 25.9119 10.8523 26.1051 11.0682C26.3011 11.2812 26.5483 11.4403 26.8466 11.5455C27.1477 11.6477 27.4716 11.6989 27.8182 11.6989C28.2216 11.6989 28.5838 11.6335 28.9048 11.5028C29.2259 11.3693 29.4801 11.1847 29.6676 10.9489C29.8551 10.7102 29.9489 10.4318 29.9489 10.1136C29.9489 9.82386 29.8679 9.58807 29.706 9.40625C29.544 9.22443 29.331 9.0767 29.0668 8.96307C28.8026 8.84943 28.517 8.75 28.2102 8.66477L27.1364 8.35795C26.4545 8.16193 25.9148 7.8821 25.517 7.51847C25.1193 7.15483 24.9205 6.67898 24.9205 6.09091C24.9205 5.60227 25.0526 5.17614 25.3168 4.8125C25.5838 4.44602 25.9418 4.16193 26.3906 3.96023C26.8423 3.75568 27.3466 3.65341 27.9034 3.65341C28.4659 3.65341 28.9659 3.75426 29.4034 3.95597C29.8409 4.15483 30.1875 4.42756 30.4432 4.77415C30.7017 5.12074 30.8381 5.5142 30.8523 5.95455H29.8295ZM34.4989 12.6534C34.0842 12.6534 33.7077 12.5753 33.3697 12.419C33.0316 12.2599 32.7631 12.0312 32.5643 11.733C32.3654 11.4318 32.266 11.0682 32.266 10.642C32.266 10.267 32.3398 9.96307 32.4876 9.73011C32.6353 9.49432 32.8327 9.30966 33.0799 9.17614C33.3271 9.04261 33.5998 8.94318 33.8981 8.87784C34.1992 8.80966 34.5018 8.75568 34.8058 8.71591C35.2035 8.66477 35.5259 8.62642 35.7731 8.60085C36.0231 8.57244 36.2049 8.52557 36.3185 8.46023C36.435 8.39489 36.4933 8.28125 36.4933 8.11932V8.08523C36.4933 7.66477 36.3782 7.33807 36.1481 7.10511C35.9208 6.87216 35.5756 6.75568 35.1126 6.75568C34.6325 6.75568 34.256 6.8608 33.9833 7.07102C33.7106 7.28125 33.5188 7.50568 33.408 7.74432L32.4535 7.40341C32.6239 7.00568 32.8512 6.69602 33.1353 6.47443C33.4222 6.25 33.7347 6.09375 34.0728 6.00568C34.4137 5.91477 34.7489 5.86932 35.0785 5.86932C35.2887 5.86932 35.5302 5.89489 35.8029 5.94602C36.0785 5.99432 36.3441 6.09517 36.5998 6.24858C36.8583 6.40199 37.0728 6.63352 37.2433 6.94318C37.4137 7.25284 37.4989 7.66761 37.4989 8.1875V12.5H36.4933V11.6136H36.4421C36.3739 11.7557 36.2603 11.9077 36.1012 12.0696C35.9421 12.2315 35.7305 12.3693 35.4663 12.483C35.2021 12.5966 34.8796 12.6534 34.4989 12.6534ZM34.6523 11.75C35.0501 11.75 35.3853 11.6719 35.658 11.5156C35.9336 11.3594 36.141 11.1577 36.2802 10.9105C36.4222 10.6634 36.4933 10.4034 36.4933 10.1307V9.21023C36.4506 9.26136 36.3569 9.30824 36.212 9.35085C36.07 9.39062 35.9052 9.42614 35.7177 9.45739C35.533 9.4858 35.3526 9.51136 35.1765 9.53409C35.0032 9.55398 34.8626 9.57102 34.7546 9.58523C34.4933 9.61932 34.2489 9.67472 34.0217 9.75142C33.7972 9.82528 33.6154 9.9375 33.4762 10.0881C33.3398 10.2358 33.2717 10.4375 33.2717 10.6932C33.2717 11.0426 33.4009 11.3068 33.6594 11.4858C33.9208 11.6619 34.2518 11.75 34.6523 11.75ZM44.4524 5.95455L42.032 12.5H41.0092L38.5888 5.95455H39.6797L41.4865 11.1705H41.5547L43.3615 5.95455H44.4524ZM48.2898 12.6364C47.6591 12.6364 47.1151 12.4972 46.6577 12.2188C46.2031 11.9375 45.8523 11.5455 45.6051 11.0426C45.3608 10.5369 45.2386 9.94886 45.2386 9.27841C45.2386 8.60795 45.3608 8.01705 45.6051 7.50568C45.8523 6.99148 46.196 6.59091 46.6364 6.30398C47.0795 6.0142 47.5966 5.86932 48.1875 5.86932C48.5284 5.86932 48.8651 5.92614 49.1974 6.03977C49.5298 6.15341 49.8324 6.33807 50.1051 6.59375C50.3778 6.84659 50.5952 7.18182 50.7571 7.59943C50.919 8.01705 51 8.53125 51 9.14205V9.56818H45.9545V8.69886H49.9773C49.9773 8.32955 49.9034 8 49.7557 7.71023C49.6108 7.42045 49.4034 7.19176 49.1335 7.02415C48.8665 6.85653 48.5511 6.77273 48.1875 6.77273C47.7869 6.77273 47.4403 6.87216 47.1477 7.07102C46.858 7.26705 46.6349 7.52273 46.4787 7.83807C46.3224 8.15341 46.2443 8.49148 46.2443 8.85227V9.43182C46.2443 9.92614 46.3295 10.3452 46.5 10.6889C46.6733 11.0298 46.9134 11.2898 47.2202 11.4688C47.527 11.6449 47.8835 11.733 48.2898 11.733C48.554 11.733 48.7926 11.696 49.0057 11.6222C49.2216 11.5455 49.4077 11.4318 49.5639 11.2812C49.7202 11.1278 49.8409 10.9375 49.9261 10.7102L50.8977 10.983C50.7955 11.3125 50.6236 11.6023 50.3821 11.8523C50.1406 12.0994 49.8423 12.2926 49.4872 12.4318C49.1321 12.5682 48.733 12.6364 48.2898 12.6364ZM55.0014 12.6364C54.456 12.6364 53.9744 12.4986 53.5568 12.223C53.1392 11.9446 52.8125 11.5526 52.5767 11.0469C52.3409 10.5384 52.223 9.9375 52.223 9.24432C52.223 8.55682 52.3409 7.96023 52.5767 7.45455C52.8125 6.94886 53.1406 6.55824 53.5611 6.28267C53.9815 6.0071 54.4673 5.86932 55.0185 5.86932C55.4446 5.86932 55.7813 5.94034 56.0284 6.08239C56.2784 6.22159 56.4688 6.38068 56.5994 6.55966C56.733 6.7358 56.8366 6.88068 56.9105 6.99432H56.9957V3.77273H58.0014V12.5H57.0298V11.4943H56.9105C56.8366 11.6136 56.7315 11.7642 56.5952 11.946C56.4588 12.125 56.2642 12.2855 56.0114 12.4276C55.7585 12.5668 55.4219 12.6364 55.0014 12.6364ZM55.1378 11.733C55.5412 11.733 55.8821 11.6278 56.1605 11.4176C56.4389 11.2045 56.6506 10.9105 56.7955 10.5355C56.9403 10.1577 57.0128 9.72159 57.0128 9.22727C57.0128 8.73864 56.9418 8.31108 56.7997 7.9446C56.6577 7.57528 56.4474 7.28835 56.169 7.08381C55.8906 6.87642 55.5469 6.77273 55.1378 6.77273C54.7116 6.77273 54.3565 6.8821 54.0724 7.10085C53.7912 7.31676 53.5795 7.6108 53.4375 7.98295C53.2983 8.35227 53.2287 8.76705 53.2287 9.22727C53.2287 9.69318 53.2997 10.1165 53.4418 10.4972C53.5866 10.875 53.7997 11.1761 54.081 11.4006C54.3651 11.6222 54.7173 11.733 55.1378 11.733ZM66.2045 5.95455V6.80682H62.8125V5.95455H66.2045ZM63.8011 4.38636H64.8068V10.625C64.8068 10.9091 64.848 11.1222 64.9304 11.2642C65.0156 11.4034 65.1236 11.4972 65.2543 11.5455C65.3878 11.5909 65.5284 11.6136 65.6761 11.6136C65.7869 11.6136 65.8778 11.608 65.9489 11.5966C66.0199 11.5824 66.0767 11.571 66.1193 11.5625L66.3239 12.4659C66.2557 12.4915 66.1605 12.517 66.0384 12.5426C65.9162 12.571 65.7614 12.5852 65.5739 12.5852C65.2898 12.5852 65.0114 12.5241 64.7386 12.402C64.4688 12.2798 64.2443 12.0938 64.0653 11.8438C63.8892 11.5938 63.8011 11.2784 63.8011 10.8977V4.38636ZM70.3061 12.6364C69.7152 12.6364 69.1967 12.4957 68.7507 12.2145C68.3075 11.9332 67.9609 11.5398 67.7109 11.0341C67.4638 10.5284 67.3402 9.9375 67.3402 9.26136C67.3402 8.57955 67.4638 7.98437 67.7109 7.47585C67.9609 6.96733 68.3075 6.57244 68.7507 6.29119C69.1967 6.00994 69.7152 5.86932 70.3061 5.86932C70.897 5.86932 71.4141 6.00994 71.8572 6.29119C72.3033 6.57244 72.6499 6.96733 72.897 7.47585C73.147 7.98437 73.272 8.57955 73.272 9.26136C73.272 9.9375 73.147 10.5284 72.897 11.0341C72.6499 11.5398 72.3033 11.9332 71.8572 12.2145C71.4141 12.4957 70.897 12.6364 70.3061 12.6364ZM70.3061 11.733C70.755 11.733 71.1243 11.6179 71.4141 11.3878C71.7038 11.1577 71.9183 10.8551 72.0575 10.4801C72.1967 10.1051 72.2663 9.69886 72.2663 9.26136C72.2663 8.82386 72.1967 8.41619 72.0575 8.03835C71.9183 7.66051 71.7038 7.35511 71.4141 7.12216C71.1243 6.8892 70.755 6.77273 70.3061 6.77273C69.8572 6.77273 69.4879 6.8892 69.1982 7.12216C68.9084 7.35511 68.6939 7.66051 68.5547 8.03835C68.4155 8.41619 68.3459 8.82386 68.3459 9.26136C68.3459 9.69886 68.4155 10.1051 68.5547 10.4801C68.6939 10.8551 68.9084 11.1577 69.1982 11.3878C69.4879 11.6179 69.8572 11.733 70.3061 11.733ZM78.3185 3.77273H79.5799L82.5458 11.017H82.6481L85.614 3.77273H86.8754V12.5H85.8867V5.86932H85.8015L83.0742 12.5H82.1197L79.3924 5.86932H79.3072V12.5H78.3185V3.77273ZM89.5057 14.9545C89.3352 14.9545 89.1832 14.9403 89.0497 14.9119C88.9162 14.8864 88.8239 14.8608 88.7727 14.8352L89.0284 13.9489C89.2727 14.0114 89.4886 14.0341 89.6761 14.017C89.8636 14 90.0298 13.9162 90.1747 13.7656C90.3224 13.6179 90.4574 13.3778 90.5795 13.0455L90.767 12.5341L88.3466 5.95455H89.4375L91.2443 11.1705H91.3125L93.1193 5.95455H94.2102L91.4318 13.4545C91.3068 13.7926 91.152 14.0724 90.9673 14.294C90.7827 14.5185 90.5682 14.6847 90.3239 14.7926C90.0824 14.9006 89.8097 14.9545 89.5057 14.9545ZM99.049 12.5V3.77273H100.055V6.99432H100.14C100.214 6.88068 100.316 6.7358 100.447 6.55966C100.58 6.38068 100.771 6.22159 101.018 6.08239C101.268 5.94034 101.606 5.86932 102.032 5.86932C102.583 5.86932 103.069 6.0071 103.489 6.28267C103.91 6.55824 104.238 6.94886 104.474 7.45455C104.71 7.96023 104.827 8.55682 104.827 9.24432C104.827 9.9375 104.71 10.5384 104.474 11.0469C104.238 11.5526 103.911 11.9446 103.494 12.223C103.076 12.4986 102.594 12.6364 102.049 12.6364C101.629 12.6364 101.292 12.5668 101.039 12.4276C100.786 12.2855 100.592 12.125 100.455 11.946C100.319 11.7642 100.214 11.6136 100.14 11.4943H100.021V12.5H99.049ZM100.038 9.22727C100.038 9.72159 100.11 10.1577 100.255 10.5355C100.4 10.9105 100.612 11.2045 100.89 11.4176C101.168 11.6278 101.509 11.733 101.913 11.733C102.333 11.733 102.684 11.6222 102.965 11.4006C103.249 11.1761 103.462 10.875 103.604 10.4972C103.749 10.1165 103.822 9.69318 103.822 9.22727C103.822 8.76705 103.751 8.35227 103.609 7.98295C103.469 7.6108 103.258 7.31676 102.974 7.10085C102.692 6.8821 102.339 6.77273 101.913 6.77273C101.504 6.77273 101.16 6.87642 100.881 7.08381C100.603 7.28835 100.393 7.57528 100.251 7.9446C100.109 8.31108 100.038 8.73864 100.038 9.22727ZM106.366 12.5V5.95455H107.337V6.94318H107.406C107.525 6.61932 107.741 6.35653 108.053 6.15483C108.366 5.95312 108.718 5.85227 109.11 5.85227C109.184 5.85227 109.276 5.85369 109.387 5.85653C109.498 5.85937 109.582 5.86364 109.638 5.86932V6.89205C109.604 6.88352 109.526 6.87074 109.404 6.85369C109.285 6.83381 109.158 6.82386 109.025 6.82386C108.707 6.82386 108.423 6.89062 108.173 7.02415C107.925 7.15483 107.729 7.33665 107.585 7.5696C107.442 7.79972 107.371 8.0625 107.371 8.35795V12.5H106.366ZM112.757 12.6534C112.342 12.6534 111.966 12.5753 111.627 12.419C111.289 12.2599 111.021 12.0312 110.822 11.733C110.623 11.4318 110.524 11.0682 110.524 10.642C110.524 10.267 110.598 9.96307 110.745 9.73011C110.893 9.49432 111.091 9.30966 111.338 9.17614C111.585 9.04261 111.858 8.94318 112.156 8.87784C112.457 8.80966 112.76 8.75568 113.064 8.71591C113.461 8.66477 113.784 8.62642 114.031 8.60085C114.281 8.57244 114.463 8.52557 114.576 8.46023C114.693 8.39489 114.751 8.28125 114.751 8.11932V8.08523C114.751 7.66477 114.636 7.33807 114.406 7.10511C114.179 6.87216 113.833 6.75568 113.37 6.75568C112.89 6.75568 112.514 6.8608 112.241 7.07102C111.968 7.28125 111.777 7.50568 111.666 7.74432L110.711 7.40341C110.882 7.00568 111.109 6.69602 111.393 6.47443C111.68 6.25 111.993 6.09375 112.331 6.00568C112.672 5.91477 113.007 5.86932 113.336 5.86932C113.547 5.86932 113.788 5.89489 114.061 5.94602C114.336 5.99432 114.602 6.09517 114.858 6.24858C115.116 6.40199 115.331 6.63352 115.501 6.94318C115.672 7.25284 115.757 7.66761 115.757 8.1875V12.5H114.751V11.6136H114.7C114.632 11.7557 114.518 11.9077 114.359 12.0696C114.2 12.2315 113.988 12.3693 113.724 12.483C113.46 12.5966 113.137 12.6534 112.757 12.6534ZM112.91 11.75C113.308 11.75 113.643 11.6719 113.916 11.5156C114.191 11.3594 114.399 11.1577 114.538 10.9105C114.68 10.6634 114.751 10.4034 114.751 10.1307V9.21023C114.708 9.26136 114.615 9.30824 114.47 9.35085C114.328 9.39062 114.163 9.42614 113.975 9.45739C113.791 9.4858 113.61 9.51136 113.434 9.53409C113.261 9.55398 113.12 9.57102 113.012 9.58523C112.751 9.61932 112.507 9.67472 112.279 9.75142C112.055 9.82528 111.873 9.9375 111.734 10.0881C111.598 10.2358 111.529 10.4375 111.529 10.6932C111.529 11.0426 111.659 11.3068 111.917 11.4858C112.179 11.6619 112.51 11.75 112.91 11.75ZM118.598 8.5625V12.5H117.592V5.95455H118.564V6.97727H118.649C118.803 6.64489 119.036 6.37784 119.348 6.17614C119.661 5.97159 120.064 5.86932 120.558 5.86932C121.001 5.86932 121.389 5.96023 121.722 6.14205C122.054 6.32102 122.313 6.59375 122.497 6.96023C122.682 7.32386 122.774 7.78409 122.774 8.34091V12.5H121.768V8.40909C121.768 7.89489 121.635 7.49432 121.368 7.20739C121.101 6.91761 120.734 6.77273 120.268 6.77273C119.947 6.77273 119.661 6.84233 119.408 6.98153C119.158 7.12074 118.96 7.32386 118.815 7.59091C118.67 7.85795 118.598 8.18182 118.598 8.5625ZM127.083 12.6364C126.538 12.6364 126.056 12.4986 125.639 12.223C125.221 11.9446 124.895 11.5526 124.659 11.0469C124.423 10.5384 124.305 9.9375 124.305 9.24432C124.305 8.55682 124.423 7.96023 124.659 7.45455C124.895 6.94886 125.223 6.55824 125.643 6.28267C126.064 6.0071 126.549 5.86932 127.1 5.86932C127.527 5.86932 127.863 5.94034 128.11 6.08239C128.36 6.22159 128.551 6.38068 128.681 6.55966C128.815 6.7358 128.919 6.88068 128.993 6.99432H129.078V3.77273H130.083V12.5H129.112V11.4943H128.993C128.919 11.6136 128.814 11.7642 128.677 11.946C128.541 12.125 128.346 12.2855 128.093 12.4276C127.841 12.5668 127.504 12.6364 127.083 12.6364ZM127.22 11.733C127.623 11.733 127.964 11.6278 128.243 11.4176C128.521 11.2045 128.733 10.9105 128.877 10.5355C129.022 10.1577 129.095 9.72159 129.095 9.22727C129.095 8.73864 129.024 8.31108 128.882 7.9446C128.74 7.57528 128.529 7.28835 128.251 7.08381C127.973 6.87642 127.629 6.77273 127.22 6.77273C126.794 6.77273 126.439 6.8821 126.154 7.10085C125.873 7.31676 125.662 7.6108 125.52 7.98295C125.38 8.35227 125.311 8.76705 125.311 9.22727C125.311 9.69318 125.382 10.1165 125.524 10.4972C125.669 10.875 125.882 11.1761 126.163 11.4006C126.447 11.6222 126.799 11.733 127.22 11.733ZM136.701 7.42045L135.798 7.67614C135.741 7.52557 135.657 7.37926 135.547 7.23722C135.439 7.09233 135.291 6.97301 135.103 6.87926C134.916 6.78551 134.676 6.73864 134.383 6.73864C133.983 6.73864 133.649 6.83097 133.382 7.01562C133.118 7.19744 132.985 7.42898 132.985 7.71023C132.985 7.96023 133.076 8.15767 133.258 8.30256C133.44 8.44744 133.724 8.56818 134.11 8.66477L135.082 8.90341C135.667 9.04545 136.103 9.26278 136.39 9.5554C136.677 9.84517 136.821 10.2187 136.821 10.6761C136.821 11.0511 136.713 11.3864 136.497 11.6818C136.284 11.9773 135.985 12.2102 135.602 12.3807C135.218 12.5511 134.772 12.6364 134.264 12.6364C133.596 12.6364 133.044 12.4915 132.606 12.2017C132.169 11.9119 131.892 11.4886 131.775 10.9318L132.73 10.6932C132.821 11.0455 132.993 11.3097 133.245 11.4858C133.501 11.6619 133.835 11.75 134.247 11.75C134.716 11.75 135.088 11.6506 135.363 11.4517C135.642 11.25 135.781 11.0085 135.781 10.7273C135.781 10.5 135.701 10.3097 135.542 10.1562C135.383 10 135.139 9.88352 134.809 9.80682L133.718 9.55114C133.119 9.40909 132.679 9.18892 132.397 8.89062C132.119 8.58949 131.98 8.21307 131.98 7.76136C131.98 7.39205 132.083 7.06534 132.291 6.78125C132.501 6.49716 132.787 6.27415 133.147 6.11222C133.511 5.95028 133.923 5.86932 134.383 5.86932C135.031 5.86932 135.539 6.01136 135.909 6.29545C136.281 6.57955 136.545 6.95455 136.701 7.42045Z" fill="#C359AC"/>
</svg>
