<svg width="16" height="16" viewBox="0 0 16 16" fill="none" xmlns="http://www.w3.org/2000/svg">
<g id="Vector">
<path fill-rule="evenodd" clip-rule="evenodd" d="M8 0C8 0 9.62718 0 11.1142 0.628932C11.1142 0.628932 12.5499 1.23621 13.6569 2.34315C13.6569 2.34315 14.7638 3.45008 15.3711 4.88585C15.3711 4.88585 16 6.37282 16 8C16 8 16 9.62718 15.3711 11.1141C15.3711 11.1141 14.7638 12.5499 13.6569 13.6569C13.6569 13.6569 12.5499 14.7638 11.1142 15.3711C11.1142 15.3711 9.62718 16 8 16C8 16 6.37282 16 4.88585 15.3711C4.88585 15.3711 3.45008 14.7638 2.34315 13.6569C2.34315 13.6569 1.23621 12.5499 0.628933 11.1142C0.628933 11.1142 0 9.62719 0 8C0 8 0 6.37281 0.628933 4.88585C0.628933 4.88585 1.23621 3.45008 2.34315 2.34315C2.34315 2.34315 3.45008 1.23621 4.88585 0.628932C4.88585 0.628932 6.37281 0 8 0ZM8 1.23077C8 1.23077 6.6224 1.23077 5.3653 1.76248C5.3653 1.76248 4.15062 2.27624 3.21343 3.21343C3.21343 3.21343 2.27624 4.15062 1.76248 5.3653C1.76248 5.3653 1.23077 6.62239 1.23077 8C1.23077 8 1.23077 9.3776 1.76248 10.6347C1.76248 10.6347 2.27624 11.8494 3.21343 12.7866C3.21343 12.7866 4.15062 13.7238 5.3653 14.2375C5.3653 14.2375 6.6224 14.7692 8 14.7692C8 14.7692 9.3776 14.7692 10.6347 14.2375C10.6347 14.2375 11.8494 13.7238 12.7866 12.7866C12.7866 12.7866 13.7238 11.8494 14.2375 10.6347C14.2375 10.6347 14.7692 9.3776 14.7692 8C14.7692 8 14.7692 6.6224 14.2375 5.3653C14.2375 5.3653 13.7238 4.15062 12.7866 3.21343C12.7866 3.21343 11.8494 2.27624 10.6347 1.76248C10.6347 1.76248 9.3776 1.23077 8 1.23077Z" fill="#262C30" fill-opacity="0.6"/>
<path d="M8 12.3077H8.61539C8.95525 12.3077 9.23077 12.0322 9.23077 11.6923C9.23077 11.3524 8.95525 11.0769 8.61539 11.0769V7.38462C8.61539 7.04475 8.33987 6.76923 8 6.76923H7.38462C7.04475 6.76923 6.76923 7.04475 6.76923 7.38462C6.76923 7.72448 7.04475 8 7.38462 8V11.6923C7.38462 12.0322 7.66013 12.3077 8 12.3077Z" fill="#262C30" fill-opacity="0.6"/>
<path d="M8.76923 4.61538C8.76923 5.12519 8.35592 5.53846 7.84615 5.53846C7.33639 5.53846 6.92308 5.12519 6.92308 4.61538C6.92308 4.10558 7.33639 3.69231 7.84615 3.69231C8.35592 3.69231 8.76923 4.10558 8.76923 4.61538Z" fill="#262C30" fill-opacity="0.6"/>
</g>
</svg>
