<svg xmlns="http://www.w3.org/2000/svg" width="33" height="32" viewBox="0 0 33 32" fill="none">
  <path d="M16.5 3C13.9288 3 11.4154 3.76244 9.27759 5.1909C7.13975 6.61935 5.47351 8.64968 4.48957 11.0251C3.50563 13.4006 3.24819 16.0144 3.7498 18.5362C4.25141 21.0579 5.48953 23.3743 7.30762 25.1924C9.1257 27.0105 11.4421 28.2486 13.9638 28.7502C16.4856 29.2518 19.0995 28.9944 21.4749 28.0104C23.8503 27.0265 25.8807 25.3603 27.3091 23.2224C28.7376 21.0846 29.5 18.5712 29.5 16C29.4934 12.5542 28.1216 9.25145 25.6851 6.81491C23.2486 4.37837 19.9458 3.00661 16.5 3ZM16.25 9C16.5467 9 16.8367 9.08797 17.0834 9.2528C17.33 9.41762 17.5223 9.65189 17.6358 9.92597C17.7494 10.2001 17.7791 10.5017 17.7212 10.7926C17.6633 11.0836 17.5204 11.3509 17.3107 11.5607C17.1009 11.7704 16.8336 11.9133 16.5426 11.9712C16.2517 12.0291 15.9501 11.9994 15.676 11.8858C15.4019 11.7723 15.1676 11.58 15.0028 11.3334C14.838 11.0867 14.75 10.7967 14.75 10.5C14.75 10.1022 14.908 9.72064 15.1893 9.43934C15.4706 9.15804 15.8522 9 16.25 9ZM17.5 23H16.5C16.2348 23 15.9804 22.8946 15.7929 22.7071C15.6054 22.5196 15.5 22.2652 15.5 22V16C15.2348 16 14.9804 15.8946 14.7929 15.7071C14.6054 15.5196 14.5 15.2652 14.5 15C14.5 14.7348 14.6054 14.4804 14.7929 14.2929C14.9804 14.1054 15.2348 14 15.5 14H16.5C16.7652 14 17.0196 14.1054 17.2071 14.2929C17.3946 14.4804 17.5 14.7348 17.5 15V21C17.7652 21 18.0196 21.1054 18.2071 21.2929C18.3946 21.4804 18.5 21.7348 18.5 22C18.5 22.2652 18.3946 22.5196 18.2071 22.7071C18.0196 22.8946 17.7652 23 17.5 23Z" fill="#13476C"/>
</svg>
