<svg width="16" height="17" viewBox="0 0 16 17" fill="none" xmlns="http://www.w3.org/2000/svg">
<g id="Vector">
<path fill-rule="evenodd" clip-rule="evenodd" d="M8 0.5C8 0.5 9.62718 0.5 11.1142 1.12893C11.1142 1.12893 12.5499 1.73621 13.6569 2.84315C13.6569 2.84315 14.7638 3.95008 15.3711 5.38585C15.3711 5.38585 16 6.87282 16 8.5C16 8.5 16 10.1272 15.3711 11.6141C15.3711 11.6141 14.7638 13.0499 13.6569 14.1569C13.6569 14.1569 12.5499 15.2638 11.1142 15.8711C11.1142 15.8711 9.62718 16.5 8 16.5C8 16.5 6.37282 16.5 4.88585 15.8711C4.88585 15.8711 3.45008 15.2638 2.34315 14.1569C2.34315 14.1569 1.23621 13.0499 0.628933 11.6142C0.628933 11.6142 0 10.1272 0 8.5C0 8.5 0 6.87281 0.628933 5.38585C0.628933 5.38585 1.23621 3.95008 2.34315 2.84315C2.34315 2.84315 3.45008 1.73621 4.88585 1.12893C4.88585 1.12893 6.37281 0.5 8 0.5ZM8 1.73077C8 1.73077 6.6224 1.73077 5.3653 2.26248C5.3653 2.26248 4.15062 2.77624 3.21343 3.71343C3.21343 3.71343 2.27624 4.65062 1.76248 5.8653C1.76248 5.8653 1.23077 7.12239 1.23077 8.5C1.23077 8.5 1.23077 9.8776 1.76248 11.1347C1.76248 11.1347 2.27624 12.3494 3.21343 13.2866C3.21343 13.2866 4.15062 14.2238 5.3653 14.7375C5.3653 14.7375 6.6224 15.2692 8 15.2692C8 15.2692 9.3776 15.2692 10.6347 14.7375C10.6347 14.7375 11.8494 14.2238 12.7866 13.2866C12.7866 13.2866 13.7238 12.3494 14.2375 11.1347C14.2375 11.1347 14.7692 9.8776 14.7692 8.5C14.7692 8.5 14.7692 7.1224 14.2375 5.8653C14.2375 5.8653 13.7238 4.65062 12.7866 3.71343C12.7866 3.71343 11.8494 2.77624 10.6347 2.26248C10.6347 2.26248 9.3776 1.73077 8 1.73077Z" fill="#262C30" fill-opacity="0.6"/>
<path d="M8 12.8077H8.61539C8.95525 12.8077 9.23077 12.5322 9.23077 12.1923C9.23077 11.8524 8.95525 11.5769 8.61539 11.5769V7.88462C8.61539 7.54475 8.33987 7.26923 8 7.26923H7.38462C7.04475 7.26923 6.76923 7.54475 6.76923 7.88462C6.76923 8.22448 7.04475 8.5 7.38462 8.5V12.1923C7.38462 12.5322 7.66013 12.8077 8 12.8077Z" fill="#262C30" fill-opacity="0.6"/>
<path d="M8.76923 5.11538C8.76923 5.62519 8.35592 6.03846 7.84615 6.03846C7.33639 6.03846 6.92308 5.62519 6.92308 5.11538C6.92308 4.60558 7.33639 4.19231 7.84615 4.19231C8.35592 4.19231 8.76923 4.60558 8.76923 5.11538Z" fill="#262C30" fill-opacity="0.6"/>
</g>
</svg>
