<svg width="16" height="17" viewBox="0 0 16 17" fill="none" xmlns="http://www.w3.org/2000/svg">
<g id="Weight=Regular">
<g id="Vector">
<path d="M3.5 15.5H12.5C12.7761 15.5 13 15.2761 13 15C13 14.7239 12.7761 14.5 12.5 14.5H3.5C3.22386 14.5 3 14.7239 3 15C3 15.2761 3.22386 15.5 3.5 15.5Z" fill="#262C30"/>
<path fill-rule="evenodd" clip-rule="evenodd" d="M8 4.5C8 4.5 9.03553 4.5 9.76777 5.23223C9.76777 5.23223 10.5 5.96447 10.5 7C10.5 7 10.5 8.03553 9.76777 8.76777C9.76777 8.76777 9.03553 9.5 8 9.5C8 9.5 6.96447 9.5 6.23223 8.76777C6.23223 8.76777 5.5 8.03553 5.5 7C5.5 7 5.5 5.96447 6.23223 5.23223C6.23223 5.23223 6.96447 4.5 8 4.5ZM8 5.5C8 5.5 7.37868 5.5 6.93934 5.93934C6.93934 5.93934 6.5 6.37868 6.5 7C6.5 7 6.5 7.62132 6.93934 8.06066C6.93934 8.06066 7.37868 8.5 8 8.5C8 8.5 8.62132 8.5 9.06066 8.06066C9.06066 8.06066 9.5 7.62132 9.5 7C9.5 7 9.5 6.37868 9.06066 5.93934C9.06066 5.93934 8.62132 5.5 8 5.5Z" fill="#262C30"/>
<path fill-rule="evenodd" clip-rule="evenodd" d="M13.0813 4.89524C13.0813 4.89524 13.5 5.90598 13.5 7C13.5 7 13.5 9.99949 10.8773 13.0156C10.8773 13.0156 10.0713 13.9425 9.10507 14.7638C9.10507 14.7638 8.61845 15.1774 8.28673 15.4096C8.11457 15.5301 7.88543 15.5301 7.71327 15.4096C7.71327 15.4096 7.38155 15.1774 6.89493 14.7638C6.89493 14.7638 5.92869 13.9425 5.1227 13.0156C5.1227 13.0156 2.5 9.99949 2.5 7C2.5 7 2.5 5.90598 2.91866 4.89524C2.91866 4.89524 3.33733 3.8845 4.11091 3.11091C4.11091 3.11091 4.8845 2.33733 5.89524 1.91866C5.89524 1.91866 6.90598 1.5 8 1.5C8 1.5 9.09402 1.5 10.1048 1.91866C10.1048 1.91866 11.1155 2.33732 11.8891 3.11091C11.8891 3.11091 12.6627 3.8845 13.0813 4.89524ZM12.5 7C12.5 7 12.5 6.1049 12.1575 5.27792C12.1575 5.27792 11.8149 4.45096 11.182 3.81802C11.182 3.81802 10.549 3.18508 9.72207 2.84254C9.72207 2.84254 8.8951 2.5 8 2.5C8 2.5 7.10489 2.5 6.27792 2.84254C6.27792 2.84254 5.45095 3.18508 4.81802 3.81802C4.81802 3.81802 4.18508 4.45095 3.84254 5.27792C3.84254 5.27792 3.5 6.10489 3.5 7C3.5 7 3.5 9.62551 5.8773 12.3594C5.8773 12.3594 6.6338 13.2294 7.54257 14.0018C7.54257 14.0018 7.79623 14.2175 8 14.3767C8 14.3767 8.20377 14.2175 8.45743 14.0018C8.45743 14.0018 9.3662 13.2294 10.1227 12.3594C10.1227 12.3594 12.5 9.62551 12.5 7Z" fill="#262C30"/>
</g>
</g>
</svg>
