<svg width="12" height="12" viewBox="0 0 12 12" fill="none" xmlns="http://www.w3.org/2000/svg">
<g id="Megaphone">
<path id="Vector" d="M11.25 5.62492C11.2494 5.02837 11.0121 4.45644 10.5903 4.03461C10.1685 3.61279 9.59655 3.37554 9 3.37492H7.13437C6.99797 3.36695 4.62094 3.19961 2.35734 1.30117C2.24803 1.20936 2.1148 1.15066 1.97328 1.13196C1.83177 1.11325 1.68785 1.13532 1.55844 1.19557C1.42904 1.25582 1.31951 1.35174 1.24273 1.47208C1.16595 1.59242 1.12511 1.73217 1.125 1.87492V9.37492C1.12502 9.5177 1.1658 9.65752 1.24254 9.77792C1.31929 9.89833 1.42881 9.99433 1.55823 10.0546C1.68766 10.1149 1.83161 10.1371 1.97317 10.1184C2.11472 10.0997 2.248 10.041 2.35734 9.94914C4.12781 8.46414 5.96672 8.03851 6.75 7.91945V9.40632C6.74984 9.52991 6.78023 9.65162 6.83846 9.76063C6.89668 9.86964 6.98094 9.96258 7.08375 10.0312L7.59937 10.3748C7.69904 10.4413 7.81319 10.483 7.93227 10.4963C8.05135 10.5096 8.17189 10.4942 8.2838 10.4514C8.39571 10.4086 8.49572 10.3396 8.57548 10.2501C8.65523 10.1607 8.7124 10.0535 8.74219 9.93742L9.29391 7.85804C9.83519 7.78602 10.3319 7.5199 10.6917 7.10915C11.0515 6.6984 11.2499 6.17097 11.25 5.62492ZM1.875 9.37164V1.87492C3.88172 3.5582 5.93578 3.98429 6.75 4.08929V7.15867C5.93672 7.26554 3.88313 7.6907 1.875 9.37164ZM8.01562 9.74664V9.75179L7.5 9.4082V7.87492H8.5125L8.01562 9.74664ZM9 7.12492H7.5V4.12492H9C9.39782 4.12492 9.77936 4.28295 10.0607 4.56426C10.342 4.84556 10.5 5.22709 10.5 5.62492C10.5 6.02274 10.342 6.40427 10.0607 6.68558C9.77936 6.96688 9.39782 7.12492 9 7.12492Z" fill="#C359AC"/>
</g>
</svg>
