<?xml version="1.0" encoding="UTF-8"?>
<svg id="Capa_2" data-name="Capa 2" xmlns="http://www.w3.org/2000/svg" viewBox="0 0 35.11 57.91">
  <defs>
    <style>
      .cls-1 {
        stroke-width: 0px;
      }
    </style>
  </defs>
  <g id="Capa_1-2" data-name="Capa 1">
    <g>
      <path fill="#13476C" class="cls-1" d="M28.66,22.03c0,2.74.03,4.89,0,7.03-.05,2.51-.65,4.89-1.97,7.06-3.62,5.97-11.81,6.95-16.72,1.99-1.96-1.98-2.94-4.42-3.35-7.13-.09-.63-.16-1.27-.16-1.9,0-4.35-.03-13.87.01-18.22.02-2.38.69-4.59,2.13-6.52C10.39,1.93,12.83.57,15.77.14c3.13-.46,6.04.18,8.6,2.09,2.53,1.88,3.9,4.47,4.2,7.58.24,2.54.03,10.28.09,12.22Z"/>
      <path fill="#13476C" class="cls-1" d="M17.51,57.91c-3.75,0-7.5,0-11.25,0-1.44,0-2.35-1.42-1.74-2.72.34-.71.93-1.07,1.73-1.07,2.94,0,5.88,0,8.82,0q.57,0,.57-.58c0-3.63,0-1.22,0-4.85,0-.37-.08-.52-.49-.57-4.19-.57-7.85-2.24-10.77-5.37-2.38-2.56-3.68-5.62-4.16-9.06C.05,32.5,0,31.31,0,30.11c0-1.57,0-3.14,0-4.71,0-.82.35-1.48,1.11-1.84.71-.34,1.4-.24,2.02.25.52.4.69.96.7,1.58,0,1.91-.02,3.83,0,5.74.03,2.25.49,4.41,1.53,6.42,1.57,3.02,4.06,4.96,7.24,6.07,1.67.59,3.41.84,5.17.8,3.06-.07,5.9-.88,8.39-2.73,2.71-2.01,4.24-4.74,4.83-8.03.19-1.04.26-2.08.25-3.13-.01-1.73-.01-3.46,0-5.19,0-1.17.83-1.99,1.95-1.98.96.01,1.79.75,1.83,1.71.1,2.12.07,4.25.02,6.38-.04,1.79-.32,3.54-.86,5.25-.97,3.08-2.7,5.64-5.22,7.66-2.66,2.12-5.7,3.31-9.06,3.74-.36.05-.46.19-.46.53,0,3.67.01,1.3,0,4.97,0,.42.15.51.54.5,2.96-.01,5.93-.01,8.89,0,1.46,0,2.35,1.55,1.63,2.82-.37.66-.96.96-1.72.96-3.76,0-7.53,0-11.29,0Z"/>
    </g>
  </g>
</svg>