<svg xmlns="http://www.w3.org/2000/svg" width="20" height="21" viewBox="0 0 20 21" fill="none">
  <path fill-rule="evenodd" clip-rule="evenodd" d="M3.4375 7.74219C3.4375 7.74219 3.4375 5.67112 4.90197 4.20665C4.90197 4.20665 6.36643 2.74219 8.4375 2.74219H11.5625C11.5625 2.74219 13.6336 2.74219 15.098 4.20665C15.098 4.20665 16.5625 5.67112 16.5625 7.74219V13.9922C16.5625 13.9922 16.5625 16.0633 15.098 17.5277C15.098 17.5277 13.6336 18.9922 11.5625 18.9922H8.4375C8.4375 18.9922 6.36643 18.9922 4.90197 17.5277C4.90197 17.5277 3.4375 16.0633 3.4375 13.9922V7.74219ZM4.6875 7.74219L4.6875 13.9922C4.6875 13.9922 4.6875 15.5455 5.78585 16.6438C5.78585 16.6438 6.8842 17.7422 8.4375 17.7422H11.5625C11.5625 17.7422 13.1158 17.7422 14.2141 16.6438C14.2141 16.6438 15.3125 15.5455 15.3125 13.9922V7.74219C15.3125 7.74219 15.3125 6.18889 14.2141 5.09054C14.2141 5.09054 13.1158 3.99219 11.5625 3.99219L8.4375 3.99219C8.4375 3.99219 6.8842 3.99219 5.78585 5.09054C5.78585 5.09054 4.6875 6.18889 4.6875 7.74219Z" fill="#F2C2C3"/>
  <path d="M4.0625 10.2422H15.9375C16.2827 10.2422 16.5625 9.96237 16.5625 9.61719C16.5625 9.27201 16.2827 8.99219 15.9375 8.99219H4.0625C3.71732 8.99219 3.4375 9.27201 3.4375 9.61719C3.4375 9.96237 3.71732 10.2422 4.0625 10.2422Z" fill="#F2C2C3"/>
  <path d="M10.625 9.61719V3.36719C10.625 3.02201 10.3452 2.74219 10 2.74219C9.65482 2.74219 9.375 3.02201 9.375 3.36719V9.61719C9.375 9.96237 9.65482 10.2422 10 10.2422C10.3452 10.2422 10.625 9.96237 10.625 9.61719Z" fill="#F2C2C3"/>
</svg>
