<svg width="16" height="16" viewBox="0 0 16 16" fill="none" xmlns="http://www.w3.org/2000/svg">
<path d="M3.37 2.16358C3.32609 2.11408 3.27279 2.07379 3.2132 2.04505C3.15361 2.0163 3.0889 1.99967 3.02283 1.99611C2.95676 1.99256 2.89064 2.00215 2.82831 2.02434C2.76597 2.04653 2.70866 2.08086 2.65969 2.12536C2.61073 2.16986 2.57108 2.22364 2.54305 2.28357C2.51502 2.34351 2.49917 2.40841 2.4964 2.47452C2.49364 2.54063 2.50403 2.60662 2.52696 2.66869C2.54989 2.73075 2.58492 2.78765 2.63 2.83608L4.59688 4.99983H2C1.73478 4.99983 1.48043 5.10518 1.29289 5.29272C1.10536 5.48026 1 5.73461 1 5.99983L1 9.99983C1 10.265 1.10536 10.5194 1.29289 10.7069C1.48043 10.8945 1.73478 10.9998 2 10.9998H4.82812L9.19312 14.3942C9.26699 14.4516 9.35548 14.4872 9.44855 14.4968C9.54161 14.5064 9.63551 14.4897 9.71956 14.4487C9.80362 14.4076 9.87446 14.3437 9.92404 14.2644C9.97361 14.185 9.99993 14.0934 10 13.9998V10.943L12.63 13.8361C12.6739 13.8856 12.7272 13.9259 12.7868 13.9546C12.8464 13.9834 12.9111 14 12.9772 14.0035C13.0432 14.0071 13.1094 13.9975 13.1717 13.9753C13.234 13.9531 13.2913 13.9188 13.3403 13.8743C13.3893 13.8298 13.4289 13.776 13.4569 13.7161C13.485 13.6561 13.5008 13.5912 13.5036 13.5251C13.5064 13.459 13.496 13.393 13.473 13.331C13.4501 13.2689 13.4151 13.212 13.37 13.1636L3.37 2.16358ZM2 5.99983H4.5L4.5 9.99983H2L2 5.99983ZM9 12.9773L5.5 10.2555V5.99295L9 9.84295L9 12.9773ZM11.625 8.9917C11.8662 8.71781 11.9992 8.36539 11.9992 8.00045C11.9992 7.63552 11.8662 7.2831 11.625 7.0092C11.5791 6.96037 11.5434 6.90281 11.5202 6.83992C11.4969 6.77704 11.4866 6.71012 11.4897 6.64316C11.4929 6.57619 11.5094 6.51054 11.5385 6.45011C11.5675 6.38968 11.6084 6.3357 11.6587 6.29139C11.709 6.24708 11.7677 6.21333 11.8313 6.19217C11.8949 6.171 11.9621 6.16284 12.029 6.16818C12.0958 6.17351 12.1609 6.19223 12.2203 6.22322C12.2798 6.25421 12.3324 6.29684 12.375 6.34858C12.7772 6.80512 12.999 7.39266 12.999 8.00108C12.999 8.60949 12.7772 9.19703 12.375 9.65358C12.3315 9.70282 12.2788 9.74303 12.2198 9.77189C12.1608 9.80076 12.0967 9.81772 12.0312 9.82181C11.9656 9.8259 11.8999 9.81704 11.8378 9.79574C11.7756 9.77443 11.7183 9.7411 11.6691 9.69764C11.6198 9.65418 11.5796 9.60145 11.5507 9.54245C11.5219 9.48345 11.5049 9.41935 11.5008 9.3538C11.4967 9.28824 11.5056 9.22253 11.5269 9.1604C11.5482 9.09827 11.5815 9.04095 11.625 8.9917ZM6.615 4.2417C6.57464 4.18988 6.54489 4.13061 6.52744 4.06728C6.51 4.00396 6.5052 3.93781 6.51333 3.87263C6.52145 3.80745 6.54234 3.74451 6.5748 3.68741C6.60726 3.6303 6.65065 3.58016 6.7025 3.53983L9.19312 1.60233C9.2672 1.54474 9.35598 1.50916 9.44933 1.49965C9.54267 1.49014 9.6368 1.50708 9.72097 1.54854C9.80514 1.59001 9.87594 1.65432 9.92528 1.73412C9.97462 1.81392 10.0005 1.906 10 1.99983V6.6767C10 6.80931 9.94732 6.93649 9.85355 7.03025C9.75979 7.12402 9.63261 7.1767 9.5 7.1767C9.36739 7.1767 9.24021 7.12402 9.14645 7.03025C9.05268 6.93649 9 6.80931 9 6.6767V3.02233L7.31625 4.33483C7.21124 4.4158 7.07837 4.45174 6.94686 4.43474C6.81535 4.41774 6.69598 4.34921 6.615 4.2442V4.2417ZM15.5 7.99983C15.5007 9.22995 15.0474 10.4171 14.2269 11.3336C14.1378 11.43 14.0144 11.4874 13.8833 11.4937C13.7522 11.4999 13.624 11.4543 13.5262 11.3668C13.4284 11.2792 13.369 11.1568 13.3607 11.0258C13.3524 10.8948 13.3959 10.7659 13.4819 10.6667C14.1378 9.93335 14.5004 8.984 14.5004 8.00014C14.5004 7.01628 14.1378 6.06693 13.4819 5.33358C13.4369 5.28486 13.402 5.22768 13.3793 5.16536C13.3566 5.10303 13.3465 5.03682 13.3496 4.97056C13.3528 4.90431 13.3691 4.83934 13.3976 4.77944C13.426 4.71954 13.4662 4.66591 13.5156 4.62167C13.565 4.57743 13.6227 4.54347 13.6854 4.52176C13.7481 4.50005 13.8145 4.49102 13.8807 4.49522C13.9469 4.49941 14.0116 4.51673 14.071 4.54617C14.1304 4.57561 14.1834 4.61658 14.2269 4.6667C15.0476 5.58284 15.501 6.76984 15.5 7.99983Z" fill="#FCFBF8"/>
</svg>
