<svg width="24" height="24" viewBox="0 0 24 24" fill="none" xmlns="http://www.w3.org/2000/svg">
<g id="SpeakerSlash">
<path id="Vector" d="M4.91625 3.37498C4.81327 3.2794 4.67826 3.22581 4.53776 3.22477C4.39727 3.22372 4.26147 3.2753 4.15708 3.36934C4.0527 3.46338 3.98728 3.59308 3.97371 3.73292C3.96014 3.87276 3.99939 4.01262 4.08375 4.12498L7.3125 7.68185L7.305 7.68748L3 7.68748C2.6519 7.68748 2.31806 7.82576 2.07192 8.0719C1.82578 8.31804 1.6875 8.65188 1.6875 8.99998L1.6875 15C1.6875 15.3481 1.82578 15.6819 2.07192 15.9281C2.31806 16.1742 2.6519 16.3125 3 16.3125H7.30688L13.905 21.4444C13.9881 21.5089 14.0877 21.5489 14.1925 21.5596C14.2972 21.5704 14.4028 21.5516 14.4974 21.5053C14.5919 21.459 14.6716 21.3871 14.7273 21.2977C14.783 21.2084 14.8125 21.1052 14.8125 21V15.93L19.0837 20.625C19.1842 20.7354 19.3244 20.8013 19.4735 20.8084C19.6226 20.8154 19.7684 20.7629 19.8787 20.6625C19.9891 20.562 20.0551 20.4218 20.0621 20.2727C20.0692 20.1237 20.0167 19.9779 19.9163 19.8675L4.91625 3.37498ZM2.8125 15L2.8125 8.99998C2.8125 8.95025 2.83225 8.90256 2.86742 8.86739C2.90258 8.83223 2.95027 8.81248 3 8.81248H6.9375L6.9375 15.1875H3C2.95027 15.1875 2.90258 15.1677 2.86742 15.1326C2.83225 15.0974 2.8125 15.0497 2.8125 15ZM13.6875 19.8497L8.0625 15.4753L8.0625 8.52466L8.07281 8.51716L13.6875 14.6925V19.8497ZM17.5781 13.6125C17.9702 13.1674 18.1865 12.5945 18.1865 12.0014C18.1865 11.4082 17.9702 10.8354 17.5781 10.3903C17.5268 10.3353 17.4871 10.2706 17.4612 10.1999C17.4354 10.1293 17.424 10.0542 17.4277 9.9791C17.4313 9.90398 17.4501 9.83037 17.4827 9.76261C17.5153 9.69484 17.5612 9.63431 17.6176 9.5846C17.674 9.53488 17.7399 9.49698 17.8112 9.47314C17.8825 9.4493 17.9579 9.44001 18.0329 9.44582C18.1079 9.45162 18.1809 9.4724 18.2478 9.50693C18.3146 9.54146 18.3738 9.58904 18.4219 9.64685C18.9951 10.2975 19.3113 11.1348 19.3113 12.0019C19.3113 12.8689 18.9951 13.7062 18.4219 14.3569C18.3232 14.4687 18.184 14.5368 18.0351 14.5462C17.8862 14.5555 17.7397 14.5052 17.6278 14.4065C17.5159 14.3078 17.4478 14.1687 17.4385 14.0198C17.4292 13.8709 17.4794 13.7244 17.5781 13.6125ZM10.0697 6.25123C10.0244 6.19287 9.991 6.12617 9.97146 6.05491C9.95193 5.98366 9.94663 5.90926 9.95586 5.83595C9.96509 5.76265 9.98866 5.69188 10.0252 5.62769C10.0618 5.56351 10.1107 5.50715 10.1691 5.46185L13.905 2.5556C13.9881 2.49103 14.0877 2.4511 14.1925 2.44033C14.2972 2.42956 14.4028 2.4484 14.4974 2.49469C14.5919 2.54099 14.6716 2.61289 14.7273 2.70221C14.783 2.79154 14.8125 2.8947 14.8125 2.99998L14.8125 10.0153C14.8125 10.1645 14.7532 10.3075 14.6477 10.413C14.5423 10.5185 14.3992 10.5778 14.25 10.5778C14.1008 10.5778 13.9577 10.5185 13.8523 10.413C13.7468 10.3075 13.6875 10.1645 13.6875 10.0153L13.6875 4.15029L10.8591 6.34966C10.7413 6.44129 10.592 6.48239 10.444 6.46393C10.296 6.44547 10.1613 6.36896 10.0697 6.25123ZM23.0625 12C23.0638 13.7989 22.4008 15.5349 21.2006 16.875C21.1519 16.932 21.0924 16.9787 21.0254 17.0123C20.9584 17.0459 20.8853 17.0659 20.8106 17.0709C20.7358 17.0759 20.6607 17.0659 20.5898 17.0415C20.519 17.0171 20.4537 16.9788 20.3978 16.9288C20.342 16.8788 20.2967 16.8182 20.2646 16.7504C20.2325 16.6827 20.2143 16.6092 20.211 16.5343C20.2077 16.4594 20.2194 16.3847 20.2454 16.3144C20.2714 16.2441 20.3112 16.1797 20.3625 16.125C21.3772 14.9906 21.9381 13.522 21.9381 12C21.9381 10.478 21.3772 9.0094 20.3625 7.87498C20.3112 7.82028 20.2714 7.7559 20.2454 7.6856C20.2194 7.6153 20.2077 7.54051 20.211 7.46563C20.2143 7.39074 20.2325 7.31727 20.2646 7.24952C20.2967 7.18178 20.342 7.12113 20.3978 7.07115C20.4537 7.02116 20.519 6.98285 20.5898 6.95845C20.6607 6.93405 20.7358 6.92407 20.8106 6.92908C20.8853 6.9341 20.9584 6.95401 21.0254 6.98765C21.0924 7.02129 21.1519 7.06798 21.2006 7.12498C22.4008 8.46503 23.0638 10.2011 23.0625 12Z" fill="#262C30"/>
</g>
</svg>
