<svg width="75" height="75" viewBox="0 0 75 75" fill="none" xmlns="http://www.w3.org/2000/svg">
<path d="M15.3652 10.5482C15.0434 10.2495 14.6215 10.082 14.1825 10.0788C13.7434 10.0755 13.319 10.2367 12.9928 10.5305C12.6666 10.8244 12.4622 11.2297 12.4198 11.6667C12.3774 12.1037 12.5001 12.5408 12.7637 12.8919L22.8535 24.0071L22.8301 24.0247L9.37695 24.0247C8.28915 24.0247 7.2459 24.4569 6.47671 25.226C5.70752 25.9952 5.27539 27.0385 5.27539 28.1263L5.27539 46.8763C5.27539 47.9641 5.70752 49.0073 6.47671 49.7765C7.2459 50.5457 8.28915 50.9778 9.37695 50.9778H22.8359L43.4551 67.015C43.7149 67.2167 44.0262 67.3415 44.3534 67.3752C44.6807 67.4088 45.0108 67.35 45.3062 67.2053C45.6017 67.0606 45.8506 66.8359 46.0247 66.5568C46.1988 66.2777 46.2911 65.9553 46.291 65.6263V49.7825L59.6387 64.4544C59.9526 64.7994 60.3907 65.0056 60.8566 65.0275C61.3225 65.0495 61.7781 64.8855 62.123 64.5716C62.468 64.2577 62.6742 63.8196 62.6962 63.3537C62.7181 62.8878 62.5541 62.4322 62.2402 62.0872L15.3652 10.5482ZM8.79102 46.8763L8.79102 28.1263C8.79102 27.9709 8.85275 27.8219 8.96263 27.712C9.07252 27.6021 9.22155 27.5403 9.37695 27.5403L21.6816 27.5403V47.4622H9.37695C9.22155 47.4622 9.07252 47.4005 8.96263 47.2906C8.85275 47.1807 8.79102 47.0317 8.79102 46.8763ZM42.7754 62.0316L25.1973 48.3616V26.6409L25.2295 26.6175L42.7754 45.9153V62.0316ZM54.9336 42.5403C56.1588 41.1493 56.8347 39.3593 56.8347 37.5057C56.8347 35.652 56.1588 33.862 54.9336 32.471C54.7733 32.2991 54.6491 32.0969 54.5683 31.8762C54.4876 31.6554 54.4519 31.4208 54.4634 31.186C54.4749 30.9513 54.5334 30.7213 54.6353 30.5095C54.7373 30.2977 54.8807 30.1086 55.057 29.9532C55.2333 29.7978 55.4391 29.6794 55.662 29.6049C55.8849 29.5304 56.1204 29.5014 56.3548 29.5195C56.5891 29.5377 56.8174 29.6026 57.0262 29.7105C57.235 29.8184 57.42 29.9671 57.5703 30.1478C59.3615 32.1809 60.3497 34.7975 60.3497 37.5071C60.3497 40.2168 59.3615 42.8334 57.5703 44.8665C57.2618 45.2162 56.8271 45.429 56.3617 45.4581C55.8964 45.4872 55.4385 45.3303 55.0889 45.0218C54.7392 44.7133 54.5264 44.2786 54.4973 43.8132C54.4682 43.3479 54.6251 42.89 54.9336 42.5403ZM31.4697 19.5364C31.3281 19.3541 31.2238 19.1456 31.1628 18.923C31.1017 18.7003 31.0852 18.4678 31.114 18.2387C31.1428 18.0096 31.2165 17.7885 31.3308 17.5879C31.4452 17.3873 31.5979 17.2112 31.7803 17.0696L43.4551 7.98761C43.7149 7.78584 44.0262 7.66103 44.3534 7.62738C44.6807 7.59374 45.0108 7.6526 45.3062 7.79727C45.6017 7.94195 45.8506 8.16664 46.0247 8.44578C46.1988 8.72492 46.2911 9.04731 46.291 9.37629V31.2991C46.291 31.7653 46.1058 32.2124 45.7762 32.5421C45.4465 32.8718 44.9994 33.057 44.5332 33.057C44.067 33.057 43.6199 32.8718 43.2902 32.5421C42.9606 32.2124 42.7754 31.7653 42.7754 31.2991V12.971L33.9365 19.8441C33.5686 20.1304 33.102 20.2588 32.6394 20.2011C32.1768 20.1434 31.7561 19.9043 31.4697 19.5364ZM72.0723 37.5013C72.0763 43.1229 70.0043 48.548 66.2539 52.7357C66.1018 52.9138 65.9156 53.0597 65.7062 53.1648C65.4969 53.2699 65.2687 53.3322 65.0349 53.3478C64.8012 53.3635 64.5667 53.3323 64.3452 53.2561C64.1237 53.1798 63.9197 53.0601 63.7452 52.9039C63.5706 52.7477 63.429 52.5581 63.3287 52.3465C63.2285 52.1348 63.1715 51.9051 63.1612 51.6711C63.1509 51.4371 63.1875 51.2034 63.2688 50.9837C63.3502 50.764 63.4746 50.5628 63.6348 50.3919C66.8056 46.8468 68.5585 42.2575 68.5585 37.5013C68.5585 32.7451 66.8056 28.1557 63.6348 24.6107C63.4746 24.4397 63.3502 24.2385 63.2688 24.0189C63.1875 23.7992 63.1509 23.5655 63.1612 23.3314C63.1715 23.0974 63.2285 22.8678 63.3287 22.6561C63.429 22.4444 63.5706 22.2549 63.7452 22.0987C63.9197 21.9425 64.1237 21.8227 64.3452 21.7465C64.5667 21.6703 64.8012 21.6391 65.0349 21.6547C65.2687 21.6704 65.4969 21.7326 65.7062 21.8378C65.9156 21.9429 66.1018 22.0888 66.2539 22.2669C70.0043 26.4546 72.0763 31.8797 72.0723 37.5013Z" fill="#FCFBF8"/>
</svg>
