<svg width="32" height="32" viewBox="0 0 32 32" fill="none" xmlns="http://www.w3.org/2000/svg">
<g filter="url(#filter0_b_16440_23632)">
<rect width="32" height="32" rx="16" fill="#FCFBF8" fill-opacity="0.6"/>
<path d="M26.5 12.8125C26.5 19.375 16.7697 24.6869 16.3553 24.9062C16.2461 24.965 16.124 24.9958 16 24.9958C15.876 24.9958 15.7539 24.965 15.6447 24.9062C15.2303 24.6869 5.5 19.375 5.5 12.8125C5.50174 11.2715 6.11468 9.79404 7.20436 8.70436C8.29404 7.61468 9.77146 7.00174 11.3125 7C13.2484 7 14.9434 7.8325 16 9.23969C17.0566 7.8325 18.7516 7 20.6875 7C22.2285 7.00174 23.706 7.61468 24.7956 8.70436C25.8853 9.79404 26.4983 11.2715 26.5 12.8125Z" fill="#C359AC"/>
</g>
<defs>
<filter id="filter0_b_16440_23632" x="-4" y="-4" width="40" height="40" filterUnits="userSpaceOnUse" color-interpolation-filters="sRGB">
<feFlood flood-opacity="0" result="BackgroundImageFix"/>
<feGaussianBlur in="BackgroundImageFix" stdDeviation="2"/>
<feComposite in2="SourceAlpha" operator="in" result="effect1_backgroundBlur_16440_23632"/>
<feBlend mode="normal" in="SourceGraphic" in2="effect1_backgroundBlur_16440_23632" result="shape"/>
</filter>
</defs>
</svg>
