<svg width="32" height="32" viewBox="0 0 32 32" fill="none" xmlns="http://www.w3.org/2000/svg">
  <rect width="32" height="32" rx="16" fill="#FCFBF8" fill-opacity="0.6"/>
  <path d="M20.6875 7.1875C18.7188 7.1875 17.0069 8.07531 16 9.56313C14.9931 8.07531 13.2812 7.1875 11.3125 7.1875C9.82119 7.18924 8.39146 7.78243 7.33694 8.83694C6.28243 9.89146 5.68924 11.3212 5.6875 12.8125C5.6875 15.55 7.39375 18.3991 10.7594 21.2791C12.3016 22.5932 13.9675 23.7549 15.7338 24.7478C15.8156 24.7918 15.9071 24.8148 16 24.8148C16.0929 24.8148 16.1844 24.7918 16.2662 24.7478C18.0325 23.7549 19.6984 22.5932 21.2406 21.2791C24.6062 18.3991 26.3125 15.55 26.3125 12.8125C26.3108 11.3212 25.7176 9.89146 24.6631 8.83694C23.6085 7.78243 22.1788 7.18924 20.6875 7.1875ZM16 23.6041C14.4616 22.7163 6.8125 18.0363 6.8125 12.8125C6.81374 11.6194 7.28825 10.4755 8.13189 9.63189C8.97553 8.78825 10.1194 8.31374 11.3125 8.3125C13.2137 8.3125 14.8103 9.32781 15.4797 10.9628C15.5221 11.066 15.5942 11.1542 15.6868 11.2163C15.7795 11.2784 15.8885 11.3116 16 11.3116C16.1115 11.3116 16.2205 11.2784 16.3132 11.2163C16.4058 11.1542 16.4779 11.066 16.5203 10.9628C17.1897 9.32781 18.7863 8.3125 20.6875 8.3125C21.8806 8.31374 23.0245 8.78825 23.8681 9.63189C24.7118 10.4755 25.1863 11.6194 25.1875 12.8125C25.1875 18.0363 17.5384 22.7163 16 23.6041Z" fill="#C359AC"/>
</svg>
