<svg width="17" height="16" viewBox="0 0 17 16" fill="none" xmlns="http://www.w3.org/2000/svg">
<path d="M14.708 1.79267C14.5822 1.667 14.4253 1.57713 14.2532 1.5323C14.0812 1.48748 13.9003 1.48933 13.7292 1.53767H13.7199L1.72362 5.17767C1.52834 5.23382 1.3548 5.34814 1.22612 5.50539C1.09743 5.66263 1.0197 5.85535 1.00327 6.05788C0.986848 6.26041 1.03251 6.46313 1.13418 6.63906C1.23584 6.81499 1.38869 6.95577 1.57237 7.04267L6.92362 9.57704L9.45799 14.9283C9.53801 15.0997 9.66538 15.2446 9.82507 15.3459C9.98477 15.4472 10.1701 15.5008 10.3592 15.5002C10.388 15.5002 10.4167 15.4989 10.4455 15.4964C10.6473 15.4801 10.8393 15.4024 10.9957 15.2738C11.1521 15.1452 11.2654 14.9719 11.3205 14.777L14.958 2.78079C14.958 2.77767 14.958 2.77454 14.958 2.77142C15.007 2.60077 15.0096 2.42016 14.9657 2.24815C14.9217 2.07614 14.8328 1.91893 14.708 1.79267ZM10.3649 14.4908L10.3617 14.4995L7.90174 9.30642L10.8542 6.35329C10.9441 6.25876 10.9934 6.13288 10.9917 6.0025C10.99 5.87212 10.9375 5.74755 10.8453 5.65535C10.7531 5.56315 10.6285 5.51062 10.4982 5.50895C10.3678 5.50728 10.2419 5.55661 10.1474 5.64642L7.19424 8.59892L2.00049 6.13892H2.00924L14.0005 2.50017L10.3649 14.4908Z" fill="#C359AC"/>
</svg>
