<svg width="75" height="75" viewBox="0 0 75 75" fill="none" xmlns="http://www.w3.org/2000/svg">
<path fill-rule="evenodd" clip-rule="evenodd" d="M43.3574 14.0615C43.3574 14.0615 43.3574 12.1199 44.7304 10.747C44.7304 10.747 46.1033 9.37402 48.0449 9.37402H58.5918C58.5918 9.37402 60.5334 9.37402 61.9064 10.747C61.9064 10.747 63.2793 12.1199 63.2793 14.0615V60.9365C63.2793 60.9365 63.2793 62.8781 61.9064 64.2511C61.9064 64.2511 60.5334 65.624 58.5918 65.624H48.0449C48.0449 65.624 46.1033 65.624 44.7304 64.2511C44.7304 64.2511 43.3574 62.8781 43.3574 60.9365V14.0615ZM48.0449 14.0615V60.9365H58.5918V14.0615H48.0449Z" fill="#FCFBF8"/>
<path fill-rule="evenodd" clip-rule="evenodd" d="M11.7168 14.0615C11.7168 14.0615 11.7168 12.1199 13.0897 10.747C13.0897 10.747 14.4627 9.37402 16.4043 9.37402H26.9512C26.9512 9.37402 28.8928 9.37402 30.2657 10.747C30.2657 10.747 31.6387 12.1199 31.6387 14.0615V60.9365C31.6387 60.9365 31.6387 62.8781 30.2657 64.2511C30.2657 64.2511 28.8928 65.624 26.9512 65.624H16.4043C16.4043 65.624 14.4627 65.624 13.0897 64.2511C13.0897 64.2511 11.7168 62.8781 11.7168 60.9365V14.0615ZM16.4043 14.0615V60.9365H26.9512V14.0615H16.4043Z" fill="#FCFBF8"/>
</svg>
