<svg width="13" height="13" viewBox="0 0 13 13" fill="none" xmlns="http://www.w3.org/2000/svg">
<path fill-rule="evenodd" clip-rule="evenodd" d="M1 12.996H3.79293L3.79375 12.996C3.79375 12.996 3.99075 12.9964 4.17303 12.9215C4.17303 12.9215 4.35612 12.8463 4.49643 12.7067L11.9973 5.20584C11.9973 5.20584 12.1377 5.06757 12.2153 4.88225C12.2153 4.88225 12.2929 4.69694 12.2929 4.49604C12.2929 4.49604 12.2929 4.29514 12.2153 4.10982C12.2153 4.10982 12.1377 3.92451 11.9946 3.78354L9.2098 0.998736C9.2098 0.998736 9.07153 0.858309 8.88622 0.780718C8.88622 0.780718 8.7009 0.703125 8.5 0.703125C8.5 0.703125 8.2991 0.703125 8.11378 0.780717C8.11378 0.780717 7.92847 0.858309 7.7875 1.00145L0.290198 8.49874C0.290198 8.49874 0.14971 8.63992 0.0745104 8.82301C0.0745104 8.82301 -0.000689232 9.00611 4.77428e-06 9.20404L1.70464e-06 11.996C1.70464e-06 11.996 1.69873e-06 12.4103 0.292895 12.7031C0.292895 12.7031 0.585788 12.996 1 12.996ZM11.2902 4.49874L3.7929 11.996H1L0.999999 9.20315L8.5 1.70312L8.5027 1.70584L11.2929 4.49604L11.2902 4.49874Z" fill="#262C30" fill-opacity="0.8"/>
<path d="M9.64619 6.84939C9.73995 6.94316 9.86739 6.99609 10 6.99609C10.1326 6.99609 10.2598 6.94342 10.3536 6.84965C10.4473 6.75588 10.5 6.6287 10.5 6.49609C10.5 6.36349 10.4473 6.23631 10.3536 6.14254L6.85361 2.6426C6.75978 2.54877 6.63261 2.49609 6.5 2.49609C6.36739 2.49609 6.24021 2.54877 6.14645 2.64254C6.05268 2.73631 6 2.86349 6 2.99609C6 3.1287 6.05268 3.25588 6.14645 3.34965L9.64619 6.84939Z" fill="#262C30" fill-opacity="0.8"/>
</svg>
