<svg width="51" height="51" viewBox="0 0 51 51" fill="none" xmlns="http://www.w3.org/2000/svg">
<g id="PhoneCall">
<path id="Vector" d="M30.334 7.60507C30.387 7.40678 30.4786 7.22087 30.6035 7.05799C30.7285 6.8951 30.8842 6.75842 31.062 6.65576C31.2397 6.5531 31.436 6.48647 31.6395 6.45967C31.843 6.43288 32.0498 6.44645 32.2481 6.4996C35.1447 7.25536 37.7875 8.76961 39.9042 10.8864C42.021 13.0032 43.5353 15.646 44.291 18.5426C44.3442 18.7408 44.3578 18.9476 44.331 19.1511C44.3042 19.3547 44.2375 19.5509 44.1349 19.7287C44.0322 19.9064 43.8955 20.0622 43.7327 20.1871C43.5698 20.312 43.3839 20.4036 43.1856 20.4566C43.0536 20.4913 42.9177 20.509 42.7813 20.5094C42.437 20.5094 42.1023 20.3956 41.8293 20.1858C41.5562 19.976 41.3602 19.6819 41.2715 19.3492C40.6551 16.9846 39.4193 14.8272 37.6914 13.0993C35.9635 11.3714 33.806 10.1355 31.4414 9.51914C31.243 9.46631 31.0568 9.37487 30.8937 9.25005C30.7306 9.12522 30.5937 8.96947 30.4909 8.7917C30.388 8.61392 30.3212 8.41762 30.2943 8.214C30.2674 8.01039 30.2809 7.80347 30.334 7.60507ZM29.8789 15.7691C32.5723 16.4879 34.3028 18.2184 35.0215 20.9117C35.1102 21.2444 35.3062 21.5385 35.5793 21.7483C35.8523 21.9581 36.187 22.0719 36.5313 22.0719C36.6677 22.0715 36.8036 22.0538 36.9356 22.0191C37.1339 21.9661 37.3198 21.8745 37.4827 21.7496C37.6455 21.6247 37.7822 21.4689 37.8849 21.2912C37.9875 21.1134 38.0542 20.9172 38.081 20.7136C38.1078 20.5101 38.0942 20.3033 38.041 20.1051C37.041 16.3629 34.4278 13.7496 30.6856 12.7496C30.4873 12.6966 30.2805 12.6832 30.0771 12.7102C29.8737 12.7371 29.6775 12.8039 29.4999 12.9066C29.3222 13.0094 29.1666 13.1461 29.0417 13.309C28.9169 13.4719 28.8254 13.6578 28.7725 13.856C28.7195 14.0543 28.7061 14.2611 28.7331 14.4645C28.76 14.668 28.8267 14.8641 28.9295 15.0417C29.0322 15.2194 29.169 15.3751 29.3319 15.4999C29.4948 15.6247 29.6807 15.7162 29.8789 15.7691ZM45.8828 34.3922C45.5346 37.0387 44.2348 39.468 42.2264 41.2263C40.2179 42.9846 37.6381 43.9517 34.9688 43.9469C19.461 43.9469 6.84377 31.3297 6.84377 15.8219C6.83898 13.1525 7.80605 10.5727 9.56434 8.56424C11.3226 6.55579 13.7519 5.25606 16.3985 4.90781C17.0677 4.82609 17.7454 4.96301 18.3305 5.29812C18.9155 5.63323 19.3765 6.14856 19.6445 6.76718L23.7696 15.9762V15.9996C23.9748 16.4731 24.0596 16.9902 24.0163 17.5044C23.973 18.0187 23.803 18.5143 23.5215 18.9469C23.4863 18.9996 23.4492 19.0484 23.4102 19.0973L19.3438 23.9176C20.8067 26.8902 23.916 29.9723 26.9278 31.4391L31.6817 27.3941C31.7283 27.3549 31.7773 27.3184 31.8281 27.2848C32.2604 26.9965 32.7576 26.8205 33.275 26.7728C33.7923 26.725 34.3134 26.807 34.791 27.0113L34.8164 27.023L44.0176 31.1461C44.6373 31.4132 45.1539 31.8738 45.4901 32.4589C45.8263 33.044 45.9641 33.7223 45.8828 34.3922ZM42.7813 34.0016C42.7813 34.0016 42.7676 34.0016 42.7598 34.0016L33.5801 29.8902L28.8242 33.9352C28.7781 33.9742 28.7299 34.0107 28.6797 34.0445C28.23 34.3445 27.7102 34.5228 27.171 34.5618C26.6318 34.6008 26.0917 34.4993 25.6035 34.2672C21.9453 32.4996 18.2988 28.8805 16.5293 25.2613C16.295 24.7767 16.1899 24.2397 16.2241 23.7025C16.2583 23.1652 16.4307 22.6459 16.7246 22.1949C16.7578 22.142 16.795 22.0917 16.836 22.0445L20.9063 17.2184L16.8047 8.03867C16.8039 8.03087 16.8039 8.02302 16.8047 8.01523C14.9107 8.2623 13.1717 9.19133 11.9133 10.6283C10.655 12.0654 9.96365 13.9118 9.96877 15.8219C9.97601 22.4501 12.6123 28.8047 17.2991 33.4915C21.9859 38.1784 28.3406 40.8146 34.9688 40.8219C36.8777 40.8284 38.7236 40.1395 40.1615 38.8839C41.5993 37.6283 42.5306 35.892 42.7813 33.9996V34.0016Z" fill="#FCFBF8"/>
</g>
</svg>
