<svg width="40" height="40" viewBox="0 0 40 40" fill="none" xmlns="http://www.w3.org/2000/svg">
<path id="Vector" d="M24.7383 13.8531L28.3223 10.2711L24.7383 6.68906C24.4451 6.39587 24.2804 5.99822 24.2804 5.58359C24.2804 5.16896 24.4451 4.77131 24.7383 4.47812C25.0315 4.18493 25.4291 4.02022 25.8438 4.02022C26.2584 4.02022 26.656 4.18493 26.9492 4.47812L30.5313 8.0621L34.1133 4.47812C34.4065 4.18493 34.8041 4.02022 35.2188 4.02022C35.6334 4.02022 36.031 4.18493 36.3242 4.47812C36.6174 4.77131 36.7821 5.16896 36.7821 5.58359C36.7821 5.99822 36.6174 6.39587 36.3242 6.68906L32.7422 10.2711L36.3242 13.8531C36.4694 13.9983 36.5846 14.1706 36.6631 14.3603C36.7417 14.55 36.7821 14.7533 36.7821 14.9586C36.7821 15.1639 36.7417 15.3672 36.6631 15.5569C36.5846 15.7465 36.4694 15.9189 36.3242 16.0641C36.1791 16.2092 36.0067 16.3244 35.817 16.403C35.6274 16.4815 35.4241 16.522 35.2188 16.522C35.0135 16.522 34.8102 16.4815 34.6205 16.403C34.4308 16.3244 34.2585 16.2092 34.1133 16.0641L30.5313 12.4801L26.9492 16.0641C26.656 16.3572 26.2584 16.522 25.8438 16.522C25.4291 16.522 25.0315 16.3572 24.7383 16.0641C24.4451 15.7709 24.2804 15.3732 24.2804 14.9586C24.2804 14.544 24.4451 14.1463 24.7383 13.8531ZM39.8828 30.4039C39.5346 33.0504 38.2348 35.4797 36.2264 37.238C34.2179 38.9963 31.6381 39.9634 28.9688 39.9586C13.461 39.9586 0.843768 27.3414 0.843768 11.8336C0.838983 9.16424 1.80605 6.58441 3.56434 4.57596C5.32263 2.56751 7.75191 1.26778 10.3985 0.919527C11.0677 0.83781 11.7454 0.974726 12.3305 1.30984C12.9155 1.64495 13.3765 2.16028 13.6445 2.7789L17.7696 11.9879V12.0113C17.9748 12.4849 18.0596 13.0019 18.0163 13.5162C17.973 14.0305 17.803 14.526 17.5215 14.9586C17.4863 15.0113 17.4492 15.0602 17.4102 15.109L13.3438 19.9293C14.8067 22.9019 17.916 25.984 20.9278 27.4508L25.6817 23.4059C25.7283 23.3666 25.7773 23.3301 25.8281 23.2965C26.2604 23.0082 26.7576 22.8322 27.275 22.7845C27.7923 22.7367 28.3134 22.8187 28.791 23.023L28.8164 23.0348L38.0176 27.1578C38.6373 27.4249 39.1539 27.8855 39.4901 28.4706C39.8263 29.0557 39.9641 29.734 39.8828 30.4039ZM36.7813 30.0133C36.7813 30.0133 36.7676 30.0133 36.7598 30.0133L27.5801 25.9019L22.8242 29.9469C22.7781 29.986 22.7299 30.0225 22.6797 30.0562C22.23 30.3563 21.7102 30.5345 21.171 30.5735C20.6318 30.6125 20.0917 30.511 19.6035 30.2789C15.9453 28.5113 12.2988 24.8922 10.5293 21.273C10.295 20.7884 10.1899 20.2514 10.2241 19.7142C10.2583 19.1769 10.4307 18.6576 10.7246 18.2066C10.7578 18.1537 10.795 18.1034 10.836 18.0562L14.9063 13.2301L10.8047 4.05039C10.8039 4.04259 10.8039 4.03474 10.8047 4.02695C8.91067 4.27402 7.17165 5.20305 5.91332 6.64006C4.65499 8.07708 3.96365 9.92351 3.96877 11.8336C3.97601 18.4618 6.61225 24.8164 11.2991 29.5033C15.9859 34.1901 22.3406 36.8264 28.9688 36.8336C30.8777 36.8401 32.7236 36.1512 34.1615 34.8956C35.5993 33.64 36.5306 31.9037 36.7813 30.0113V30.0133Z" fill="#FCFBF8"/>
</svg>
