<svg width="22" height="22" viewBox="0 0 22 22" fill="none" xmlns="http://www.w3.org/2000/svg">
<mask id="path-1-inside-1_4891_90" fill="white">
<path d="M20.75 9.875H19.5519C19.4544 9.12712 19.2583 8.39545 18.9688 7.69906L20.0075 7.09906C20.1383 7.02669 20.2533 6.92899 20.3459 6.81166C20.4385 6.69432 20.5068 6.55972 20.5468 6.4157C20.5867 6.27169 20.5976 6.12115 20.5788 5.97288C20.5599 5.82461 20.5117 5.68158 20.437 5.55215C20.3622 5.42271 20.2625 5.30947 20.1435 5.21904C20.0245 5.1286 19.8886 5.06279 19.7439 5.02544C19.5992 4.98808 19.4485 4.97994 19.3006 5.00149C19.1527 5.02304 19.0105 5.07384 18.8825 5.15094L17.8438 5.75C17.3838 5.15193 16.8481 4.61619 16.25 4.15625L16.8509 3.11469C16.928 2.98664 16.9788 2.84451 17.0004 2.69661C17.0219 2.54871 17.0138 2.398 16.9764 2.25327C16.9391 2.10855 16.8733 1.97273 16.7828 1.85373C16.6924 1.73473 16.5792 1.63494 16.4497 1.56019C16.3203 1.48545 16.1773 1.43725 16.029 1.4184C15.8807 1.39955 15.7302 1.41044 15.5862 1.45042C15.4422 1.49041 15.3076 1.55869 15.1902 1.65128C15.0729 1.74387 14.9752 1.85891 14.9028 1.98969L14.3009 3.03125C13.6046 2.74165 12.8729 2.54557 12.125 2.44812V1.25C12.125 0.951631 12.0065 0.665483 11.7955 0.454505C11.5845 0.243526 11.2984 0.125 11 0.125C10.7016 0.125 10.4155 0.243526 10.2045 0.454505C9.99353 0.665483 9.875 0.951631 9.875 1.25V2.44812C9.12712 2.54557 8.39545 2.74165 7.69906 3.03125L7.09906 1.9925C6.947 1.73993 6.70187 1.55714 6.41641 1.48346C6.13094 1.40979 5.82797 1.45111 5.57267 1.59854C5.31736 1.74598 5.13014 1.98773 5.05127 2.2718C4.9724 2.55587 5.00819 2.85955 5.15094 3.1175L5.75 4.15625C5.15193 4.61619 4.61619 5.15193 4.15625 5.75L3.11844 5.15094C2.86049 5.00819 2.55681 4.9724 2.27274 5.05127C1.98867 5.13014 1.74691 5.31736 1.59948 5.57267C1.45205 5.82797 1.41073 6.13094 1.4844 6.41641C1.55808 6.70187 1.74087 6.947 1.99344 7.09906L3.03125 7.69906C2.74165 8.39545 2.54557 9.12712 2.44812 9.875H1.25C0.951631 9.875 0.665483 9.99353 0.454505 10.2045C0.243526 10.4155 0.125 10.7016 0.125 11C0.125 11.2984 0.243526 11.5845 0.454505 11.7955C0.665483 12.0065 0.951631 12.125 1.25 12.125H2.44812C2.54557 12.8729 2.74165 13.6046 3.03125 14.3009L1.9925 14.9009C1.86173 14.9733 1.74668 15.071 1.65409 15.1883C1.5615 15.3057 1.49322 15.4403 1.45324 15.5843C1.41325 15.7283 1.40236 15.8789 1.42121 16.0271C1.44006 16.1754 1.48826 16.3184 1.56301 16.4479C1.63775 16.5773 1.73754 16.6905 1.85654 16.781C1.97554 16.8714 2.11137 16.9372 2.25609 16.9746C2.40081 17.0119 2.55152 17.0201 2.69942 16.9985C2.84733 16.977 2.98945 16.9262 3.1175 16.8491L4.15625 16.25C4.61619 16.8481 5.15193 17.3838 5.75 17.8438L5.14906 18.8853C5.07197 19.0134 5.02117 19.1555 4.99962 19.3034C4.97807 19.4513 4.98621 19.602 5.02356 19.7467C5.06091 19.8914 5.12673 20.0273 5.21716 20.1463C5.3076 20.2653 5.42084 20.3651 5.55027 20.4398C5.6797 20.5145 5.82273 20.5628 5.971 20.5816C6.11927 20.6004 6.26981 20.5896 6.41383 20.5496C6.55785 20.5096 6.69245 20.4413 6.80978 20.3487C6.92711 20.2561 7.02482 20.1411 7.09719 20.0103L7.69906 18.9688C8.39545 19.2583 9.12712 19.4544 9.875 19.5519V20.75C9.875 21.0484 9.99353 21.3345 10.2045 21.5455C10.4155 21.7565 10.7016 21.875 11 21.875C11.2984 21.875 11.5845 21.7565 11.7955 21.5455C12.0065 21.3345 12.125 21.0484 12.125 20.75V19.5519C12.8729 19.4544 13.6046 19.2583 14.3009 18.9688L14.9009 20.0075C15.053 20.2601 15.2981 20.4429 15.5836 20.5165C15.8691 20.5902 16.172 20.5489 16.4273 20.4015C16.6826 20.254 16.8699 20.0123 16.9487 19.7282C17.0276 19.4441 16.9918 19.1404 16.8491 18.8825L16.25 17.8438C16.8481 17.3838 17.3838 16.8481 17.8438 16.25L18.8853 16.8509C19.0134 16.928 19.1555 16.9788 19.3034 17.0004C19.4513 17.0219 19.602 17.0138 19.7467 16.9764C19.8914 16.9391 20.0273 16.8733 20.1463 16.7828C20.2653 16.6924 20.3651 16.5792 20.4398 16.4497C20.5145 16.3203 20.5628 16.1773 20.5816 16.029C20.6004 15.8807 20.5896 15.7302 20.5496 15.5862C20.5096 15.4422 20.4413 15.3076 20.3487 15.1902C20.2561 15.0729 20.1411 14.9752 20.0103 14.9028L18.9688 14.3009C19.2583 13.6046 19.4544 12.8729 19.5519 12.125H20.75C21.0484 12.125 21.3345 12.0065 21.5455 11.7955C21.7565 11.5845 21.875 11.2984 21.875 11C21.875 10.7016 21.7565 10.4155 21.5455 10.2045C21.3345 9.99353 21.0484 9.875 20.75 9.875ZM11 4.625C12.4949 4.62712 13.9417 5.15377 15.0882 6.11316C16.2347 7.07256 17.0081 8.40385 17.2738 9.875H11.6488L8.83625 5C9.53019 4.75006 10.2624 4.62315 11 4.625ZM4.625 11C4.62507 10.0725 4.82781 9.15622 5.21906 8.31527C5.6103 7.47433 6.18058 6.72904 6.89 6.13156L9.7025 11L6.89 15.8684C6.18058 15.271 5.6103 14.5257 5.21906 13.6847C4.82781 12.8438 4.62507 11.9275 4.625 11ZM11 17.375C10.2627 17.3767 9.53083 17.2498 8.83719 17L11.6497 12.125H17.2747C17.009 13.5963 16.2355 14.9277 15.0888 15.8871C13.9421 16.8465 12.4951 17.3731 11 17.375Z"/>
</mask>
<path d="M20.75 9.875H19.5519C19.4544 9.12712 19.2583 8.39545 18.9688 7.69906L20.0075 7.09906C20.1383 7.02669 20.2533 6.92899 20.3459 6.81166C20.4385 6.69432 20.5068 6.55972 20.5468 6.4157C20.5867 6.27169 20.5976 6.12115 20.5788 5.97288C20.5599 5.82461 20.5117 5.68158 20.437 5.55215C20.3622 5.42271 20.2625 5.30947 20.1435 5.21904C20.0245 5.1286 19.8886 5.06279 19.7439 5.02544C19.5992 4.98808 19.4485 4.97994 19.3006 5.00149C19.1527 5.02304 19.0105 5.07384 18.8825 5.15094L17.8438 5.75C17.3838 5.15193 16.8481 4.61619 16.25 4.15625L16.8509 3.11469C16.928 2.98664 16.9788 2.84451 17.0004 2.69661C17.0219 2.54871 17.0138 2.398 16.9764 2.25327C16.9391 2.10855 16.8733 1.97273 16.7828 1.85373C16.6924 1.73473 16.5792 1.63494 16.4497 1.56019C16.3203 1.48545 16.1773 1.43725 16.029 1.4184C15.8807 1.39955 15.7302 1.41044 15.5862 1.45042C15.4422 1.49041 15.3076 1.55869 15.1902 1.65128C15.0729 1.74387 14.9752 1.85891 14.9028 1.98969L14.3009 3.03125C13.6046 2.74165 12.8729 2.54557 12.125 2.44812V1.25C12.125 0.951631 12.0065 0.665483 11.7955 0.454505C11.5845 0.243526 11.2984 0.125 11 0.125C10.7016 0.125 10.4155 0.243526 10.2045 0.454505C9.99353 0.665483 9.875 0.951631 9.875 1.25V2.44812C9.12712 2.54557 8.39545 2.74165 7.69906 3.03125L7.09906 1.9925C6.947 1.73993 6.70187 1.55714 6.41641 1.48346C6.13094 1.40979 5.82797 1.45111 5.57267 1.59854C5.31736 1.74598 5.13014 1.98773 5.05127 2.2718C4.9724 2.55587 5.00819 2.85955 5.15094 3.1175L5.75 4.15625C5.15193 4.61619 4.61619 5.15193 4.15625 5.75L3.11844 5.15094C2.86049 5.00819 2.55681 4.9724 2.27274 5.05127C1.98867 5.13014 1.74691 5.31736 1.59948 5.57267C1.45205 5.82797 1.41073 6.13094 1.4844 6.41641C1.55808 6.70187 1.74087 6.947 1.99344 7.09906L3.03125 7.69906C2.74165 8.39545 2.54557 9.12712 2.44812 9.875H1.25C0.951631 9.875 0.665483 9.99353 0.454505 10.2045C0.243526 10.4155 0.125 10.7016 0.125 11C0.125 11.2984 0.243526 11.5845 0.454505 11.7955C0.665483 12.0065 0.951631 12.125 1.25 12.125H2.44812C2.54557 12.8729 2.74165 13.6046 3.03125 14.3009L1.9925 14.9009C1.86173 14.9733 1.74668 15.071 1.65409 15.1883C1.5615 15.3057 1.49322 15.4403 1.45324 15.5843C1.41325 15.7283 1.40236 15.8789 1.42121 16.0271C1.44006 16.1754 1.48826 16.3184 1.56301 16.4479C1.63775 16.5773 1.73754 16.6905 1.85654 16.781C1.97554 16.8714 2.11137 16.9372 2.25609 16.9746C2.40081 17.0119 2.55152 17.0201 2.69942 16.9985C2.84733 16.977 2.98945 16.9262 3.1175 16.8491L4.15625 16.25C4.61619 16.8481 5.15193 17.3838 5.75 17.8438L5.14906 18.8853C5.07197 19.0134 5.02117 19.1555 4.99962 19.3034C4.97807 19.4513 4.98621 19.602 5.02356 19.7467C5.06091 19.8914 5.12673 20.0273 5.21716 20.1463C5.3076 20.2653 5.42084 20.3651 5.55027 20.4398C5.6797 20.5145 5.82273 20.5628 5.971 20.5816C6.11927 20.6004 6.26981 20.5896 6.41383 20.5496C6.55785 20.5096 6.69245 20.4413 6.80978 20.3487C6.92711 20.2561 7.02482 20.1411 7.09719 20.0103L7.69906 18.9688C8.39545 19.2583 9.12712 19.4544 9.875 19.5519V20.75C9.875 21.0484 9.99353 21.3345 10.2045 21.5455C10.4155 21.7565 10.7016 21.875 11 21.875C11.2984 21.875 11.5845 21.7565 11.7955 21.5455C12.0065 21.3345 12.125 21.0484 12.125 20.75V19.5519C12.8729 19.4544 13.6046 19.2583 14.3009 18.9688L14.9009 20.0075C15.053 20.2601 15.2981 20.4429 15.5836 20.5165C15.8691 20.5902 16.172 20.5489 16.4273 20.4015C16.6826 20.254 16.8699 20.0123 16.9487 19.7282C17.0276 19.4441 16.9918 19.1404 16.8491 18.8825L16.25 17.8438C16.8481 17.3838 17.3838 16.8481 17.8438 16.25L18.8853 16.8509C19.0134 16.928 19.1555 16.9788 19.3034 17.0004C19.4513 17.0219 19.602 17.0138 19.7467 16.9764C19.8914 16.9391 20.0273 16.8733 20.1463 16.7828C20.2653 16.6924 20.3651 16.5792 20.4398 16.4497C20.5145 16.3203 20.5628 16.1773 20.5816 16.029C20.6004 15.8807 20.5896 15.7302 20.5496 15.5862C20.5096 15.4422 20.4413 15.3076 20.3487 15.1902C20.2561 15.0729 20.1411 14.9752 20.0103 14.9028L18.9688 14.3009C19.2583 13.6046 19.4544 12.8729 19.5519 12.125H20.75C21.0484 12.125 21.3345 12.0065 21.5455 11.7955C21.7565 11.5845 21.875 11.2984 21.875 11C21.875 10.7016 21.7565 10.4155 21.5455 10.2045C21.3345 9.99353 21.0484 9.875 20.75 9.875ZM11 4.625C12.4949 4.62712 13.9417 5.15377 15.0882 6.11316C16.2347 7.07256 17.0081 8.40385 17.2738 9.875H11.6488L8.83625 5C9.53019 4.75006 10.2624 4.62315 11 4.625ZM4.625 11C4.62507 10.0725 4.82781 9.15622 5.21906 8.31527C5.6103 7.47433 6.18058 6.72904 6.89 6.13156L9.7025 11L6.89 15.8684C6.18058 15.271 5.6103 14.5257 5.21906 13.6847C4.82781 12.8438 4.62507 11.9275 4.625 11ZM11 17.375C10.2627 17.3767 9.53083 17.2498 8.83719 17L11.6497 12.125H17.2747C17.009 13.5963 16.2355 14.9277 15.0888 15.8871C13.9421 16.8465 12.4951 17.3731 11 17.375Z" fill="white" stroke="white" stroke-width="0.25" mask="url(#path-1-inside-1_4891_90)"/>
</svg>
