<svg width="24" height="24" viewBox="0 0 24 24" fill="none" xmlns="http://www.w3.org/2000/svg">
<path d="M20.7283 9.49989L20.7288 9.50032C20.9125 9.67029 21.0592 9.87635 21.1596 10.1056C21.2601 10.3349 21.3121 10.5824 21.3125 10.8327V19.4998C21.3125 19.9805 21.1215 20.4415 20.7816 20.7814C20.4417 21.1213 19.9807 21.3123 19.5 21.3123H15C14.5193 21.3123 14.0583 21.1213 13.7184 20.7814C13.3785 20.4415 13.1875 19.9805 13.1875 19.4998V15.3748V15.3123H13.125H10.875H10.8125V15.3748V19.4998C10.8125 19.9805 10.6215 20.4415 10.2816 20.7814C9.94172 21.1213 9.48071 21.3123 9 21.3123H4.5C4.0193 21.3123 3.55828 21.1213 3.21837 20.7814C2.87846 20.4415 2.6875 19.9805 2.6875 19.4998V10.8326C2.6879 10.5823 2.73995 10.3348 2.84038 10.1056C2.94081 9.87635 3.08748 9.67029 3.2712 9.50032L3.27166 9.49988L10.7643 2.4253L10.7795 2.41193L10.7795 2.41194L10.7803 2.41117C11.1133 2.10648 11.5482 1.9375 11.9995 1.9375C12.4508 1.9375 12.8858 2.10648 13.2187 2.41117L13.233 2.42458L13.2332 2.42472L20.7283 9.49989ZM19.125 19.1873H19.1875V19.1248V10.9948V10.9678L19.1679 10.9493L12.0429 4.22274L12 4.18224L11.9571 4.22274L4.83209 10.9493L4.8125 10.9678V10.9948V19.1248V19.1873H4.875H8.625H8.6875V19.1248V14.9998C8.6875 14.519 8.87846 14.058 9.21837 13.7181C9.55828 13.3782 10.0193 13.1873 10.5 13.1873H13.5C13.738 13.1873 13.9737 13.2341 14.1936 13.3252C14.4135 13.4163 14.6133 13.5498 14.7816 13.7181C14.9499 13.8864 15.0834 14.0862 15.1745 14.3061C15.2656 14.526 15.3125 14.7617 15.3125 14.9998V19.1248V19.1873H15.375H19.125Z" fill="white" stroke="white" stroke-width="0.125"/>
</svg>
