<svg width="58" height="58" viewBox="0 0 58 58" fill="none" xmlns="http://www.w3.org/2000/svg">
<path d="M45.3952 30.265L32.4927 25.515L27.7427 12.6025C27.4614 11.8383 26.9525 11.1788 26.2846 10.713C25.6167 10.2471 24.822 9.99734 24.0077 9.99734C23.1934 9.99734 22.3987 10.2471 21.7308 10.713C21.0629 11.1788 20.554 11.8383 20.2727 12.6025L15.5177 25.5L2.60516 30.25C1.84099 30.5313 1.18148 31.0402 0.715628 31.7081C0.249777 32.376 0 33.1707 0 33.985C0 34.7993 0.249777 35.594 0.715628 36.2619C1.18148 36.9298 1.84099 37.4387 2.60516 37.72L15.5002 42.5L20.2502 55.405C20.5315 56.1692 21.0404 56.8287 21.7083 57.2945C22.3762 57.7604 23.1709 58.0102 23.9852 58.0102C24.7995 58.0102 25.5942 57.7604 26.2621 57.2945C26.93 56.8287 27.4389 56.1692 27.7202 55.405L32.4702 42.5025L45.3827 37.7525C46.1468 37.4712 46.8064 36.9623 47.2722 36.2944C47.7381 35.6265 47.9878 34.8318 47.9878 34.0175C47.9878 33.2032 47.7381 32.4085 47.2722 31.7406C46.8064 31.0727 46.1468 30.5638 45.3827 30.2825L45.3952 30.265ZM31.0977 38.75C30.5572 38.9484 30.0664 39.262 29.6593 39.6691C29.2522 40.0762 28.9385 40.567 28.7402 41.1075L23.9902 53.9725L19.2502 41.0975C19.0516 40.5599 18.739 40.0717 18.3338 39.6664C17.9285 39.2612 17.4403 38.9485 16.9027 38.75L4.03766 34L16.9027 29.25C17.4403 29.0515 17.9285 28.7388 18.3338 28.3336C18.739 27.9283 19.0516 27.4401 19.2502 26.9025L24.0002 14.0375L28.7502 26.9025C28.9485 27.443 29.2622 27.9338 29.6693 28.3409C30.0764 28.748 30.5672 29.0616 31.1077 29.26L43.9727 34.01L31.0977 38.75ZM32.0002 8C32.0002 7.46957 32.2109 6.96086 32.5859 6.58579C32.961 6.21071 33.4697 6 34.0002 6H38.0002V2C38.0002 1.46957 38.2109 0.960859 38.5859 0.585786C38.961 0.210714 39.4697 0 40.0002 0C40.5306 0 41.0393 0.210714 41.4144 0.585786C41.7895 0.960859 42.0002 1.46957 42.0002 2V6H46.0002C46.5306 6 47.0393 6.21071 47.4144 6.58579C47.7895 6.96086 48.0002 7.46957 48.0002 8C48.0002 8.53043 47.7895 9.03914 47.4144 9.41421C47.0393 9.78929 46.5306 10 46.0002 10H42.0002V14C42.0002 14.5304 41.7895 15.0391 41.4144 15.4142C41.0393 15.7893 40.5306 16 40.0002 16C39.4697 16 38.961 15.7893 38.5859 15.4142C38.2109 15.0391 38.0002 14.5304 38.0002 14V10H34.0002C33.4697 10 32.961 9.78929 32.5859 9.41421C32.2109 9.03914 32.0002 8.53043 32.0002 8ZM58.0002 20C58.0002 20.5304 57.7895 21.0391 57.4144 21.4142C57.0393 21.7893 56.5306 22 56.0002 22H54.0002V24C54.0002 24.5304 53.7895 25.0391 53.4144 25.4142C53.0393 25.7893 52.5306 26 52.0002 26C51.4697 26 50.961 25.7893 50.5859 25.4142C50.2109 25.0391 50.0002 24.5304 50.0002 24V22H48.0002C47.4697 22 46.961 21.7893 46.5859 21.4142C46.2109 21.0391 46.0002 20.5304 46.0002 20C46.0002 19.4696 46.2109 18.9609 46.5859 18.5858C46.961 18.2107 47.4697 18 48.0002 18H50.0002V16C50.0002 15.4696 50.2109 14.9609 50.5859 14.5858C50.961 14.2107 51.4697 14 52.0002 14C52.5306 14 53.0393 14.2107 53.4144 14.5858C53.7895 14.9609 54.0002 15.4696 54.0002 16V18H56.0002C56.5306 18 57.0393 18.2107 57.4144 18.5858C57.7895 18.9609 58.0002 19.4696 58.0002 20Z" fill="#F2C2C3"/>
</svg>
