<svg width="20" height="21" viewBox="0 0 20 21" fill="none" xmlns="http://www.w3.org/2000/svg">
<path fill-rule="evenodd" clip-rule="evenodd" d="M10 2.375C10 2.375 11.6526 2.375 13.1628 3.01376C13.1628 3.01376 14.621 3.63053 15.7452 4.75476C15.7452 4.75476 16.8695 5.87899 17.4862 7.33719C17.4862 7.33719 18.125 8.84739 18.125 10.5C18.125 10.5 18.125 12.1526 17.4862 13.6628C17.4862 13.6628 16.8695 15.121 15.7452 16.2452C15.7452 16.2452 14.621 17.3695 13.1628 17.9862C13.1628 17.9862 11.6526 18.625 10 18.625C10 18.625 8.34739 18.625 6.83719 17.9862C6.83719 17.9862 5.37899 17.3695 4.25476 16.2452C4.25476 16.2452 3.13053 15.121 2.51376 13.6628C2.51376 13.6628 1.875 12.1526 1.875 10.5C1.875 10.5 1.875 8.84739 2.51376 7.33719C2.51376 7.33719 3.13053 5.87899 4.25476 4.75476C4.25476 4.75476 5.37899 3.63053 6.83719 3.01376C6.83719 3.01376 8.34739 2.375 10 2.375ZM10 3.625C10 3.625 8.60087 3.625 7.32413 4.16501C7.32413 4.16501 6.09047 4.68681 5.13864 5.63864C5.13864 5.63864 4.18681 6.59047 3.66502 7.82413C3.66502 7.82413 3.125 9.10087 3.125 10.5C3.125 10.5 3.125 11.8991 3.66502 13.1759C3.66502 13.1759 4.18681 14.4095 5.13864 15.3614C5.13864 15.3614 6.09047 16.3132 7.32413 16.835C7.32413 16.835 8.60087 17.375 10 17.375C10 17.375 11.3991 17.375 12.6759 16.835C12.6759 16.835 13.9095 16.3132 14.8614 15.3614C14.8614 15.3614 15.8132 14.4095 16.335 13.1759C16.335 13.1759 16.875 11.8991 16.875 10.5C16.875 10.5 16.875 9.10087 16.335 7.82413C16.335 7.82413 15.8132 6.59047 14.8614 5.63864C14.8614 5.63864 13.9095 4.68681 12.6759 4.16501C12.6759 4.16501 11.3991 3.625 10 3.625Z" fill="#FCFBF8"/>
</svg>
