<svg width="342" height="100" viewBox="0 0 342 100" fill="none" xmlns="http://www.w3.org/2000/svg">
<g clip-path="url(#clip0_5749_16450)">
<mask id="path-1-inside-1_5749_16450" fill="white">
<path d="M0 10C0 4.47716 4.47715 0 10 0H332C337.523 0 342 4.47715 342 10V90C342 95.5228 337.523 100 332 100H10C4.47716 100 0 95.5229 0 90V10Z"/>
</mask>
<path d="M0 10C0 4.47716 4.47715 0 10 0H332C337.523 0 342 4.47715 342 10V90C342 95.5228 337.523 100 332 100H10C4.47716 100 0 95.5229 0 90V10Z" fill="#FDEAEA"/>
<path d="M23.86 31.28C21.7933 31.28 20.18 30.7133 19.02 29.58C17.86 28.4467 17.28 26.84 17.28 24.76V17H21.24V24.64C21.24 25.84 21.4733 26.7 21.94 27.22C22.42 27.74 23.0733 28 23.9 28C24.7267 28 25.3733 27.74 25.84 27.22C26.3067 26.7 26.54 25.84 26.54 24.64V17H30.44V24.76C30.44 26.84 29.86 28.4467 28.7 29.58C27.54 30.7133 25.9267 31.28 23.86 31.28ZM31.9227 31V17H35.1827L42.9027 26.32H41.3627V17H45.2427V31H41.9827L34.2627 21.68H35.8027V31H31.9227ZM46.8359 31V17H50.7959V27.86H57.4759V31H46.8359ZM64.6881 31.28C63.5681 31.28 62.5348 31.1 61.5881 30.74C60.6415 30.38 59.8148 29.8733 59.1081 29.22C58.4148 28.5533 57.8748 27.78 57.4881 26.9C57.1015 26.02 56.9081 25.0533 56.9081 24C56.9081 22.9467 57.1015 21.98 57.4881 21.1C57.8748 20.22 58.4148 19.4533 59.1081 18.8C59.8148 18.1333 60.6415 17.62 61.5881 17.26C62.5348 16.9 63.5681 16.72 64.6881 16.72C65.8215 16.72 66.8548 16.9 67.7881 17.26C68.7348 17.62 69.5548 18.1333 70.2481 18.8C70.9415 19.4533 71.4815 20.22 71.8681 21.1C72.2681 21.98 72.4681 22.9467 72.4681 24C72.4681 25.0533 72.2681 26.0267 71.8681 26.92C71.4815 27.8 70.9415 28.5667 70.2481 29.22C69.5548 29.8733 68.7348 30.38 67.7881 30.74C66.8548 31.1 65.8215 31.28 64.6881 31.28ZM64.6881 28C65.2215 28 65.7148 27.9067 66.1681 27.72C66.6348 27.5333 67.0348 27.2667 67.3681 26.92C67.7148 26.56 67.9815 26.1333 68.1681 25.64C68.3681 25.1467 68.4681 24.6 68.4681 24C68.4681 23.3867 68.3681 22.84 68.1681 22.36C67.9815 21.8667 67.7148 21.4467 67.3681 21.1C67.0348 20.74 66.6348 20.4667 66.1681 20.28C65.7148 20.0933 65.2215 20 64.6881 20C64.1548 20 63.6548 20.0933 63.1881 20.28C62.7348 20.4667 62.3348 20.74 61.9881 21.1C61.6548 21.4467 61.3881 21.8667 61.1881 22.36C61.0015 22.84 60.9081 23.3867 60.9081 24C60.9081 24.6 61.0015 25.1467 61.1881 25.64C61.3881 26.1333 61.6548 26.56 61.9881 26.92C62.3348 27.2667 62.7348 27.5333 63.1881 27.72C63.6548 27.9067 64.1548 28 64.6881 28ZM80.3222 31.28C79.2155 31.28 78.1889 31.1067 77.2422 30.76C76.3089 30.4 75.4955 29.8933 74.8022 29.24C74.1222 28.5867 73.5889 27.82 73.2022 26.94C72.8155 26.0467 72.6222 25.0667 72.6222 24C72.6222 22.9333 72.8155 21.96 73.2022 21.08C73.5889 20.1867 74.1222 19.4133 74.8022 18.76C75.4955 18.1067 76.3089 17.6067 77.2422 17.26C78.1889 16.9 79.2155 16.72 80.3222 16.72C81.6155 16.72 82.7689 16.9467 83.7822 17.4C84.8089 17.8533 85.6622 18.5067 86.3422 19.36L83.8222 21.64C83.3689 21.1067 82.8689 20.7 82.3222 20.42C81.7889 20.14 81.1889 20 80.5222 20C79.9489 20 79.4222 20.0933 78.9422 20.28C78.4622 20.4667 78.0489 20.74 77.7022 21.1C77.3689 21.4467 77.1022 21.8667 76.9022 22.36C76.7155 22.8533 76.6222 23.4 76.6222 24C76.6222 24.6 76.7155 25.1467 76.9022 25.64C77.1022 26.1333 77.3689 26.56 77.7022 26.92C78.0489 27.2667 78.4622 27.5333 78.9422 27.72C79.4222 27.9067 79.9489 28 80.5222 28C81.1889 28 81.7889 27.86 82.3222 27.58C82.8689 27.3 83.3689 26.8933 83.8222 26.36L86.3422 28.64C85.6622 29.48 84.8089 30.1333 83.7822 30.6C82.7689 31.0533 81.6155 31.28 80.3222 31.28ZM90.4478 27.9L90.2278 23.46L96.2478 17H100.608L94.6078 23.5L92.4078 25.8L90.4478 27.9ZM86.9078 31V17H90.8278V31H86.9078ZM96.3078 31L91.7478 25.22L94.3278 22.46L100.908 31H96.3078ZM109.007 22.42H115.507V25.38H109.007V22.42ZM109.287 27.94H116.607V31H105.367V17H116.347V20.06H109.287V27.94ZM116.048 31L122.168 22.5L122.148 25.32L116.268 17H120.728L124.488 22.42L122.588 22.44L126.288 17H130.568L124.688 25.16V22.36L130.888 31H126.328L122.508 25.3H124.328L120.568 31H116.048ZM137.506 31.28C136.399 31.28 135.372 31.1067 134.426 30.76C133.492 30.4 132.679 29.8933 131.986 29.24C131.306 28.5867 130.772 27.82 130.386 26.94C129.999 26.0467 129.806 25.0667 129.806 24C129.806 22.9333 129.999 21.96 130.386 21.08C130.772 20.1867 131.306 19.4133 131.986 18.76C132.679 18.1067 133.492 17.6067 134.426 17.26C135.372 16.9 136.399 16.72 137.506 16.72C138.799 16.72 139.952 16.9467 140.966 17.4C141.992 17.8533 142.846 18.5067 143.526 19.36L141.006 21.64C140.552 21.1067 140.052 20.7 139.506 20.42C138.972 20.14 138.372 20 137.706 20C137.132 20 136.606 20.0933 136.126 20.28C135.646 20.4667 135.232 20.74 134.886 21.1C134.552 21.4467 134.286 21.8667 134.086 22.36C133.899 22.8533 133.806 23.4 133.806 24C133.806 24.6 133.899 25.1467 134.086 25.64C134.286 26.1333 134.552 26.56 134.886 26.92C135.232 27.2667 135.646 27.5333 136.126 27.72C136.606 27.9067 137.132 28 137.706 28C138.372 28 138.972 27.86 139.506 27.58C140.052 27.3 140.552 26.8933 141.006 26.36L143.526 28.64C142.846 29.48 141.992 30.1333 140.966 30.6C139.952 31.0533 138.799 31.28 137.506 31.28ZM144.091 31V17H148.051V27.86H154.731V31H144.091ZM161.422 31.28C159.355 31.28 157.742 30.7133 156.582 29.58C155.422 28.4467 154.842 26.84 154.842 24.76V17H158.802V24.64C158.802 25.84 159.035 26.7 159.502 27.22C159.982 27.74 160.635 28 161.462 28C162.288 28 162.935 27.74 163.402 27.22C163.868 26.7 164.102 25.84 164.102 24.64V17H168.002V24.76C168.002 26.84 167.422 28.4467 166.262 29.58C165.102 30.7133 163.488 31.28 161.422 31.28ZM174.404 31.28C173.258 31.28 172.151 31.14 171.084 30.86C170.031 30.5667 169.171 30.1933 168.504 29.74L169.804 26.82C170.431 27.22 171.151 27.5533 171.964 27.82C172.791 28.0733 173.611 28.2 174.424 28.2C174.971 28.2 175.411 28.1533 175.744 28.06C176.078 27.9533 176.318 27.82 176.464 27.66C176.624 27.4867 176.704 27.2867 176.704 27.06C176.704 26.74 176.558 26.4867 176.264 26.3C175.971 26.1133 175.591 25.96 175.124 25.84C174.658 25.72 174.138 25.6 173.564 25.48C173.004 25.36 172.438 25.2067 171.864 25.02C171.304 24.8333 170.791 24.5933 170.324 24.3C169.858 23.9933 169.478 23.6 169.184 23.12C168.891 22.6267 168.744 22.0067 168.744 21.26C168.744 20.42 168.971 19.66 169.424 18.98C169.891 18.3 170.584 17.7533 171.504 17.34C172.424 16.9267 173.571 16.72 174.944 16.72C175.864 16.72 176.764 16.8267 177.644 17.04C178.538 17.24 179.331 17.54 180.024 17.94L178.804 20.88C178.138 20.52 177.478 20.2533 176.824 20.08C176.171 19.8933 175.538 19.8 174.924 19.8C174.378 19.8 173.938 19.86 173.604 19.98C173.271 20.0867 173.031 20.2333 172.884 20.42C172.738 20.6067 172.664 20.82 172.664 21.06C172.664 21.3667 172.804 21.6133 173.084 21.8C173.378 21.9733 173.758 22.12 174.224 22.24C174.704 22.3467 175.224 22.46 175.784 22.58C176.358 22.7 176.924 22.8533 177.484 23.04C178.058 23.2133 178.578 23.4533 179.044 23.76C179.511 24.0533 179.884 24.4467 180.164 24.94C180.458 25.42 180.604 26.0267 180.604 26.76C180.604 27.5733 180.371 28.3267 179.904 29.02C179.451 29.7 178.764 30.2467 177.844 30.66C176.938 31.0733 175.791 31.28 174.404 31.28ZM181.234 31V17H185.194V31H181.234ZM191.072 31L185.092 17H189.372L194.412 29.12H191.892L197.052 17H200.972L194.972 31H191.072ZM204.231 22.42H210.731V25.38H204.231V22.42ZM204.511 27.94H211.831V31H200.591V17H211.571V20.06H204.511V27.94ZM217.449 31V17H224.069C225.616 17 226.976 17.2867 228.149 17.86C229.323 18.4333 230.236 19.24 230.889 20.28C231.556 21.32 231.889 22.56 231.889 24C231.889 25.4267 231.556 26.6667 230.889 27.72C230.236 28.76 229.323 29.5667 228.149 30.14C226.976 30.7133 225.616 31 224.069 31H217.449ZM221.409 27.84H223.909C224.709 27.84 225.403 27.6933 225.989 27.4C226.589 27.0933 227.056 26.6533 227.389 26.08C227.723 25.4933 227.889 24.8 227.889 24C227.889 23.1867 227.723 22.4933 227.389 21.92C227.056 21.3467 226.589 20.9133 225.989 20.62C225.403 20.3133 224.709 20.16 223.909 20.16H221.409V27.84ZM236.413 22.42H242.913V25.38H236.413V22.42ZM236.693 27.94H244.013V31H232.773V17H243.753V20.06H236.693V27.94ZM243.33 31L249.51 17H253.41L259.61 31H255.49L250.65 18.94H252.21L247.37 31H243.33ZM246.71 28.28L247.73 25.36H254.57L255.59 28.28H246.71ZM259.533 31V17H263.493V27.86H270.173V31H259.533ZM275.421 31.28C274.274 31.28 273.167 31.14 272.101 30.86C271.047 30.5667 270.187 30.1933 269.521 29.74L270.821 26.82C271.447 27.22 272.167 27.5533 272.981 27.82C273.807 28.0733 274.627 28.2 275.441 28.2C275.987 28.2 276.427 28.1533 276.761 28.06C277.094 27.9533 277.334 27.82 277.481 27.66C277.641 27.4867 277.721 27.2867 277.721 27.06C277.721 26.74 277.574 26.4867 277.281 26.3C276.987 26.1133 276.607 25.96 276.141 25.84C275.674 25.72 275.154 25.6 274.581 25.48C274.021 25.36 273.454 25.2067 272.881 25.02C272.321 24.8333 271.807 24.5933 271.341 24.3C270.874 23.9933 270.494 23.6 270.201 23.12C269.907 22.6267 269.761 22.0067 269.761 21.26C269.761 20.42 269.987 19.66 270.441 18.98C270.907 18.3 271.601 17.7533 272.521 17.34C273.441 16.9267 274.587 16.72 275.961 16.72C276.881 16.72 277.781 16.8267 278.661 17.04C279.554 17.24 280.347 17.54 281.041 17.94L279.821 20.88C279.154 20.52 278.494 20.2533 277.841 20.08C277.187 19.8933 276.554 19.8 275.941 19.8C275.394 19.8 274.954 19.86 274.621 19.98C274.287 20.0867 274.047 20.2333 273.901 20.42C273.754 20.6067 273.681 20.82 273.681 21.06C273.681 21.3667 273.821 21.6133 274.101 21.8C274.394 21.9733 274.774 22.12 275.241 22.24C275.721 22.3467 276.241 22.46 276.801 22.58C277.374 22.7 277.941 22.8533 278.501 23.04C279.074 23.2133 279.594 23.4533 280.061 23.76C280.527 24.0533 280.901 24.4467 281.181 24.94C281.474 25.42 281.621 26.0267 281.621 26.76C281.621 27.5733 281.387 28.3267 280.921 29.02C280.467 29.7 279.781 30.2467 278.861 30.66C277.954 31.0733 276.807 31.28 275.421 31.28ZM282.35 25.9L281.61 17H286.13L285.37 25.9H282.35ZM283.87 31.18C283.203 31.18 282.657 30.9733 282.23 30.56C281.803 30.1467 281.59 29.6533 281.59 29.08C281.59 28.4933 281.803 28.0067 282.23 27.62C282.657 27.22 283.203 27.02 283.87 27.02C284.537 27.02 285.077 27.22 285.49 27.62C285.917 28.0067 286.13 28.4933 286.13 29.08C286.13 29.6533 285.917 30.1467 285.49 30.56C285.077 30.9733 284.537 31.18 283.87 31.18Z" fill="#13476C"/>
<g style="mix-blend-mode:color-dodge">
<path opacity="0.2" d="M343.354 87.6731C341.264 91.2912 340.489 95.5203 341.158 99.6446C341.828 103.769 343.903 107.535 347.03 110.306C347.811 110.998 348.33 111.938 348.498 112.968C348.666 113.998 348.473 115.055 347.952 115.959L340.926 128.129C340.325 129.17 339.335 129.929 338.174 130.24C337.014 130.551 335.777 130.388 334.736 129.788L271.949 93.5375L312.73 22.9023L375.517 59.1523C376.558 59.7532 377.318 60.7429 377.629 61.9037C377.94 63.0646 377.777 64.3014 377.176 65.3421L370.15 77.512C369.627 78.4153 368.808 79.1104 367.832 79.4799C366.856 79.8495 365.783 79.8708 364.793 79.5403C360.829 78.217 356.531 78.3038 352.624 79.7858C348.717 81.2678 345.443 84.0541 343.354 87.6731Z" fill="#13476C"/>
<path d="M363.352 83.8366C365.333 84.4995 367.482 84.4575 369.436 83.718C371.39 82.9784 373.028 81.5865 374.073 79.778L381.1 67.6081C382.301 65.5266 382.627 63.053 382.005 60.7313C381.383 58.4097 379.864 56.4303 377.783 55.2285L283.602 0.853524C281.521 -0.348238 279.047 -0.673902 276.725 -0.0518239C274.404 0.570254 272.424 2.08912 271.223 4.17063L264.196 16.3405C263.153 18.1502 262.767 20.2648 263.103 22.3266C263.439 24.3883 264.478 26.2706 266.042 27.6548C268.376 29.735 269.921 32.5558 270.417 35.6421C270.914 38.7284 270.332 41.8916 268.769 44.5988C267.206 47.306 264.758 49.3918 261.836 50.5048C258.915 51.6178 255.7 51.6901 252.732 50.7093C250.747 50.0453 248.593 50.0886 246.637 50.832C244.681 51.5754 243.042 52.9731 241.999 54.7876L234.973 66.9575C233.771 69.039 233.445 71.5126 234.067 73.8343C234.689 76.1559 236.208 78.1353 238.29 79.3371L332.47 133.712C334.552 134.914 337.025 135.24 339.347 134.617C341.668 133.995 343.648 132.476 344.85 130.395L351.876 118.225C352.919 116.415 353.306 114.301 352.969 112.239C352.633 110.177 351.595 108.295 350.03 106.911C347.697 104.831 346.151 102.01 345.655 98.9235C345.158 95.8372 345.74 92.674 347.303 89.9668C348.866 87.2596 351.315 85.1738 354.236 84.0608C357.157 82.9478 360.372 82.8755 363.341 83.8563L363.352 83.8366ZM249.844 59.3238C254.799 60.98 260.173 60.8735 265.058 59.0222C269.942 57.1709 274.037 53.6885 276.649 49.1646C279.261 44.6408 280.229 39.3534 279.39 34.1975C278.551 29.0416 275.956 24.334 272.045 20.8717L279.071 8.70188L306.54 24.5613L270.29 87.3481L242.821 71.4887L249.844 59.3238ZM344.025 113.699L337.001 125.864L278.139 91.8793L314.389 29.0925L373.251 63.0769L366.228 75.2418C361.274 73.5856 355.899 73.6921 351.015 75.5434C346.13 77.3947 342.035 80.8771 339.423 85.401C336.812 89.9248 335.843 95.2122 336.682 100.368C337.521 105.524 340.116 110.232 344.028 113.694L344.025 113.699Z" fill="#13476C"/>
</g>
<mask id="path-6-outside-2_5749_16450" maskUnits="userSpaceOnUse" x="15" y="47" width="181" height="40" fill="black">
<rect fill="white" x="15" y="47" width="181" height="40"/>
<path d="M16 66C16 56.0589 24.0589 48 34 48H177C186.941 48 195 56.0589 195 66C195 75.9411 186.941 84 177 84H34C24.0589 84 16 75.9411 16 66Z"/>
</mask>
</g>
<path d="M10 1H332V-1H10V1ZM341 10V90H343V10H341ZM332 99H10V101H332V99ZM1 90V10H-1V90H1ZM10 99C5.02944 99 1 94.9706 1 90H-1C-1 96.0751 3.92487 101 10 101V99ZM341 90C341 94.9706 336.971 99 332 99V101C338.075 101 343 96.0751 343 90H341ZM332 1C336.971 1 341 5.02944 341 10H343C343 3.92487 338.075 -1 332 -1V1ZM10 -1C3.92487 -1 -1 3.92487 -1 10H1C1 5.02944 5.02944 1 10 1V-1Z" fill="#F2C2C3" mask="url(#path-1-inside-1_5749_16450)"/>
<defs>
<clipPath id="clip0_5749_16450">
<path d="M0 10C0 4.47716 4.47715 0 10 0H332C337.523 0 342 4.47715 342 10V90C342 95.5228 337.523 100 332 100H10C4.47716 100 0 95.5229 0 90V10Z" fill="white"/>
</clipPath>
</defs>
</svg>
