<svg width="75" height="75" viewBox="0 0 75 75" fill="none" xmlns="http://www.w3.org/2000/svg">
<path fill-rule="evenodd" clip-rule="evenodd" d="M68.0345 33.5008C68.0345 33.5008 69.0854 34.128 69.6924 35.1921C69.6924 35.1921 70.3043 36.265 70.3043 37.5001C70.3043 37.5001 70.3043 38.7353 69.6924 39.8081C69.6924 39.8081 69.0804 40.881 68.0172 41.5097L25.8888 67.2731C25.8888 67.2731 24.8125 67.937 23.5392 67.9651C23.5392 67.9651 22.2659 67.9933 21.1534 67.3732C21.1534 67.3732 20.0409 66.7532 19.3952 65.6554C19.3952 65.6554 18.7495 64.5576 18.748 63.284V11.7189C18.748 11.7189 18.7495 10.4427 19.3952 9.34489C19.3952 9.34489 20.0409 8.2471 21.1534 7.62702C21.1534 7.62702 22.2659 7.00695 23.5392 7.03511C23.5392 7.03511 24.8125 7.06327 25.8965 7.73193L68.0345 33.5008ZM23.4355 11.7215L65.5897 37.5003L23.4432 63.2741L23.4355 63.2788L23.4355 11.7215Z" fill="#FCFBF8"/>
</svg>
