<svg xmlns="http://www.w3.org/2000/svg" width="20" height="21" viewBox="0 0 20 21" fill="none">
  <path d="M10 2.2417C8.39303 2.2417 6.82214 2.71822 5.486 3.61101C4.14985 4.5038 3.10844 5.77275 2.49348 7.2574C1.87852 8.74205 1.71762 10.3757 2.03112 11.9518C2.34463 13.5279 3.11846 14.9756 4.25476 16.1119C5.39106 17.2482 6.8388 18.0221 8.4149 18.3356C9.99099 18.6491 11.6247 18.4882 13.1093 17.8732C14.594 17.2583 15.8629 16.2169 16.7557 14.8807C17.6485 13.5446 18.125 11.9737 18.125 10.3667C18.1209 8.21308 17.2635 6.14886 15.7407 4.62602C14.2178 3.10318 12.1536 2.24583 10 2.2417ZM12.8438 10.8901L9.09375 13.3901C8.99032 13.4541 8.87161 13.4892 8.75 13.4917C8.64693 13.4916 8.54529 13.4675 8.45313 13.4214C8.35321 13.3675 8.26987 13.2873 8.21206 13.1896C8.15425 13.0919 8.12415 12.9802 8.125 12.8667V7.8667C8.12415 7.75316 8.15425 7.64153 8.21206 7.5438C8.26987 7.44607 8.35321 7.36594 8.45313 7.31201C8.55345 7.26123 8.66526 7.23741 8.77758 7.24288C8.88989 7.24836 8.99885 7.28295 9.09375 7.34326L12.8438 9.84326C12.9308 9.90006 13.0023 9.97767 13.0518 10.0691C13.1013 10.1605 13.1272 10.2628 13.1272 10.3667C13.1272 10.4706 13.1013 10.5729 13.0518 10.6643C13.0023 10.7557 12.9308 10.8333 12.8438 10.8901Z" fill="#F2C2C3"/>
</svg>
