<svg xmlns="http://www.w3.org/2000/svg" width="21" height="21" viewBox="0 0 21 21" fill="none">
  <path d="M10.5 2.74219C8.89303 2.74219 7.32214 3.21871 5.986 4.1115C4.64985 5.00428 3.60844 6.27323 2.99348 7.75788C2.37852 9.24253 2.21762 10.8762 2.53112 12.4523C2.84463 14.0284 3.61846 15.4761 4.75476 16.6124C5.89106 17.7487 7.3388 18.5226 8.9149 18.8361C10.491 19.1496 12.1247 18.9887 13.6093 18.3737C15.094 17.7587 16.3629 16.7173 17.2557 15.3812C18.1485 14.045 18.625 12.4742 18.625 10.8672C18.6209 8.71357 17.7635 6.64935 16.2407 5.12651C14.7178 3.60367 12.6536 2.74632 10.5 2.74219ZM13.3438 11.3906L9.59375 13.8906C9.49032 13.9546 9.37161 13.9897 9.25 13.9922C9.14693 13.9921 9.04529 13.968 8.95313 13.9219C8.85321 13.8679 8.76987 13.7878 8.71206 13.6901C8.65425 13.5924 8.62415 13.4807 8.625 13.3672V8.36719C8.62415 8.25365 8.65425 8.14202 8.71206 8.04429C8.76987 7.94656 8.85321 7.86643 8.95313 7.8125C9.05345 7.76172 9.16526 7.73789 9.27758 7.74337C9.38989 7.74885 9.49885 7.78344 9.59375 7.84375L13.3438 10.3438C13.4308 10.4005 13.5023 10.4782 13.5518 10.5696C13.6013 10.661 13.6272 10.7632 13.6272 10.8672C13.6272 10.9711 13.6013 11.0734 13.5518 11.1648C13.5023 11.2562 13.4308 11.3338 13.3438 11.3906Z" fill="#F2C2C3"/>
</svg>
