<svg width="44" height="44" viewBox="0 0 44 44" fill="none" xmlns="http://www.w3.org/2000/svg">
<g filter="url(#filter0_i_16396_22140)">
<rect width="44" height="44" rx="22" fill="white"/>
<rect x="0.5" y="0.5" width="43" height="43" rx="21.5" stroke="#F1F1F1"/>
<path d="M31 14.6875L13 14.6875C12.6519 14.6875 12.3181 14.8258 12.0719 15.0719C11.8258 15.3181 11.6875 15.6519 11.6875 16L11.6875 28C11.6875 28.3481 11.8258 28.6819 12.0719 28.9281C12.3181 29.1742 12.6519 29.3125 13 29.3125H31C31.3481 29.3125 31.6819 29.1742 31.9281 28.9281C32.1742 28.6819 32.3125 28.3481 32.3125 28V16C32.3125 15.6519 32.1742 15.3181 31.9281 15.0719C31.6819 14.8258 31.3481 14.6875 31 14.6875ZM31.1875 28C31.1875 28.0497 31.1677 28.0974 31.1326 28.1326C31.0974 28.1677 31.0497 28.1875 31 28.1875H13C12.9503 28.1875 12.9026 28.1677 12.8674 28.1326C12.8323 28.0974 12.8125 28.0497 12.8125 28L12.8125 16C12.8125 15.9503 12.8323 15.9026 12.8674 15.8674C12.9026 15.8323 12.9503 15.8125 13 15.8125L31 15.8125C31.0497 15.8125 31.0974 15.8323 31.1326 15.8674C31.1677 15.9026 31.1875 15.9503 31.1875 16V28ZM20.9866 24.3166C21.0236 24.3805 21.0476 24.4511 21.0573 24.5244C21.0671 24.5976 21.0622 24.6721 21.0432 24.7435C21.0241 24.8149 20.9912 24.8818 20.9462 24.9405C20.9013 24.9991 20.8452 25.0483 20.7813 25.0853C20.2397 25.398 19.6254 25.5625 19 25.5625C18.3747 25.5625 17.7604 25.3978 17.2188 25.0852C16.6773 24.7725 16.2276 24.3228 15.9149 23.7812C15.6023 23.2396 15.4377 22.6253 15.4377 22C15.4377 21.3747 15.6023 20.7604 15.9149 20.2188C16.2276 19.6772 16.6773 19.2275 17.2188 18.9148C17.7604 18.6022 18.3747 18.4375 19 18.4375C19.6254 18.4375 20.2397 18.6021 20.7813 18.9147C20.8485 18.9499 20.9079 18.9983 20.9559 19.057C21.0039 19.1157 21.0396 19.1835 21.0607 19.2564C21.0819 19.3292 21.0881 19.4056 21.0789 19.4809C21.0698 19.5562 21.0455 19.6289 21.0075 19.6946C20.9695 19.7603 20.9187 19.8176 20.858 19.8631C20.7973 19.9086 20.728 19.9414 20.6543 19.9595C20.5807 19.9775 20.5041 19.9805 20.4292 19.9682C20.3544 19.9558 20.2828 19.9285 20.2188 19.8878C19.8482 19.6742 19.4279 19.5618 19.0002 19.562C18.5724 19.5622 18.1523 19.675 17.7819 19.889C17.4116 20.103 17.104 20.4107 16.8902 20.7811C16.6764 21.1516 16.5639 21.5718 16.5639 21.9995C16.5639 22.4273 16.6764 22.8475 16.8902 23.2179C17.104 23.5884 17.4116 23.8961 17.7819 24.1101C18.1523 24.3241 18.5724 24.4368 19.0002 24.437C19.4279 24.4372 19.8482 24.3249 20.2188 24.1112C20.3478 24.0368 20.5012 24.0166 20.6451 24.0551C20.7891 24.0936 20.9119 24.1876 20.9866 24.3166ZM28.4866 24.3166C28.5236 24.3805 28.5476 24.4511 28.5573 24.5244C28.5671 24.5976 28.5622 24.6721 28.5432 24.7435C28.5241 24.8149 28.4912 24.8818 28.4462 24.9405C28.4013 24.9991 28.3452 25.0483 28.2813 25.0853C27.7397 25.398 27.1254 25.5625 26.5 25.5625C25.8747 25.5625 25.2604 25.3978 24.7188 25.0852C24.1773 24.7725 23.7276 24.3228 23.4149 23.7812C23.1023 23.2396 22.9377 22.6253 22.9377 22C22.9377 21.3747 23.1023 20.7604 23.4149 20.2188C23.7276 19.6772 24.1773 19.2275 24.7188 18.9148C25.2604 18.6022 25.8747 18.4375 26.5 18.4375C27.1254 18.4375 27.7397 18.6021 28.2813 18.9147C28.3485 18.9499 28.4079 18.9983 28.4559 19.057C28.504 19.1157 28.5396 19.1835 28.5607 19.2564C28.5819 19.3292 28.5881 19.4056 28.5789 19.4809C28.5698 19.5562 28.5455 19.6289 28.5075 19.6946C28.4695 19.7603 28.4187 19.8176 28.358 19.8631C28.2973 19.9086 28.228 19.9414 28.1543 19.9595C28.0807 19.9775 28.0041 19.9805 27.9292 19.9682C27.8544 19.9558 27.7828 19.9285 27.7188 19.8878C27.3482 19.6742 26.9279 19.5618 26.5002 19.562C26.0724 19.5622 25.6523 19.675 25.2819 19.889C24.9116 20.103 24.604 20.4107 24.3902 20.7811C24.1764 21.1516 24.0639 21.5718 24.0639 21.9995C24.0639 22.4273 24.1764 22.8475 24.3902 23.2179C24.604 23.5884 24.9116 23.8961 25.2819 24.1101C25.6523 24.3241 26.0724 24.4368 26.5002 24.437C26.9279 24.4372 27.3482 24.3249 27.7188 24.1112C27.8478 24.0368 28.0012 24.0166 28.1451 24.0551C28.2891 24.0936 28.4119 24.1876 28.4866 24.3166Z" fill="#262C30"/>
</g>
<defs>
<filter id="filter0_i_16396_22140" x="0" y="0" width="44" height="48" filterUnits="userSpaceOnUse" color-interpolation-filters="sRGB">
<feFlood flood-opacity="0" result="BackgroundImageFix"/>
<feBlend mode="normal" in="SourceGraphic" in2="BackgroundImageFix" result="shape"/>
<feColorMatrix in="SourceAlpha" type="matrix" values="0 0 0 0 0 0 0 0 0 0 0 0 0 0 0 0 0 0 127 0" result="hardAlpha"/>
<feOffset dy="4"/>
<feGaussianBlur stdDeviation="2"/>
<feComposite in2="hardAlpha" operator="arithmetic" k2="-1" k3="1"/>
<feColorMatrix type="matrix" values="0 0 0 0 0 0 0 0 0 0 0 0 0 0 0 0 0 0 0.25 0"/>
<feBlend mode="normal" in2="shape" result="effect1_innerShadow_16396_22140"/>
</filter>
</defs>
</svg>
