<svg width="597" height="147" xmlns="http://www.w3.org/2000/svg">
 <g>
  <title>Layer 1</title>
  <g id="svg_8">
   <g id="svg_2">
    <g id="svg_3" class="layer">
     <title>Layer 1</title>
     <path d="m343.74002,145.42004l-27.34003,-4.42001c-3.07996,-0.49002 -4.60999,-0.74002 -6.15997,-0.73001c-1.54999,0 -3.08002,0.28003 -6.15002,0.82001l-18.63,3.29001c-2.89996,0.51999 -4.34998,0.78 -5.82001,0.78998c-1.45996,0.03 -2.90997,-0.18997 -5.82001,-0.59l-25.87997,-3.69998c-3.07999,-0.44 -4.61002,-0.65002 -6.16003,-0.61002c-1.53995,0.04001 -3.07999,0.32999 -6.12997,0.94l-15.08002,2.92999c-3.23004,0.63004 -4.83997,0.95001 -6.46994,0.98001c-1.63004,0.03 -3.25003,-0.23999 -6.49002,-0.75l-20.20004,-3.26999c-3.39996,-0.56 -5.09998,-0.82001 -6.78998,-0.78003c-1.70001,0.04004 -3.40002,0.40002 -6.76001,1.11002l-11.43997,2.43002c-3.64001,0.76999 -5.45999,1.15997 -7.29999,1.17999c-1.83005,0.02997 -3.66003,-0.33002 -7.30002,-1.02002l-12.66998,-2.40997c-4.20001,-0.81 -6.31,-1.22003 -8.42001,-1.12c-2.12,0.08997 -4.19998,0.65997 -8.35999,1.81l-2.08002,0.56998c-4.60001,1.26999 -6.91,1.88998 -9.23997,1.93002c-2.34004,0.04999 -4.65001,-0.5 -9.28001,-1.61002l-4.51001,-1.08002c-4.37003,-1.04004 -6.56003,-1.57001 -8.79004,-1.56c-2.20996,0 -4.39996,0.53998 -8.77997,1.62997l-4.78,1.19c-4.13998,1.01999 -6.20001,1.53 -8.29001,1.57001c-2.09,0.03 -4.17001,-0.41 -8.32001,-1.29999l-10.69,-2.26001c-3.23001,-0.69 -4.84,-1.03 -6.47,-1.07999c-1.63998,-0.05002 -3.26001,0.19 -6.51001,0.65997l-30.62997,4.45001l0,-145.41l343.76004,0l0,145.41l-0.02002,0.01001l0,0l0,0.00003z" fill="currentColor" id="svg_1"/>
    </g>
   </g>
   <g id="svg_7">
    <g id="svg_6" class="layer">
     <title id="svg_4">Layer 1</title>
     <path d="m685.76019,145.42004l-27.34003,-4.42001c-3.08002,-0.49002 -4.60999,-0.74002 -6.16003,-0.73001c-1.54999,0 -3.0799,0.28003 -6.14996,0.82001l-18.62994,3.29001c-2.8999,0.51999 -4.34998,0.78 -5.82007,0.78998c-1.45996,0.03 -2.90997,-0.18997 -5.81995,-0.59l-25.88,-3.69998c-3.08002,-0.44 -4.60999,-0.65002 -6.16003,-0.61002c-1.54004,0.04001 -3.08002,0.32999 -6.13,0.94l-15.07996,2.92999c-3.23004,0.63004 -4.84003,0.95001 -6.46997,0.98001c-1.63,0.03 -3.25,-0.23999 -6.48999,-0.75l-20.20007,-3.26999c-3.3999,-0.56 -5.10004,-0.82001 -6.78992,-0.78003c-1.70001,0.04004 -3.40002,0.40002 -6.76007,1.11002l-11.43991,2.43002c-3.64001,0.76999 -5.46002,1.15997 -7.30005,1.17999c-1.83002,0.02997 -3.66003,-0.33002 -7.29999,-1.02002l-12.66998,-2.40997c-4.20001,-0.81 -6.31,-1.22003 -8.41998,-1.12c-2.12006,0.08997 -4.20001,0.65997 -8.36005,1.81l-2.07996,0.56998c-4.60004,1.26999 -6.91003,1.88998 -9.24005,1.93002c-2.34003,0.04999 -4.64996,-0.5 -9.27997,-1.61002l-4.51001,-1.08002c-4.37,-1.04004 -6.56006,-1.57001 -8.79004,-1.56c-2.20996,0 -4.39996,0.53998 -8.77997,1.62997l-4.77997,1.19c-4.14001,1.01999 -6.20007,1.53 -8.29004,1.57001c-2.08997,0.03 -4.17004,-0.41 -8.32001,-1.29999l-10.69,-2.26001c-3.22998,-0.69 -4.83997,-1.03 -6.46997,-1.07999c-1.64001,-0.05002 -3.26001,0.19 -6.51001,0.65997l-30.63,4.45001l0,-145.41l343.75998,0l0,145.41l-0.02002,0.01001l0,0l0,0.00003z" fill="currentColor" id="svg_5"/>
    </g>
   </g>
  </g>
 </g>

</svg>