<svg width="27" height="27" viewBox="0 0 27 27" fill="none" xmlns="http://www.w3.org/2000/svg">
<path d="M23.976 3.02512C23.7638 2.81306 23.4989 2.6614 23.2086 2.58576C22.9183 2.51013 22.613 2.51325 22.3243 2.59481H22.3085L2.06485 8.73731C1.73532 8.83208 1.44248 9.02498 1.22532 9.29034C1.00816 9.55569 0.87699 9.88091 0.849273 10.2227C0.821556 10.5644 0.89861 10.9065 1.07017 11.2034C1.24174 11.5003 1.49967 11.7379 1.80962 11.8845L10.8399 16.1613L15.1166 25.1915C15.2516 25.4807 15.4666 25.7252 15.7361 25.8962C16.0055 26.0672 16.3183 26.1575 16.6375 26.1565C16.686 26.1565 16.7345 26.1544 16.783 26.1502C17.1236 26.1226 17.4476 25.9916 17.7115 25.7746C17.9754 25.5576 18.1667 25.2651 18.2596 24.9363L24.3979 4.69259C24.3979 4.68731 24.3979 4.68204 24.3979 4.67676C24.4805 4.3888 24.485 4.08402 24.4108 3.79376C24.3367 3.50349 24.1866 3.2382 23.976 3.02512ZM16.647 24.4532L16.6417 24.468L12.4904 15.7046L17.4728 10.7212C17.6243 10.5617 17.7076 10.3492 17.7048 10.1292C17.7019 9.90921 17.6133 9.69899 17.4577 9.54341C17.3021 9.38782 17.0919 9.29916 16.8719 9.29635C16.6519 9.29353 16.4395 9.37677 16.2799 9.52833L11.2965 14.5107L2.53208 10.3594H2.54685L22.7821 4.21903L16.647 24.4532Z" fill="#F2C2C3"/>
</svg>
