<svg width="32" height="32" viewBox="0 0 32 32" fill="none" xmlns="http://www.w3.org/2000/svg">
<g filter="url(#filter0_b_22294_48868)">
<rect width="32" height="32" rx="16" fill="#FCFBF8" fill-opacity="0.6"/>
<path d="M24.812 6.189C24.6234 6.0005 24.3879 5.86569 24.1299 5.79846C23.8718 5.73122 23.6005 5.734 23.3439 5.8065H23.3298L5.33543 11.2665C5.04251 11.3507 4.78221 11.5222 4.58917 11.7581C4.39614 11.994 4.27955 12.283 4.25491 12.5868C4.23027 12.8906 4.29876 13.1947 4.45126 13.4586C4.60376 13.7225 4.83304 13.9337 5.10855 14.064L13.1354 17.8656L16.937 25.8924C17.057 26.1495 17.2481 26.3668 17.4876 26.5188C17.7271 26.6708 18.0052 26.7511 18.2889 26.7502C18.332 26.7502 18.3751 26.7484 18.4182 26.7446C18.721 26.7201 19.0089 26.6036 19.2435 26.4107C19.4782 26.2178 19.6482 25.9578 19.7307 25.6656L25.187 7.67119C25.187 7.6665 25.187 7.66181 25.187 7.65712C25.2604 7.40115 25.2644 7.13024 25.1985 6.87223C25.1326 6.61421 24.9992 6.3784 24.812 6.189ZM18.2973 25.2362L18.2926 25.2493L14.6026 17.4596L19.0314 13.0299C19.1661 12.8881 19.2401 12.6993 19.2376 12.5038C19.2351 12.3082 19.1563 12.1213 19.018 11.983C18.8797 11.8447 18.6928 11.7659 18.4972 11.7634C18.3017 11.7609 18.1128 11.8349 17.9711 11.9696L13.5414 16.3984L5.75074 12.7084H5.76386L23.7507 7.25025L18.2973 25.2362Z" fill="#C359AC"/>
</g>
<defs>
<filter id="filter0_b_22294_48868" x="-4" y="-4" width="40" height="40" filterUnits="userSpaceOnUse" color-interpolation-filters="sRGB">
<feFlood flood-opacity="0" result="BackgroundImageFix"/>
<feGaussianBlur in="BackgroundImageFix" stdDeviation="2"/>
<feComposite in2="SourceAlpha" operator="in" result="effect1_backgroundBlur_22294_48868"/>
<feBlend mode="normal" in="SourceGraphic" in2="effect1_backgroundBlur_22294_48868" result="shape"/>
</filter>
</defs>
</svg>
