<svg xmlns="http://www.w3.org/2000/svg" width="20" height="21" viewBox="0 0 20 21" fill="none">
  <path d="M2.66406 1.75854H1.25C0.904822 1.75854 0.625 2.03837 0.625 2.38354C0.625 2.72872 0.904822 3.00854 1.25 3.00854H2.65808L4.83821 14.9954C4.89226 15.2925 5.15108 15.5085 5.45312 15.5085H14.375C14.7202 15.5085 15 15.2287 15 14.8835C15 14.5384 14.7202 14.2585 14.375 14.2585H5.9747L3.8888 2.78982C3.80988 2.34567 3.46551 2.05428 3.46551 2.05428C3.12114 1.76289 2.66406 1.75854 2.66406 1.75854Z" fill="#fcfbf8"/>
  <path fill-rule="evenodd" clip-rule="evenodd" d="M6.25 14.2585C6.25 14.2585 7.15609 14.2585 7.7968 14.8992C7.7968 14.8992 8.4375 15.54 8.4375 16.446C8.4375 16.446 8.4375 17.3521 7.7968 17.9928C7.7968 17.9928 7.15609 18.6335 6.25 18.6335C6.25 18.6335 5.34391 18.6335 4.7032 17.9928C4.7032 17.9928 4.0625 17.3521 4.0625 16.446C4.0625 16.446 4.0625 15.54 4.7032 14.8992C4.7032 14.8992 5.34391 14.2585 6.25 14.2585ZM6.25 15.5085C6.25 15.5085 5.86167 15.5085 5.58709 15.7831C5.58709 15.7831 5.3125 16.0577 5.3125 16.446C5.3125 16.446 5.3125 16.8344 5.58709 17.109C5.58709 17.109 5.86167 17.3835 6.25 17.3835C6.25 17.3835 6.63832 17.3835 6.91291 17.109C6.91291 17.109 7.1875 16.8344 7.1875 16.446C7.1875 16.446 7.1875 16.0577 6.91291 15.7831C6.91291 15.7831 6.63833 15.5085 6.25 15.5085Z" fill="#fcfbf8"/>
  <path fill-rule="evenodd" clip-rule="evenodd" d="M14.375 14.2585C14.375 14.2585 15.2811 14.2585 15.9218 14.8992C15.9218 14.8992 16.5625 15.54 16.5625 16.446C16.5625 16.446 16.5625 17.3521 15.9218 17.9928C15.9218 17.9928 15.2811 18.6335 14.375 18.6335C14.375 18.6335 13.4689 18.6335 12.8282 17.9928C12.8282 17.9928 12.1875 17.3521 12.1875 16.446C12.1875 16.446 12.1875 15.54 12.8282 14.8992C12.8282 14.8992 13.4689 14.2585 14.375 14.2585ZM14.375 15.5085C14.375 15.5085 13.9867 15.5085 13.7121 15.7831C13.7121 15.7831 13.4375 16.0577 13.4375 16.446C13.4375 16.446 13.4375 16.8344 13.7121 17.109C13.7121 17.109 13.9867 17.3835 14.375 17.3835C14.375 17.3835 14.7633 17.3835 15.0379 17.109C15.0379 17.109 15.3125 16.8344 15.3125 16.446C15.3125 16.446 15.3125 16.0577 15.0379 15.7831C15.0379 15.7831 14.7633 15.5085 14.375 15.5085Z" fill="#fcfbf8"/>
  <path d="M16.875 4.88354H3.75C3.40482 4.88354 3.125 5.16337 3.125 5.50854C3.125 5.85372 3.40482 6.13354 3.75 6.13354H16.1257L15.307 10.623C15.2671 10.8463 15.0945 10.9903 15.0945 10.9903C14.922 11.1342 14.6972 11.1335 14.6972 11.1335L4.88281 11.1335C4.53763 11.1335 4.25781 11.4134 4.25781 11.7585C4.25781 12.1037 4.53763 12.3835 4.88281 12.3835L14.6934 12.3835C15.3733 12.3856 15.8953 11.95 15.8953 11.95C16.4174 11.5144 16.5367 10.8472 16.5367 10.8472L17.4899 5.62067C17.4966 5.58368 17.5 5.54615 17.5 5.50854C17.5 5.16337 17.2202 4.88354 16.875 4.88354Z" fill="#fcfbf8"/>
</svg>
