<svg width="14" height="12" viewBox="0 0 14 12" fill="none" xmlns="http://www.w3.org/2000/svg">
<path d="M13.3538 9.14653C13.4002 9.19296 13.4371 9.24811 13.4623 9.30881C13.4874 9.36951 13.5004 9.43457 13.5004 9.50028C13.5004 9.56599 13.4874 9.63105 13.4623 9.69175C13.4371 9.75245 13.4002 9.80759 13.3538 9.85403L11.8538 11.354C11.7599 11.4478 11.6327 11.5006 11.5 11.5006C11.3673 11.5006 11.2401 11.4478 11.1462 11.354C11.0524 11.2602 10.9997 11.133 10.9997 11.0003C10.9997 10.8676 11.0524 10.7403 11.1462 10.6465L11.7931 10.0003H11.0588C10.3426 9.99968 9.63684 9.82844 9.00003 9.50074C8.36322 9.17305 7.81365 8.69832 7.39688 8.1159L4.78937 4.4659C4.46519 4.01294 4.03775 3.64372 3.54246 3.38885C3.04716 3.13398 2.49827 3.00077 1.94125 3.00028H0.5C0.367392 3.00028 0.240215 2.9476 0.146447 2.85383C0.0526784 2.76006 0 2.63289 0 2.50028C0 2.36767 0.0526784 2.24049 0.146447 2.14672C0.240215 2.05296 0.367392 2.00028 0.5 2.00028H1.94125C2.65743 2.00087 3.36316 2.17211 3.99997 2.49981C4.63679 2.82751 5.18635 3.30224 5.60313 3.88465L8.21062 7.53465C8.53481 7.98762 8.96225 8.35683 9.45754 8.61171C9.95284 8.86658 10.5017 8.99978 11.0588 9.00028H11.7931L11.1462 8.35403C11.0524 8.26021 10.9997 8.13296 10.9997 8.00028C10.9997 7.8676 11.0524 7.74035 11.1462 7.64653C11.2401 7.55271 11.3673 7.5 11.5 7.5C11.6327 7.5 11.7599 7.55271 11.8538 7.64653L13.3538 9.14653ZM7.4375 4.68778C7.49093 4.72594 7.55136 4.75321 7.61533 4.76803C7.6793 4.78284 7.74556 4.78491 7.81033 4.77411C7.8751 4.76332 7.9371 4.73987 7.99281 4.70511C8.04852 4.67035 8.09684 4.62496 8.135 4.57153L8.21 4.46715C8.53411 4.01387 8.96159 3.64436 9.45701 3.38926C9.95243 3.13416 10.5015 3.00082 11.0588 3.00028H11.7931L11.1462 3.64653C11.0524 3.74035 10.9997 3.8676 10.9997 4.00028C10.9997 4.13296 11.0524 4.26021 11.1462 4.35403C11.2401 4.44785 11.3673 4.50056 11.5 4.50056C11.6327 4.50056 11.7599 4.44785 11.8538 4.35403L13.3538 2.85403C13.4002 2.80759 13.4371 2.75245 13.4623 2.69175C13.4874 2.63105 13.5004 2.56599 13.5004 2.50028C13.5004 2.43457 13.4874 2.36951 13.4623 2.30881C13.4371 2.24811 13.4002 2.19296 13.3538 2.14653L11.8538 0.646528C11.7599 0.552708 11.6327 0.5 11.5 0.5C11.3673 0.5 11.2401 0.552708 11.1462 0.646528C11.0524 0.740348 10.9997 0.867596 10.9997 1.00028C10.9997 1.13296 11.0524 1.26021 11.1462 1.35403L11.7931 2.00028H11.0588C10.3426 2.00087 9.63684 2.17211 9.00003 2.49981C8.36322 2.82751 7.81365 3.30224 7.39688 3.88465L7.32187 3.98903C7.28348 4.04246 7.25601 4.10295 7.24104 4.16702C7.22607 4.23109 7.2239 4.29749 7.23464 4.3624C7.24538 4.42732 7.26883 4.48948 7.30364 4.54531C7.33845 4.60114 7.38394 4.64956 7.4375 4.68778ZM5.5625 7.31278C5.50907 7.27461 5.44864 7.24734 5.38467 7.23253C5.3207 7.21772 5.25444 7.21565 5.18967 7.22644C5.1249 7.23724 5.06289 7.26068 5.00719 7.29544C4.95148 7.3302 4.90316 7.3756 4.865 7.42903L4.79 7.5334C4.46589 7.98669 4.03841 8.35619 3.54299 8.61129C3.04757 8.86639 2.49849 8.99974 1.94125 9.00028H0.5C0.367392 9.00028 0.240215 9.05296 0.146447 9.14672C0.0526784 9.24049 0 9.36767 0 9.50028C0 9.63289 0.0526784 9.76006 0.146447 9.85383C0.240215 9.9476 0.367392 10.0003 0.5 10.0003H1.94125C2.65743 9.99968 3.36316 9.82844 3.99997 9.50074C4.63679 9.17305 5.18635 8.69832 5.60313 8.1159L5.67812 8.01153C5.71652 7.95809 5.74399 7.89761 5.75896 7.83353C5.77393 7.76946 5.7761 7.70307 5.76536 7.63815C5.75462 7.57324 5.73117 7.51108 5.69636 7.45525C5.66155 7.39941 5.61606 7.351 5.5625 7.31278Z" fill="#262C30"/>
</svg>
