<?xml version="1.0" encoding="UTF-8"?>
<svg id="Capa_2" data-name="Capa 2" xmlns="http://www.w3.org/2000/svg" viewBox="0 0 62.14 50.72">
  <defs>
    <style>
      .cls-1 {
        stroke-width: 0px;
      }
    </style>
  </defs>
  <g id="Capa_1-2" data-name="Capa 1">
    <g>
      <path fill="#13476C" class="cls-1" d="M33.29,48.13c0,.85-.26,1.56-.94,2.08-.94.71-2.08.68-3.03-.11-1.3-1.08-11.56-9.98-15.4-13.32-.22-.19-.46-.2-.72-.2-4.52,0-6.26,0-10.78,0-1.19,0-2.11-.72-2.36-1.84-.07-.34-.07-18.64,0-18.98.24-1.1,1.18-1.84,2.37-1.85,2.26-.01,8.67-.01,11.01,0,.36,0,.63-.11.9-.34,4.97-4.31,9.94-8.61,14.91-12.9C30.03,0,30.92-.21,31.88.24c.97.45,1.41,1.24,1.41,2.31,0,7.61,0,38,0,45.59Z"/>
      <path fill="#13476C" class="cls-1" d="M57.33,25.48c-.06-7.89-2.48-14.97-7.34-21.2-.86-1.11-.85-2.42.05-3.32.84-.85,2.21-.93,3.18-.2.27.21.47.48.67.74,4.14,5.38,6.76,11.41,7.79,18.12.38,2.46.54,4.94.42,7.43-.4,8.37-3.14,15.88-8.29,22.5-.63.81-1.45,1.21-2.49.96-1.02-.24-1.63-.91-1.84-1.94-.14-.74.1-1.39.55-1.96,1.31-1.67,2.46-3.45,3.44-5.34,1.76-3.38,2.93-6.96,3.48-10.74.25-1.68.39-3.36.37-5.06Z"/>
      <path fill="#13476C" class="cls-1" d="M53.52,25.48c-.04,6.54-1.94,12.48-5.75,17.81-1.01,1.42-2.73,1.57-3.84.36-.76-.83-.84-2-.14-2.99.87-1.25,1.69-2.54,2.35-3.92,1.38-2.84,2.23-5.83,2.48-8.98.52-6.4-1.06-12.22-4.83-17.42-1.19-1.64-.28-3.49,1.18-3.88,1-.26,1.95.06,2.62.95.81,1.07,1.52,2.21,2.17,3.39,1.89,3.44,3.06,7.1,3.54,10.99.15,1.22.25,2.46.21,3.7Z"/>
      <path fill="#13476C" class="cls-1" d="M44.37,25.5c-.03,4-1.09,7.71-3.17,11.12-.74,1.21-2.11,1.58-3.29.91-1.14-.65-1.54-2.06-.86-3.26.96-1.68,1.76-3.42,2.15-5.32.87-4.28.21-8.31-2.05-12.06-.54-.91-.74-1.8-.18-2.76.88-1.5,3.03-1.57,4.03-.1,1,1.47,1.73,3.08,2.29,4.77.72,2.17,1.09,4.41,1.08,6.7Z"/>
    </g>
  </g>
</svg>