<svg width="75" height="75" viewBox="0 0 75 75" fill="none" xmlns="http://www.w3.org/2000/svg">
<path d="M10.483 47.9091L12.8864 52.4858L15.3494 47.9091H19.0739L15.2812 54.4545L19.1761 61H15.4688L12.8864 56.4744L10.3466 61H6.59659L10.483 54.4545L6.73295 47.9091H10.483ZM28.7898 43.5455V61H25.0994V47.0483H24.9972L21 49.554V46.2812L25.321 43.5455H28.7898ZM34.157 61.2216C33.5945 61.2216 33.1115 61.0227 32.7081 60.625C32.3104 60.2216 32.1115 59.7386 32.1115 59.1761C32.1115 58.6193 32.3104 58.142 32.7081 57.7443C33.1115 57.3466 33.5945 57.1477 34.157 57.1477C34.7024 57.1477 35.1797 57.3466 35.5888 57.7443C35.9979 58.142 36.2024 58.6193 36.2024 59.1761C36.2024 59.5511 36.1058 59.8949 35.9126 60.2074C35.7251 60.5142 35.478 60.7614 35.1712 60.9489C34.8643 61.1307 34.5263 61.2216 34.157 61.2216ZM39.1491 61V58.3409L45.3622 52.5881C45.8906 52.0767 46.3338 51.6165 46.6918 51.2074C47.0554 50.7983 47.331 50.3977 47.5185 50.0057C47.706 49.608 47.7997 49.179 47.7997 48.7188C47.7997 48.2074 47.6832 47.767 47.4503 47.3977C47.2173 47.0227 46.8991 46.7358 46.4957 46.5369C46.0923 46.3324 45.6349 46.2301 45.1236 46.2301C44.5895 46.2301 44.1236 46.3381 43.7259 46.554C43.3281 46.7699 43.0213 47.0795 42.8054 47.483C42.5895 47.8864 42.4815 48.3665 42.4815 48.9233H38.9787C38.9787 47.7812 39.2372 46.7898 39.7543 45.9489C40.2713 45.108 40.9957 44.4574 41.9276 43.9972C42.8594 43.5369 43.9332 43.3068 45.1491 43.3068C46.3991 43.3068 47.4872 43.5284 48.4134 43.9716C49.3452 44.4091 50.0696 45.017 50.5866 45.7955C51.1037 46.5739 51.3622 47.4659 51.3622 48.4716C51.3622 49.1307 51.2315 49.7812 50.9702 50.4233C50.7145 51.0653 50.2571 51.7784 49.598 52.5625C48.9389 53.3409 48.0099 54.2756 46.8111 55.3665L44.2628 57.8636V57.983H51.5923V61H39.1491ZM60.6413 61.2386C59.4368 61.2386 58.3629 61.017 57.4197 60.5739C56.4822 60.1307 55.7379 59.5199 55.1868 58.7415C54.6357 57.9631 54.3487 57.071 54.326 56.0653H57.9055C57.9453 56.7415 58.2294 57.2898 58.7578 57.7102C59.2862 58.1307 59.9141 58.3409 60.6413 58.3409C61.2209 58.3409 61.7322 58.2131 62.1754 57.9574C62.6243 57.696 62.9737 57.3352 63.2237 56.875C63.4794 56.4091 63.6072 55.875 63.6072 55.2727C63.6072 54.6591 63.4766 54.1193 63.2152 53.6534C62.9595 53.1875 62.6044 52.8239 62.1499 52.5625C61.6953 52.3011 61.1754 52.1676 60.5902 52.1619C60.0788 52.1619 59.5817 52.267 59.0987 52.4773C58.6214 52.6875 58.2493 52.9744 57.9822 53.3381L54.701 52.75L55.5277 43.5455H66.1982V46.5625H58.5703L58.1186 50.9347H58.2209C58.5277 50.5028 58.9908 50.1449 59.6101 49.8608C60.2294 49.5767 60.9226 49.4347 61.6896 49.4347C62.7408 49.4347 63.6783 49.6818 64.5021 50.1761C65.326 50.6705 65.9766 51.3494 66.4538 52.2131C66.9311 53.071 67.1669 54.0597 67.1612 55.179C67.1669 56.3551 66.8942 57.4006 66.343 58.3153C65.7976 59.2244 65.0334 59.9403 64.0504 60.4631C63.0732 60.9801 61.9368 61.2386 60.6413 61.2386Z" fill="white"/>
<path d="M37.875 27C38.6718 26.999 39.4518 27.2287 40.1208 27.6614C40.7898 28.0942 41.3191 28.7114 41.6449 29.4385C41.9707 30.1656 42.0789 30.9715 41.9564 31.7588C41.834 32.5461 41.4862 33.2811 40.955 33.875" stroke="white" stroke-width="2.40625" stroke-linecap="round" stroke-linejoin="round"/>
<path d="M44.75 21.5H44.7638" stroke="white" stroke-width="2.40625" stroke-linecap="round" stroke-linejoin="round"/>
<path d="M44.75 33.8757H33.75C32.2913 33.8757 30.8924 33.2962 29.8609 32.2648C28.8295 31.2333 28.25 29.8344 28.25 28.3757C28.25 25.823 29.2641 23.3748 31.0691 21.5698C32.8741 19.7647 35.3223 18.7507 37.875 18.7507H38.15L33.2 13.8007C32.9472 13.5479 32.7467 13.2478 32.6099 12.9175C32.4731 12.5872 32.4026 12.2332 32.4026 11.8757C32.4026 11.1537 32.6895 10.4612 33.2 9.95068C33.7105 9.44014 34.403 9.15332 35.125 9.15332C35.4825 9.15332 35.8365 9.22374 36.1668 9.36055C36.4971 9.49736 36.7972 9.69789 37.05 9.95068L41.725 14.6257H42C46.5375 14.6257 50.25 18.3382 50.25 22.8757V24.2507C50.25 24.98 49.9603 25.6795 49.4445 26.1952C48.9288 26.7109 48.2293 27.0007 47.5 27.0007H46.125C45.031 27.0007 43.9818 27.4353 43.2082 28.2089C42.4346 28.9825 42 30.0317 42 31.1257" stroke="white" stroke-width="2.40625" stroke-linecap="round" stroke-linejoin="round"/>
<path d="M47.5 16.7425V10.5C47.5 9.77065 47.2103 9.07118 46.6945 8.55546C46.1788 8.03973 45.4793 7.75 44.75 7.75C44.0207 7.75 43.3212 8.03973 42.8055 8.55546C42.2897 9.07118 42 9.77065 42 10.5V14.625" stroke="white" stroke-width="2.40625" stroke-linecap="round" stroke-linejoin="round"/>
<path d="M30.4664 22.2208C30.0797 21.5365 29.5056 20.9769 28.8117 20.6079C28.1177 20.2389 27.3328 20.0758 26.5493 20.1379C25.7658 20.1999 25.0163 20.4846 24.3891 20.9582C23.7619 21.4319 23.2831 22.0749 23.009 22.8115C22.7349 23.5481 22.6769 24.3477 22.842 25.1161C23.007 25.8846 23.3881 26.5899 23.9405 27.149C24.4929 27.7081 25.1935 28.0978 25.9598 28.2722C26.7262 28.4466 27.5265 28.3984 28.2664 28.1333" stroke="white" stroke-width="2.40625" stroke-linecap="round" stroke-linejoin="round"/>
</svg>
