<svg width="12" height="12" viewBox="0 0 12 12" fill="none" xmlns="http://www.w3.org/2000/svg">
<g id="Star">
<path id="Vector" d="M11.2124 4.56038C11.167 4.4204 11.0814 4.29688 10.9663 4.20519C10.8512 4.11351 10.7117 4.05771 10.5651 4.04475L7.78116 3.80475L6.68991 1.20975C6.6331 1.07359 6.53727 0.957276 6.41448 0.875465C6.2917 0.793654 6.14746 0.75 5.99991 0.75C5.85237 0.75 5.70813 0.793654 5.58534 0.875465C5.46256 0.957276 5.36673 1.07359 5.30991 1.20975L4.22194 3.80475L1.43476 4.04616C1.28759 4.05852 1.14734 4.11407 1.03161 4.20582C0.915882 4.29757 0.829818 4.42145 0.784212 4.56193C0.738606 4.7024 0.735489 4.85321 0.775251 4.99544C0.815014 5.13768 0.895886 5.26501 1.00773 5.36147L3.12226 7.20928L2.48851 9.95334C2.455 10.0969 2.46456 10.2472 2.516 10.3854C2.56744 10.5236 2.65847 10.6436 2.77772 10.7303C2.89697 10.8171 3.03914 10.8667 3.18646 10.8731C3.33378 10.8795 3.47971 10.8423 3.60601 10.7662L5.99663 9.31303L8.39241 10.7662C8.51871 10.8423 8.66464 10.8795 8.81196 10.8731C8.95928 10.8667 9.10145 10.8171 9.2207 10.7303C9.33995 10.6436 9.43098 10.5236 9.48242 10.3854C9.53386 10.2472 9.54342 10.0969 9.50991 9.95334L8.87663 7.20647L10.9907 5.36147C11.1025 5.26468 11.1832 5.13699 11.2227 4.99445C11.2621 4.85191 11.2586 4.70089 11.2124 4.56038ZM10.499 4.79475L8.38491 6.63975C8.28202 6.72925 8.20548 6.84511 8.16352 6.97486C8.12157 7.10462 8.11578 7.24336 8.14679 7.37616L8.78194 10.1249L6.38804 8.67178C6.27124 8.60066 6.13713 8.56303 6.00038 8.56303C5.86363 8.56303 5.72952 8.60066 5.61273 8.67178L3.2221 10.1249L3.85304 7.37803C3.88405 7.24523 3.87826 7.10649 3.8363 6.97674C3.79434 6.84698 3.7178 6.73113 3.61491 6.64163L1.49991 4.79756C1.49974 4.79616 1.49974 4.79475 1.49991 4.79334L4.28616 4.55241C4.4222 4.54042 4.55237 4.49151 4.66265 4.41097C4.77293 4.33043 4.85913 4.22131 4.91194 4.09538L5.99991 1.50366L7.08741 4.09538C7.14023 4.22131 7.22643 4.33043 7.33671 4.41097C7.44699 4.49151 7.57716 4.54042 7.71319 4.55241L10.4999 4.79334C10.4999 4.79334 10.4999 4.79616 10.4999 4.79663L10.499 4.79475Z" fill="#C359AC"/>
</g>
</svg>
