<svg xmlns="http://www.w3.org/2000/svg" width="20" height="21" viewBox="0 0 20 21" fill="none">
  <path d="M18.6877 7.97656C18.6095 7.73045 18.4587 7.51372 18.2552 7.35479C18.0516 7.19586 17.8048 7.10215 17.5471 7.08594L12.9065 6.76562L11.1877 2.42969C11.0939 2.19094 10.9305 1.98586 10.7188 1.841C10.5071 1.69614 10.2567 1.61817 10.0002 1.61719C9.74368 1.61817 9.49336 1.69614 9.28164 1.841C9.06992 1.98586 8.90656 2.19094 8.81271 2.42969L7.06271 6.78906L2.45334 7.08594C2.19592 7.1032 1.9496 7.19731 1.74625 7.35609C1.5429 7.51487 1.39188 7.73101 1.31271 7.97656C1.23141 8.22588 1.22666 8.49383 1.29907 8.74587C1.37148 8.99791 1.51773 9.22248 1.71896 9.39062L5.26584 12.3906L4.21115 16.5391C4.13818 16.8197 4.15131 17.1158 4.24884 17.3889C4.34637 17.662 4.52378 17.8994 4.75802 18.0703C4.98539 18.2335 5.25628 18.3251 5.53602 18.3335C5.81577 18.3418 6.09164 18.2665 6.32834 18.1172L9.9924 15.7969H10.008L13.9533 18.2891C14.1557 18.4206 14.3917 18.4911 14.633 18.4922C14.8301 18.4906 15.0242 18.4439 15.2004 18.3556C15.3766 18.2673 15.5302 18.1398 15.6494 17.9829C15.7686 17.826 15.8502 17.6438 15.888 17.4504C15.9258 17.257 15.9188 17.0575 15.8674 16.8672L14.7502 12.3281L18.2815 9.39062C18.4827 9.22248 18.6289 8.99791 18.7014 8.74587C18.7738 8.49383 18.769 8.22588 18.6877 7.97656Z" fill="#13476C"/>
</svg>
