<svg xmlns="http://www.w3.org/2000/svg" width="20" height="21" viewBox="0 0 20 21" fill="none">
  <path fill-rule="evenodd" clip-rule="evenodd" d="M10.0084 15.793C10.0084 15.793 10.0046 15.7906 10.0001 15.7906C10.0001 15.7906 9.99551 15.7906 9.99167 15.793L6.32662 18.114C6.32662 18.114 5.93675 18.3621 5.48655 18.3307C5.48655 18.3307 5.07226 18.3017 4.73511 18.0454C4.73511 18.0454 4.40217 17.7923 4.25729 17.4029C4.25729 17.4029 4.1015 16.984 4.21483 16.5406L5.26925 12.3854C5.26925 12.3854 5.27225 12.3733 5.26731 12.3583C5.26731 12.3583 5.26237 12.3433 5.25022 12.3333L1.71692 9.38623C1.71692 9.38623 1.39728 9.12077 1.29241 8.72272C1.29241 8.72272 1.19657 8.35896 1.30925 7.9949C1.30925 7.9949 1.42319 7.62679 1.71159 7.38303C1.71159 7.38303 2.02905 7.11472 2.45174 7.08727L7.06144 6.79037C7.06144 6.79037 7.07228 6.78973 7.07789 6.78558C7.07789 6.78558 7.0835 6.78143 7.08593 6.77489L7.09105 6.76153L8.80694 2.44062C8.80694 2.44062 8.94489 2.07004 9.26954 1.84267C9.26954 1.84267 9.59847 1.6123 10.0001 1.6123C10.0001 1.6123 10.4016 1.6123 10.7306 1.84267C10.7306 1.84267 11.0552 2.07004 11.1932 2.44062L12.9091 6.76153L12.9142 6.77489C12.9142 6.77489 12.9166 6.78143 12.9222 6.78558C12.9222 6.78558 12.9278 6.78973 12.9348 6.79014L17.548 7.08725C17.548 7.08725 17.9711 7.11472 18.2885 7.38303C18.2885 7.38303 18.5769 7.62679 18.6909 7.9949C18.6909 7.9949 18.8035 8.35896 18.7077 8.72273C18.7077 8.72273 18.6028 9.12077 18.2822 9.38707L14.7519 12.3315C14.7519 12.3315 14.7377 12.3433 14.7328 12.3583C14.7328 12.3583 14.7279 12.3733 14.7317 12.3886L15.8714 16.8694C15.8714 16.8694 15.9732 17.2712 15.8313 17.6506C15.8313 17.6506 15.6992 18.0037 15.3969 18.2326C15.3969 18.2326 15.0904 18.4648 14.7131 18.4907C14.7131 18.4907 14.304 18.5189 13.9479 18.2943L10.0084 15.793ZM14.6147 17.237L10.6793 14.7383C10.6793 14.7383 10.3682 14.5406 10.0001 14.5406C10.0001 14.5406 9.63174 14.5406 9.32094 14.7382L5.65786 17.0579C5.65786 17.0579 5.5728 17.1121 5.49156 17.0503C5.49156 17.0503 5.39374 16.9759 5.42591 16.8501L6.48085 12.6928C6.48085 12.6928 6.57227 12.3244 6.45451 11.967C6.45451 11.967 6.33674 11.6097 6.04676 11.3699L2.51756 8.42631C2.51756 8.42631 2.49105 8.40428 2.50336 8.36451C2.50336 8.36451 2.51219 8.33598 2.53274 8.33464L7.14179 8.03779C7.14179 8.03779 7.51644 8.016 7.82127 7.79051C7.82127 7.79051 8.12278 7.56748 8.25504 7.21724L9.97155 2.89475L9.97803 2.87773C9.97803 2.87773 9.98055 2.87079 9.98661 2.86654C9.98661 2.86654 9.99266 2.8623 10.0001 2.8623C10.0001 2.8623 10.0074 2.8623 10.0135 2.86654C10.0135 2.86654 10.0196 2.87079 10.0221 2.87773L10.0286 2.89475L11.7451 7.21724C11.7451 7.21724 11.8773 7.56748 12.1788 7.79051C12.1788 7.79051 12.4837 8.016 12.8622 8.03803L17.4677 8.33466C17.4677 8.33466 17.4879 8.33598 17.4967 8.36451C17.4967 8.36451 17.5091 8.40428 17.4836 8.42546L13.9513 11.3716C13.9513 11.3716 13.6634 11.6097 13.5456 11.967C13.5456 11.967 13.4278 12.3244 13.5184 12.6896L14.66 17.1775C14.66 17.1775 14.6696 17.2155 14.6423 17.2361C14.6423 17.2361 14.6291 17.2461 14.6147 17.237Z" fill="#FCFBF8"/>
</svg>
