<svg width="104" height="100" viewBox="0 0 104 100" fill="none" xmlns="http://www.w3.org/2000/svg">
<path d="M82.8605 90.3841C82.2596 91.4249 81.2699 92.1843 80.1091 92.4954C78.9483 92.8064 77.7114 92.6436 76.6707 92.0427L45.2773 73.9177C44.2365 73.3168 43.4771 72.3271 43.166 71.1663C42.855 70.0055 43.0178 68.7686 43.6187 67.7279C44.2196 66.6871 45.2093 65.9277 46.3701 65.6167C47.5309 65.3056 48.7678 65.4684 49.8085 66.0693L81.2019 84.1943C82.2427 84.7952 83.0021 85.7849 83.3132 86.9457C83.6242 88.1066 83.4614 89.3434 82.8605 90.3841ZM90.2644 68.4976L58.871 50.3726C57.8303 49.7717 56.5934 49.6089 55.4326 49.9199C54.2718 50.231 53.2821 50.9904 52.6812 52.0312C52.0803 53.0719 51.9175 54.3088 52.2285 55.4696C52.5396 56.6304 53.299 57.6201 54.3398 58.221L85.7332 76.346C86.7739 76.9469 88.0108 77.1097 89.1716 76.7987C90.3324 76.4876 91.3221 75.7282 91.923 74.6874C92.5239 73.6467 92.6867 72.4098 92.3757 71.249C92.0646 70.0882 91.3052 69.0985 90.2644 68.4976ZM135.859 52.9636L88.2806 135.371C87.0788 137.453 85.0994 138.972 82.7777 139.594C80.4561 140.216 77.9825 139.89 75.901 138.688L5.26576 97.9072C3.18425 96.7054 1.66538 94.726 1.04331 92.4044C0.421226 90.0827 0.746891 87.6091 1.94865 85.5276L49.5268 3.11983C50.7285 1.03831 52.708 -0.480547 55.0296 -1.10263C57.3512 -1.7247 59.8249 -1.39904 61.9064 -0.197277L79.6927 10.0717C83.3229 8.876 87.1647 8.46051 90.9666 8.85238C94.7685 9.24426 98.4448 10.4347 101.755 12.3457C105.065 14.2567 107.934 16.8453 110.174 19.9419C112.415 23.0385 113.976 26.5733 114.755 30.315L132.542 40.584C134.623 41.7857 136.142 43.7652 136.764 46.0868C137.386 48.4084 137.06 50.8821 135.859 52.9636ZM72.4648 26.8276L103.858 44.9526C106.262 40.7895 106.913 35.8422 105.669 31.199C104.425 26.5557 101.387 22.5969 97.224 20.1933C93.061 17.7898 88.1136 17.1385 83.4704 18.3827C78.8271 19.6268 74.8683 22.6645 72.4648 26.8276ZM128.01 48.4323L114.889 40.8566C114.326 43.8924 113.25 46.81 111.707 49.4838L109.441 53.408C108.84 54.4487 107.85 55.2082 106.69 55.5192C105.529 55.8303 104.292 55.6674 103.251 55.0665L64.0093 32.4103C62.9686 31.8094 62.2092 30.8197 61.8981 29.6589C61.5871 28.4981 61.7499 27.2612 62.3508 26.2205L64.6164 22.2963C66.1602 19.6226 68.1488 17.2318 70.4966 15.2268L57.3751 7.65108L9.79701 90.0588L80.4322 130.84L128.01 48.4323Z" fill="#FCFBF8"/>
</svg>
