<svg width="11" height="11" viewBox="0 0 11 11" fill="none" xmlns="http://www.w3.org/2000/svg">
<path d="M10.4052 4.875L5.75 0.219847C5.68061 0.1499 5.59801 0.0944445 5.507 0.0567034C5.41598 0.0189623 5.31838 -0.000310987 5.21985 3.79451e-06H0.875004C0.775548 3.79451e-06 0.680165 0.0395127 0.609839 0.109839C0.539513 0.180165 0.500004 0.275548 0.500004 0.375004V4.71985C0.499689 4.81838 0.518962 4.91598 0.556703 5.007C0.594444 5.09801 0.6499 5.18061 0.719847 5.25L5.375 9.90516C5.44465 9.97482 5.52734 10.0301 5.61834 10.0678C5.70935 10.1055 5.80689 10.1249 5.90539 10.1249C6.0039 10.1249 6.10144 10.1055 6.19245 10.0678C6.28345 10.0301 6.36614 9.97482 6.43579 9.90516L10.4052 5.93579C10.4748 5.86614 10.5301 5.78345 10.5678 5.69245C10.6055 5.60144 10.6249 5.5039 10.6249 5.40539C10.6249 5.30689 10.6055 5.20935 10.5678 5.11834C10.5301 5.02734 10.4748 4.94465 10.4052 4.875ZM5.90516 9.375L1.25 4.71985V0.750004H5.21985L9.875 5.40516L5.90516 9.375ZM3.5 2.4375C3.5 2.54876 3.46701 2.65751 3.40521 2.75001C3.3434 2.84251 3.25555 2.91461 3.15276 2.95719C3.04998 2.99976 2.93688 3.0109 2.82777 2.9892C2.71865 2.96749 2.61842 2.91392 2.53976 2.83525C2.46109 2.75658 2.40752 2.65636 2.38581 2.54724C2.36411 2.43813 2.37525 2.32503 2.41782 2.22224C2.4604 2.11946 2.53249 2.03161 2.625 1.9698C2.7175 1.90799 2.82625 1.875 2.9375 1.875C3.08669 1.875 3.22976 1.93427 3.33525 2.03976C3.44074 2.14525 3.5 2.28832 3.5 2.4375Z" fill="#C359AC"/>
</svg>
