<svg width="20" height="20" viewBox="0 0 20 20" fill="none" xmlns="http://www.w3.org/2000/svg">
<path d="M7.89834 16.0233L7.89832 16.0234C7.84608 16.0757 7.78404 16.1172 7.71575 16.1455C7.64747 16.1738 7.57427 16.1883 7.50035 16.1883C7.42643 16.1883 7.35323 16.1738 7.28494 16.1455C7.21666 16.1172 7.15462 16.0757 7.10238 16.0234L7.10235 16.0233L2.72735 11.6483C2.6218 11.5428 2.5625 11.3996 2.5625 11.2503C2.5625 11.1011 2.6218 10.9579 2.72735 10.8524C2.83291 10.7468 2.97607 10.6875 3.12535 10.6875C3.27462 10.6875 3.41778 10.7468 3.52334 10.8523C3.52334 10.8524 3.52334 10.8524 3.52334 10.8524L7.45615 14.7859L7.50035 14.8301L7.54454 14.7859L17.1024 5.22735C17.2079 5.1218 17.3511 5.0625 17.5003 5.0625C17.6496 5.0625 17.7928 5.1218 17.8983 5.22735C18.0039 5.33291 18.0632 5.47607 18.0632 5.62535C18.0632 5.77462 18.0039 5.91779 17.8983 6.02334L7.89834 16.0233Z" fill="#F2C2C3" stroke="#F2C2C3" stroke-width="0.125"/>
</svg>
