<svg xmlns="http://www.w3.org/2000/svg" width="12" height="13" viewBox="0 0 12 13" fill="none">
  <path d="M9.89825 9.71375L6.54153 6.5L9.89825 3.28625C9.90016 3.2841 9.90219 3.28207 9.90434 3.28016C10.0092 3.17527 10.0805 3.04166 10.1094 2.89622C10.1384 2.75078 10.1235 2.60004 10.0668 2.46303C10.01 2.32603 9.91395 2.20892 9.79068 2.12651C9.66741 2.04409 9.52247 2.00007 9.37419 2H2.62418C2.47594 2.00016 2.33107 2.04425 2.20787 2.1267C2.08466 2.20915 1.98866 2.32627 1.93198 2.46325C1.8753 2.60023 1.86049 2.75094 1.88942 2.89634C1.91834 3.04173 1.98971 3.1753 2.0945 3.28016L2.10012 3.28625L5.45684 6.5L2.10012 9.71375L2.0945 9.71984C1.98971 9.8247 1.91834 9.95827 1.88942 10.1037C1.86049 10.2491 1.8753 10.3998 1.93198 10.5367C1.98866 10.6737 2.08466 10.7908 2.20787 10.8733C2.33107 10.9557 2.47594 10.9998 2.62418 11H9.37419C9.52251 11 9.66751 10.9561 9.79086 10.8737C9.9142 10.7913 10.0104 10.6742 10.0671 10.5372C10.1239 10.4002 10.1388 10.2494 10.1099 10.1039C10.081 9.95841 10.0097 9.82476 9.90481 9.71984C9.9025 9.71795 9.90031 9.71591 9.89825 9.71375ZM4.58309 4.625H7.41528L5.99919 5.98062L4.58309 4.625ZM9.37419 2.75L8.19856 3.875H3.79981L2.62418 2.75H9.37419ZM2.62418 10.25L5.62418 7.37844V8.375C5.62418 8.47446 5.66369 8.56984 5.73402 8.64017C5.80435 8.71049 5.89973 8.75 5.99919 8.75C6.09864 8.75 6.19402 8.71049 6.26435 8.64017C6.33468 8.56984 6.37419 8.47446 6.37419 8.375V7.37844L9.37419 10.25H2.62418Z" fill="#C359AC"/>
</svg>
