<svg xmlns="http://www.w3.org/2000/svg" width="20" height="21" viewBox="0 0 20 21" fill="none">
  <path d="M16.875 4.25H3.125C2.77982 4.25 2.5 4.52982 2.5 4.875C2.5 5.22018 2.77982 5.5 3.125 5.5H16.875C17.2202 5.5 17.5 5.22018 17.5 4.875C17.5 4.52982 17.2202 4.25 16.875 4.25Z" fill="#F2C2C3"/>
  <path d="M7.5 8.625V13.625C7.5 13.9702 7.77982 14.25 8.125 14.25C8.47018 14.25 8.75 13.9702 8.75 13.625V8.625C8.75 8.27982 8.47018 8 8.125 8C7.77982 8 7.5 8.27982 7.5 8.625Z" fill="#F2C2C3"/>
  <path d="M11.25 8.625V13.625C11.25 13.9702 11.5298 14.25 11.875 14.25C12.2202 14.25 12.5 13.9702 12.5 13.625V8.625C12.5 8.27982 12.2202 8 11.875 8C11.5298 8 11.25 8.27982 11.25 8.625Z" fill="#F2C2C3"/>
  <path d="M5 16.75V4.875C5 4.52982 4.72018 4.25 4.375 4.25C4.02982 4.25 3.75 4.52982 3.75 4.875V16.75C3.75 17.2678 4.11612 17.6339 4.11612 17.6339C4.48223 18 5 18 5 18H15C15.5178 18 15.8839 17.6339 15.8839 17.6339C16.25 17.2678 16.25 16.75 16.25 16.75V4.875C16.25 4.52982 15.9702 4.25 15.625 4.25C15.2798 4.25 15 4.52982 15 4.875V16.75H5Z" fill="#F2C2C3"/>
  <path d="M6.79918 2.29917C6.25 2.84835 6.25 3.625 6.25 3.625V4.875C6.25 5.22018 6.52982 5.5 6.875 5.5C7.22018 5.5 7.5 5.22018 7.5 4.875V3.625C7.5 3.36612 7.68306 3.18306 7.68306 3.18306C7.86612 3 8.125 3 8.125 3H11.875C12.1339 3 12.3169 3.18306 12.3169 3.18306C12.5 3.36612 12.5 3.625 12.5 3.625V4.875C12.5 5.22018 12.7798 5.5 13.125 5.5C13.4702 5.5 13.75 5.22018 13.75 4.875V3.625C13.75 2.84835 13.2008 2.29917 13.2008 2.29917C12.6517 1.75 11.875 1.75 11.875 1.75H8.125C7.34835 1.75 6.79918 2.29917 6.79918 2.29917Z" fill="#F2C2C3"/>
</svg>
