<svg width="75" height="75" viewBox="0 0 75 75" fill="none" xmlns="http://www.w3.org/2000/svg">
<path d="M45.3066 7.79736C45.0111 7.65261 44.6809 7.59372 44.3536 7.62739C44.0263 7.66105 43.715 7.78592 43.4551 7.98779L22.8359 24.0249L9.37695 24.0249C8.28915 24.0249 7.2459 24.457 6.47671 25.2262C5.70752 25.9954 5.27539 27.0387 5.27539 28.1265L5.27539 46.8765C5.27539 47.9643 5.70752 49.0075 6.47671 49.7767C7.2459 50.5459 8.28915 50.978 9.37695 50.978H22.8359L43.4551 67.0151C43.7149 67.2169 44.0262 67.3417 44.3534 67.3754C44.6807 67.409 45.0108 67.3501 45.3063 67.2055C45.6017 67.0608 45.8506 66.8361 46.0247 66.557C46.1988 66.2778 46.2911 65.9554 46.291 65.6265L46.291 9.37646C46.2911 9.04751 46.1989 8.72513 46.0249 8.44597C45.8509 8.16682 45.602 7.9421 45.3066 7.79736ZM42.7754 62.0317L24.5176 47.8315C24.2092 47.5922 23.8299 47.4623 23.4395 47.4624H9.37695C9.22155 47.4624 9.07252 47.4007 8.96263 47.2908C8.85275 47.1809 8.79102 47.0319 8.79102 46.8765L8.79102 28.1265C8.79102 27.9711 8.85275 27.822 8.96263 27.7121C9.07252 27.6023 9.22155 27.5405 9.37695 27.5405L23.4395 27.5405C23.8299 27.5406 24.2092 27.4107 24.5176 27.1714L42.7754 12.9712L42.7754 62.0317ZM58.0098 30.4702L58.0098 44.5327C58.0098 44.9989 57.8246 45.446 57.4949 45.7757C57.1653 46.1053 56.7182 46.2905 56.252 46.2905C55.7858 46.2905 55.3386 46.1053 55.009 45.7757C54.6793 45.446 54.4941 44.9989 54.4941 44.5327L54.4941 30.4702C54.4941 30.004 54.6793 29.5569 55.009 29.2272C55.3386 28.8976 55.7858 28.7124 56.252 28.7124C56.7182 28.7124 57.1653 28.8976 57.4949 29.2272C57.8246 29.5569 58.0098 30.004 58.0098 30.4702ZM67.3848 25.7827V49.2202C67.3848 49.6864 67.1996 50.1335 66.8699 50.4632C66.5403 50.7928 66.0932 50.978 65.627 50.978C65.1608 50.978 64.7136 50.7928 64.384 50.4632C64.0543 50.1335 63.8691 49.6864 63.8691 49.2202L63.8691 25.7827C63.8691 25.3165 64.0543 24.8694 64.384 24.5397C64.7136 24.2101 65.1608 24.0249 65.627 24.0249C66.0932 24.0249 66.5403 24.2101 66.8699 24.5397C67.1996 24.8694 67.3848 25.3165 67.3848 25.7827Z" fill="#FCFBF8"/>
</svg>
