<svg width="75" height="75" viewBox="0 0 75 75" fill="none" xmlns="http://www.w3.org/2000/svg">
<path d="M45.3066 7.79638C45.0111 7.65164 44.6809 7.59275 44.3536 7.62641C44.0263 7.66008 43.715 7.78495 43.4551 7.98681L22.8359 24.0239L9.37695 24.0239C8.28915 24.0239 7.2459 24.456 6.47671 25.2252C5.70752 25.9944 5.27539 27.0377 5.27539 28.1255L5.27539 46.8755C5.27539 47.9633 5.70752 49.0065 6.47671 49.7757C7.2459 50.5449 8.28915 50.977 9.37695 50.977H22.8359L43.4551 67.0142C43.7149 67.2159 44.0262 67.3407 44.3534 67.3744C44.6807 67.408 45.0108 67.3492 45.3063 67.2045C45.6017 67.0598 45.8506 66.8351 46.0247 66.556C46.1988 66.2769 46.2911 65.9545 46.291 65.6255L46.291 9.37548C46.2911 9.04653 46.1989 8.72415 46.0249 8.445C45.8509 8.16584 45.602 7.94112 45.3066 7.79638ZM42.7754 62.0308L24.5176 47.8306C24.2092 47.5912 23.8299 47.4613 23.4395 47.4614H9.37695C9.22155 47.4614 9.07252 47.3997 8.96263 47.2898C8.85275 47.1799 8.79102 47.0309 8.79102 46.8755L8.79102 28.1255C8.79102 27.9701 8.85275 27.821 8.96263 27.7112C9.07252 27.6013 9.22155 27.5395 9.37695 27.5395L23.4395 27.5395C23.8299 27.5396 24.2092 27.4098 24.5176 27.1704L42.7754 12.9702L42.7754 62.0308ZM58.0098 30.4692L58.0098 44.5317C58.0098 44.9979 57.8246 45.445 57.4949 45.7747C57.1653 46.1043 56.7182 46.2895 56.252 46.2895C55.7858 46.2895 55.3386 46.1043 55.009 45.7747C54.6793 45.445 54.4941 44.9979 54.4941 44.5317L54.4941 30.4692C54.4941 30.003 54.6793 29.5559 55.009 29.2263C55.3386 28.8966 55.7858 28.7114 56.252 28.7114C56.7182 28.7114 57.1653 28.8966 57.4949 29.2263C57.8246 29.5559 58.0098 30.003 58.0098 30.4692ZM67.3848 25.7817V49.2192C67.3848 49.6854 67.1996 50.1325 66.8699 50.4622C66.5403 50.7918 66.0932 50.977 65.627 50.977C65.1608 50.977 64.7136 50.7918 64.384 50.4622C64.0543 50.1325 63.8691 49.6854 63.8691 49.2192L63.8691 25.7817C63.8691 25.3155 64.0543 24.8684 64.384 24.5388C64.7136 24.2091 65.1608 24.0239 65.627 24.0239C66.0932 24.0239 66.5403 24.2091 66.8699 24.5388C67.1996 24.8684 67.3848 25.3155 67.3848 25.7817Z" fill="#FCFBF8"/>
</svg>
