<?xml version="1.0" standalone="no"?>
<!DOCTYPE svg PUBLIC "-//W3C//DTD SVG 20010904//EN"
 "http://www.w3.org/TR/2001/REC-SVG-20010904/DTD/svg10.dtd">
<svg version="1.0" xmlns="http://www.w3.org/2000/svg"
 width="128.000000pt" height="128.000000pt" viewBox="0 0 128.000000 128.000000"
 preserveAspectRatio="xMidYMid meet">

<g transform="translate(0.000000,128.000000) scale(0.100000,-0.100000)"
fill="#13476c" stroke="#13476c">
<path d="M545 1150 c-274 -59 -459 -316 -418 -578 38 -240 205 -407 445 -445
315 -50 613 233 584 554 -19 208 -148 375 -346 447 -71 26 -199 37 -265 22z
m255 -98 c71 -28 145 -84 192 -147 118 -155 116 -378 -5 -539 -13 -17 -16 -16
-64 32 -28 28 -69 60 -93 72 l-42 22 25 26 c45 48 61 92 61 162 0 137 -96 234
-234 234 -138 0 -234 -97 -234 -234 0 -70 16 -114 61 -162 l25 -26 -42 -22
c-24 -12 -65 -44 -92 -71 -27 -27 -51 -49 -52 -49 -2 0 -18 21 -34 48 -158
248 -44 571 236 663 77 26 214 21 292 -9z m-79 -235 c106 -71 106 -203 0 -274
-98 -66 -241 15 -241 137 0 122 143 203 241 137z m62 -411 c30 -14 72 -45 93
-68 l37 -41 -29 -24 c-60 -48 -130 -68 -244 -67 -114 0 -186 20 -245 68 l-30
24 51 50 c71 69 136 93 235 89 58 -3 90 -10 132 -31z"/>
</g>
</svg>
