<svg width="109" height="100" viewBox="0 0 109 100" fill="none" xmlns="http://www.w3.org/2000/svg">
<path d="M99.3298 66.4878L84.8472 37.1974C84.4838 36.4617 83.9274 35.8385 83.2375 35.3943C82.5476 34.9502 81.75 34.7017 80.9298 34.6754C80.1097 34.649 79.2979 34.8459 78.5809 35.245C77.8639 35.6441 77.2688 36.2303 76.859 36.9412L58.734 68.3346C58.3232 69.045 58.1131 69.8535 58.126 70.6739C58.1389 71.4944 58.3743 72.2959 58.8071 72.993C59.24 73.6901 59.854 74.2566 60.5836 74.632C61.3132 75.0074 62.1311 75.1777 62.9499 75.1245L95.5575 73.0216C96.3026 72.9741 97.0244 72.7433 97.6588 72.3497C98.2931 71.956 98.8204 71.4117 99.1937 70.7651C99.567 70.1186 99.7748 69.3898 99.7985 68.6435C99.8222 67.8973 99.6612 67.1568 99.3298 66.4878ZM70.8162 65.5326L80.4593 48.8303L88.1924 64.4135L70.8162 65.5326ZM143.126 49.0391L56.7937 -0.804688C54.7122 -2.00645 52.2385 -2.33211 49.9169 -1.71004C47.5952 -1.08796 45.6158 0.430904 44.4141 2.51242L12.6953 57.4509C11.4935 59.5324 11.1679 62.0061 11.79 64.3277C12.412 66.6493 13.9309 68.6287 16.0124 69.8305L102.344 119.674C104.426 120.876 106.899 121.202 109.221 120.58C111.543 119.958 113.522 118.439 114.724 116.357L146.443 61.4187C147.644 59.3372 147.97 56.8635 147.348 54.5419C146.726 52.2202 145.207 50.2408 143.126 49.0391ZM106.876 111.826L20.5437 61.9822L52.2624 7.04367L138.594 56.8874L106.876 111.826ZM103.396 135.978C102.795 137.019 101.805 137.778 100.644 138.089C99.4836 138.4 98.2468 138.237 97.206 137.637L3.02574 83.2616C1.98498 82.6607 1.22555 81.671 0.914513 80.5102C0.603472 79.3494 0.766308 78.1125 1.36719 77.0718C1.96807 76.031 2.95778 75.2716 4.11859 74.9606C5.27941 74.6495 6.51623 74.8124 7.55699 75.4132L101.737 129.788C102.778 130.389 103.537 131.379 103.848 132.54C104.16 133.7 103.997 134.937 103.396 135.978Z" fill="#fcfbf8"/>
</svg>
