<svg width="500" height="210" xmlns="http://www.w3.org/2000/svg">
 <g id="Layer_1">
  <title>Layer 1</title>
  <g id="svg_2">
   <g id="svg_3" class="layer">
    <title>Layer 1</title>
    <path d="m9.86714,8.04712c-4.02792,0.20999 -8.19735,1.79001 -11.42743,3.51999c-0.47614,1.06 0,2.47 -0.29596,3.58002c-0.55334,2.09997 0.66916,4.50998 0.66916,6.66l0,11.03c0,4.84 -0.18014,173.30999 0.06437,178.14001c0.10294,2.04004 -0.32172,3.66998 2.6252,3.66998l152.57209,0l218.22855,0l110.67139,0c6.78186,0 10.6554,-0.70996 17.4371,-1.03998c-1.23535,-0.41998 -0.52753,-3.90002 -0.52753,-4.90002l0,-183.00001l0,-11.76001c0,-1.73999 0.96518,-5.39001 -0.55325,-6.94c-1.11975,-1.13999 -2.98566,-2.16 -4.52985,-2.97c-5.25064,-2.76999 -9.32983,-1.09 -14.83771,0.19c-6.42145,1.48999 -13.29355,2.35001 -20.03677,1.94c-4.6456,-0.28 -8.46759,-2.48001 -12.75284,-3.64001c-2.93417,-0.79999 -6.39587,-2.10999 -9.52286,-1.23999c-6.85919,1.89001 -13.43494,3.98001 -20.60287,5.22c-4.85159,0.84 -9.43298,1.16 -14.32303,0.36002c-7.34818,-1.21002 -14.50296,-2.98001 -21.90268,-4.01001c-6.27991,-0.88 -12.93317,1.04001 -18.77548,2.73001l-0.29596,0.07999c-5.55939,1.60999 -11.59476,2.73001 -17.51437,1.62c-5.99689,-1.12 -12.14819,-2.92999 -18.37665,-3.03c-4.07944,-0.07001 -8.46774,0.45001 -12.44412,1.14001c-7.19363,1.23999 -13.345,4.19998 -20.97607,4.19998c-14.10413,0 -26.49686,-6.63001 -40.81973,-4.78c-8.5706,1.11002 -16.87103,3.04001 -24.92686,5.45999c-5.30182,1.60001 -10.35933,2.68002 -16.11163,2.89001c-4.19531,0.14999 -8.09451,0.04001 -12.12236,-0.89999c-4.01512,-0.94 -7.81143,-2.34 -11.81349,-3.31c-8.09447,-1.96002 -17.91339,-0.23001 -25.99493,0.83999c-11.38887,1.50998 -23.13814,3.87 -34.78432,3.87c-6.16411,0 -11.74914,-1.48001 -17.47581,-2.95001c-4.83858,-1.25 -9.79306,-2.12 -14.82484,-2.79999c-2.88251,-0.39001 -5.80374,-0.82998 -8.72498,-1.06c-4.38825,-0.33999 -8.30033,0.31 -12.58566,1.06c-13.74379,2.38999 -27.17883,4.82999 -41.41171,3.67002c-4.52976,-0.37003 -8.90516,-1.17001 -13.25482,-2.15003c-2.48362,-0.56 -5.05737,-1.53998 -7.73414,-1.39999l0.01288,0.01001l-0.00001,0.00001z" fill="currentColor" id="svg_1"/>
   </g>
  </g>
 </g>

</svg>