<svg xmlns="http://www.w3.org/2000/svg" width="65" height="65" viewBox="0 0 65 65" fill="none">
  <path d="M38.5098 24.7038L38.5109 24.7058C38.7805 25.1722 39.2244 25.5124 39.7448 25.6516C39.916 25.6974 40.0924 25.7205 40.2695 25.7205C40.2912 25.7205 40.3129 25.7202 40.3346 25.7195C40.6693 25.7088 40.9962 25.6155 41.2861 25.4479C41.914 25.0849 42.3008 24.4146 42.3008 23.6893C42.3008 23.6575 42.3 23.6258 42.2986 23.594C42.2833 23.2697 42.1906 22.9538 42.0281 22.6728L34.4109 9.49503C34.3967 9.47032 34.3819 9.44592 34.3666 9.42184C32.8336 7.01041 30.0582 6.3306 30.0582 6.3306C27.2829 5.65079 24.809 7.08077 24.809 7.08077C22.3351 8.51075 21.539 11.255 21.539 11.255C20.743 13.9986 22.0667 16.53 22.0667 16.53C22.3166 17.0078 22.7462 17.3672 23.2603 17.5281C23.4567 17.5896 23.6613 17.6209 23.8672 17.6209C23.894 17.6209 23.9207 17.6204 23.9475 17.6193C24.2481 17.6074 24.5422 17.529 24.8087 17.3895C25.4786 17.0391 25.8984 16.3457 25.8984 15.5897L25.8984 15.58C25.8969 15.2553 25.8175 14.9358 25.667 14.6481C25.0994 13.563 25.4406 12.3869 25.4406 12.3869C25.7818 11.2108 26.842 10.598 26.842 10.598C27.9023 9.9851 29.0917 10.2765 29.0917 10.2765C30.2627 10.5633 30.9176 11.5693 30.9176 11.5693L38.5098 24.7038Z" fill="#F2C2C3"/>
  <path d="M28.7088 28.0299C29.0717 28.6584 29.743 29.0469 30.4687 29.0469C30.5001 29.0469 30.5315 29.0461 30.5628 29.0447C30.8871 29.0296 31.2031 28.9371 31.4842 28.7748C32.1128 28.412 32.5 27.7414 32.5 27.0156C32.5 26.9842 32.4993 26.9529 32.4978 26.9215C32.4828 26.5973 32.3902 26.2813 32.2279 26.0001L23.5951 11.045C23.5806 11.02 23.5656 10.9952 23.5501 10.9708C22.0172 8.55939 19.2418 7.87958 19.2418 7.87958C16.4664 7.19976 13.9926 8.62974 13.9926 8.62974C11.5187 10.0597 10.7226 12.804 10.7226 12.804C9.92642 15.5483 11.2509 18.0802 11.2509 18.0802C11.264 18.1053 11.2777 18.1301 11.2918 18.1546L15.3544 25.1878C15.7173 25.8161 16.3877 26.2031 17.1133 26.2031C17.1448 26.2031 17.1764 26.2024 17.2079 26.2009C17.5322 26.1858 17.8481 26.0931 18.1292 25.9308C18.7575 25.5679 19.1445 24.8974 19.1445 24.1719C19.1445 24.1403 19.1438 24.1088 19.1423 24.0772C19.1272 23.7529 19.0345 23.437 18.8722 23.1559L14.8333 16.1636C14.2882 15.0939 14.6242 13.9359 14.6242 13.9359C14.9654 12.7598 16.0256 12.1469 16.0256 12.1469C17.0858 11.5341 18.2753 11.8254 18.2753 11.8254C19.446 12.1122 20.1009 13.1179 20.1009 13.1179L28.7088 28.0299Z" fill="#F2C2C3"/>
  <path d="M15.3544 25.1878L20.9402 34.8613C21.3031 35.4897 21.9736 35.8768 22.6993 35.8768C22.7307 35.8768 22.7622 35.8761 22.7936 35.8746C23.1179 35.8596 23.4338 35.767 23.715 35.6046C24.3434 35.2418 24.7305 34.5712 24.7305 33.8456C24.7305 33.8141 24.7298 33.7827 24.7283 33.7512C24.7132 33.4269 24.6207 33.111 24.4583 32.8298L18.8722 23.1559C17.4011 20.6036 14.5548 19.8388 14.5548 19.8388C11.7083 19.0738 9.15466 20.5457 9.15466 20.5457C6.60098 22.0175 5.83602 24.864 5.83602 24.864C5.46867 26.231 5.65239 27.6344 5.65239 27.6344C5.8361 29.0379 6.54292 30.2642 6.54292 30.2642L17.2074 48.7493C19.4298 52.5996 22.9561 55.3061 22.9561 55.3061C26.4825 58.0126 30.7761 59.1636 30.7761 59.1636C35.0698 60.3146 39.477 59.7348 39.477 59.7348C43.8843 59.1551 47.7342 56.9329 47.7342 56.9329C51.5842 54.7107 54.2906 51.1844 54.2906 51.1844C56.9971 47.6581 58.1481 43.3644 58.1481 43.3644C59.2991 39.0708 58.7194 34.6635 58.7194 34.6635C58.1397 30.2562 55.9175 26.4063 55.9175 26.4063L50.84 17.5969C49.3681 15.0432 46.5216 14.2782 46.5216 14.2782C43.6751 13.5133 41.1215 14.9851 41.1215 14.9851C38.5678 16.457 37.8028 19.3035 37.8028 19.3035C37.0378 22.15 38.5098 24.7038 38.5098 24.7038L40.1201 27.5058C39.0659 28.3751 38.2177 29.4798 38.2177 29.4798C36.7413 31.4027 36.1151 33.7447 36.1151 33.7447C35.4888 36.0867 35.8084 38.4899 35.8084 38.4899C36.128 40.893 37.3447 42.9899 37.3447 42.9899C37.7081 43.6163 38.3775 44.0018 39.1016 44.0018C39.1345 44.0018 39.1673 44.001 39.2001 43.9994C39.5244 43.9837 39.8402 43.8904 40.121 43.7275C40.7473 43.3641 41.1329 42.6947 41.1329 41.9706C41.1329 41.9377 41.1321 41.9049 41.1305 41.872C41.1147 41.5478 41.0215 41.232 40.8586 40.9512L40.8568 40.9483C40.0481 39.553 39.8355 37.9543 39.8355 37.9543C39.6226 36.3539 40.0397 34.7941 40.0397 34.7941C40.4567 33.2344 41.44 31.9538 41.44 31.9538C42.4232 30.6732 43.8223 29.8675 43.8223 29.8675C44.7939 29.308 45.1284 28.0672 44.5698 27.0951L42.0294 22.675C41.3979 21.5792 41.7261 20.3578 41.7261 20.3578C42.0544 19.1364 43.1501 18.5048 43.1501 18.5048C44.2459 17.8733 45.4673 18.2015 45.4673 18.2015C46.6887 18.5298 47.3203 19.6255 47.3203 19.6255L52.399 28.4372C54.2172 31.5872 54.6916 35.1933 54.6916 35.1933C55.1659 38.7994 54.2242 42.3125 54.2242 42.3125C53.2824 45.8256 51.0679 48.7109 51.0679 48.7109C48.8534 51.5962 45.7034 53.4145 45.7034 53.4145C42.5533 55.2327 38.9472 55.707 38.9472 55.707C35.3411 56.1814 31.828 55.2396 31.828 55.2396C28.3149 54.2979 25.4296 52.0834 25.4296 52.0834C22.5443 49.8689 20.7263 46.7192 20.7263 46.7192L10.0626 28.2355C9.75935 27.7093 9.68052 27.1071 9.68052 27.1071C9.60169 26.5049 9.75931 25.9184 9.75931 25.9184C10.0876 24.697 11.1833 24.0654 11.1833 24.0654C12.2791 23.4338 13.5005 23.7621 13.5005 23.7621C14.7219 24.0903 15.3544 25.1878 15.3544 25.1878Z" fill="#F2C2C3"/>
  <path d="M21.7451 59.2654C16.884 55.9126 13.9503 50.7877 13.9503 50.7877C13.5885 50.1556 12.9159 49.7656 12.1875 49.7656C12.1586 49.7656 12.1297 49.7662 12.1008 49.7674C11.7764 49.7813 11.4601 49.8727 11.1784 50.034C10.5462 50.3958 10.1562 51.0685 10.1562 51.7968C10.1562 51.8257 10.1569 51.8547 10.1581 51.8836C10.172 52.2079 10.2634 52.5242 10.4246 52.806C13.8172 58.7324 19.4385 62.6095 19.4385 62.6095C19.7776 62.8434 20.1798 62.9687 20.5918 62.9687C20.6447 62.9687 20.6976 62.9666 20.7503 62.9625C21.3604 62.9147 21.9164 62.5945 22.2639 62.0907C22.4978 61.7516 22.623 61.3494 22.623 60.9375C22.623 60.8845 22.621 60.8316 22.6168 60.7789C22.5691 60.1688 22.2488 59.6128 21.7451 59.2654Z" fill="#F2C2C3"/>
  <path d="M44.6931 9.90234C47.6842 9.89426 50.274 11.3906 50.274 11.3906C52.8639 12.887 54.3508 15.4824 54.3508 15.4824C54.7127 16.1142 55.3852 16.5039 56.1133 16.5039C56.1424 16.5039 56.1716 16.5033 56.2007 16.502C56.525 16.4881 56.8413 16.3965 57.123 16.2352C57.7548 15.8732 58.1445 15.2008 58.1445 14.4727C58.1445 14.4435 58.1439 14.4144 58.1427 14.3852C58.1287 14.0609 58.0372 13.7446 57.8758 13.4629C55.8445 9.9173 52.3064 7.87304 52.3064 7.87304C48.7687 5.82904 44.683 5.83985 44.683 5.83985L44.6875 5.83984C45.8093 5.83984 46.7188 6.74927 46.7188 7.87109C46.7188 8.99073 45.8127 9.89924 44.6931 9.90234Z" fill="#F2C2C3"/>
</svg>
