<svg width="48" height="48" viewBox="0 0 48 48" fill="none" xmlns="http://www.w3.org/2000/svg">
<path d="M34.8352 27.8288L28.8352 24.8288C28.7171 24.7699 28.5856 24.7432 28.4539 24.7515C28.3222 24.7597 28.195 24.8025 28.0852 24.8756L24.9652 26.9569C23.2501 26.1344 21.8671 24.7513 21.0446 23.0363L23.1258 19.9163C23.1989 19.8064 23.2417 19.6792 23.25 19.5475C23.2582 19.4159 23.2316 19.2843 23.1727 19.1663L20.1727 13.1663C20.1105 13.041 20.0145 12.9357 19.8955 12.8621C19.7766 12.7886 19.6394 12.7497 19.4996 12.75C17.7094 12.75 15.9925 13.4612 14.7266 14.727C13.4607 15.9929 12.7496 17.7098 12.7496 19.5C12.754 23.6758 14.4149 27.6793 17.3676 30.632C20.3203 33.5847 24.3238 35.2455 28.4996 35.25C30.2898 35.25 32.0067 34.5388 33.2725 33.273C34.5384 32.0071 35.2496 30.2902 35.2496 28.5C35.2497 28.3607 35.211 28.2241 35.1378 28.1055C35.0646 27.9869 34.9598 27.8911 34.8352 27.8288ZM28.4996 33.75C24.7215 33.746 21.0992 32.2434 18.4277 29.5719C15.7562 26.9004 14.2535 23.2781 14.2496 19.5C14.2494 18.186 14.7419 16.9197 15.6299 15.9512C16.5179 14.9826 17.7368 14.3823 19.0458 14.2687L21.6333 19.4456L19.5708 22.5469C19.5021 22.6492 19.4596 22.7669 19.4472 22.8895C19.4348 23.0122 19.4528 23.136 19.4996 23.25C20.496 25.619 22.3806 27.5035 24.7496 28.5C24.8637 28.5474 24.9878 28.5659 25.1108 28.5538C25.2338 28.5417 25.3519 28.4994 25.4546 28.4306L28.5558 26.3681L33.7327 28.9556C33.6187 30.2647 33.0179 31.4834 32.049 32.371C31.0801 33.2587 29.8136 33.7507 28.4996 33.75ZM23.9996 5.25C20.7354 5.24939 17.5275 6.10097 14.6934 7.72048C11.8593 9.34 9.49707 11.6713 7.8404 14.4839C6.18373 17.2965 5.29002 20.4928 5.24767 23.7568C5.20533 27.0207 6.01581 30.2391 7.59895 33.0938L5.3677 39.7856C5.23549 40.1821 5.21631 40.6075 5.31229 41.0142C5.40828 41.421 5.61565 41.7929 5.91115 42.0884C6.20665 42.3839 6.57862 42.5913 6.98535 42.6873C7.39208 42.7833 7.81751 42.7641 8.21395 42.6319L14.9058 40.4006C17.4091 41.7876 20.1966 42.5833 23.0548 42.7265C25.913 42.8697 28.7661 42.3568 31.3954 41.227C34.0248 40.0972 36.3606 38.3806 38.224 36.2085C40.0874 34.0365 41.4289 31.4668 42.1457 28.6962C42.8624 25.9256 42.9355 23.0277 42.3592 20.2245C41.783 17.4213 40.5727 14.7872 38.8211 12.524C37.0696 10.2609 34.8232 8.42868 32.2541 7.16784C29.685 5.90699 26.8614 5.25096 23.9996 5.25ZM23.9996 41.25C20.9667 41.2509 17.9872 40.4522 15.3615 38.9344C15.2473 38.8687 15.1181 38.8338 14.9865 38.8331C14.9055 38.8331 14.825 38.8464 14.7483 38.8725L7.73958 41.2087C7.60743 41.2528 7.46562 41.2592 7.33004 41.2272C7.19447 41.1952 7.07048 41.1261 6.97198 41.0276C6.87348 40.9291 6.80435 40.8051 6.77236 40.6695C6.74036 40.534 6.74676 40.3921 6.79083 40.26L9.12708 33.2512C9.16078 33.1505 9.17269 33.0437 9.16202 32.938C9.15135 32.8323 9.11835 32.7301 9.0652 32.6381C7.1634 29.3508 6.39962 25.5277 6.89236 21.7619C7.3851 17.9962 9.10681 14.4983 11.7904 11.811C14.474 9.12362 17.9694 7.397 21.7345 6.89896C25.4995 6.40093 29.3237 7.15934 32.6137 9.05652C35.9037 10.9537 38.4757 13.8836 39.9306 17.3917C41.3855 20.8998 41.642 24.79 40.6603 28.4588C39.6787 32.1276 37.5137 35.3698 34.5013 37.6826C31.4889 39.9953 27.7974 41.2493 23.9996 41.25Z" fill="#1C1C1C"/>
</svg>
