<svg width="96" height="100" viewBox="0 0 96 100" fill="none" xmlns="http://www.w3.org/2000/svg">
<path d="M80.6693 82.1807L108.141 85.3141C109.958 85.5079 111.791 85.1478 113.4 84.2812C115.009 83.4145 116.318 82.0818 117.156 80.4579C117.994 78.834 118.321 76.9948 118.095 75.1815C117.869 73.3683 117.1 71.6657 115.889 70.2972L52.1692 -0.67751C51.05 -1.91052 49.6128 -2.81135 48.0152 -3.2811C46.4177 -3.75085 44.7216 -3.77135 43.1131 -3.34037C41.5047 -2.90939 40.0461 -2.04358 38.8974 -0.837996C37.7488 0.367595 36.9545 1.86635 36.6018 3.49375L16.9062 96.8196C16.5154 98.6139 16.6849 100.485 17.3919 102.18C18.0989 103.875 19.3093 105.312 20.8594 106.296L21.2469 106.52C22.7676 107.405 24.515 107.822 26.2714 107.721C28.0277 107.62 29.7155 107.004 31.1245 105.951L53.3491 89.5011L63.6466 127.932C63.9545 129.082 64.4859 130.16 65.2105 131.104C65.935 132.048 66.8385 132.841 67.8693 133.436C68.9001 134.031 70.0381 134.417 71.2182 134.573C72.3983 134.728 73.5974 134.649 74.7471 134.341L84.5579 131.712C85.7077 131.404 86.7855 130.873 87.7299 130.148C88.6742 129.424 89.4666 128.52 90.0618 127.489C90.6569 126.459 91.0431 125.321 91.1984 124.141C91.3537 122.96 91.275 121.761 90.9668 120.612L80.6693 82.1807ZM72.3974 125.587L62.1048 87.1592C61.7231 85.7311 60.998 84.4181 59.9925 83.3346C58.987 82.251 57.7318 81.4299 56.3362 80.9428C54.9406 80.4556 53.447 80.3172 51.9857 80.5397C50.5244 80.7622 49.1396 81.3387 47.9522 82.2191L25.7812 98.6211L45.4511 5.38507L109.085 76.2709L81.691 73.1498C80.2224 72.9811 78.735 73.1741 77.3582 73.7121C75.9814 74.2502 74.7571 75.1168 73.7921 76.2365C72.827 77.3561 72.1505 78.6949 71.8215 80.136C71.4925 81.5771 71.521 83.0768 71.9045 84.5043L82.216 122.956L72.3974 125.587ZM71.8689 4.94066L74.1345 1.01648C74.7354 -0.0242744 75.7251 -0.783703 76.8859 -1.09474C78.0467 -1.40578 79.2835 -1.24295 80.3243 -0.64207C81.365 -0.0411887 82.1245 0.948521 82.4355 2.10933C82.7466 3.27015 82.5837 4.50698 81.9828 5.54773L79.7172 9.47191C79.1163 10.5127 78.1266 11.2721 76.9658 11.5831C75.805 11.8942 74.5682 11.7313 73.5274 11.1305C72.4867 10.5296 71.7272 9.53987 71.4162 8.37906C71.1052 7.21825 71.268 5.98142 71.8689 4.94066ZM12.2365 17.602C12.8373 16.5613 13.8271 15.8018 14.9879 15.4908C16.1487 15.1797 17.3855 15.3426 18.4263 15.9435L22.3504 18.2091C23.3912 18.81 24.1506 19.7997 24.4617 20.9605C24.7727 22.1213 24.6099 23.3581 24.009 24.3989C23.4081 25.4396 22.4184 26.1991 21.2576 26.5101C20.0968 26.8211 18.86 26.6583 17.8192 26.0574L13.895 23.7918C12.8543 23.1909 12.0948 22.2012 11.7838 21.0404C11.4728 19.8796 11.6356 18.6428 12.2365 17.602ZM86.7308 16.412L95.1862 10.8293C96.1893 10.1673 97.4144 9.93101 98.5917 10.1723C99.7691 10.4136 100.802 11.1127 101.464 12.1158C102.126 13.119 102.363 14.344 102.121 15.5214C101.88 16.6988 101.181 17.7321 100.178 18.394L91.7224 23.9768C91.2257 24.3045 90.6693 24.5312 90.085 24.644C89.5006 24.7567 88.8998 24.7532 88.3168 24.6337C87.7339 24.5143 87.1801 24.2811 86.6872 23.9477C86.1943 23.6142 85.7719 23.1869 85.4442 22.6902C85.1164 22.1935 84.8897 21.6371 84.777 21.0528C84.6643 20.4684 84.6677 19.8676 84.7872 19.2846C84.9067 18.7017 85.1398 18.1479 85.4733 17.655C85.8068 17.1621 86.234 16.7397 86.7308 16.412ZM19.4725 40.3673C19.4372 40.9618 19.2851 41.5435 19.0248 42.0791C18.7645 42.6148 18.4012 43.0938 17.9556 43.489C17.51 43.8841 16.9909 44.1875 16.4279 44.3818C15.865 44.5762 15.2693 44.6577 14.6748 44.6216L4.56085 44.0145C3.36113 43.9429 2.23902 43.3975 1.44137 42.4985C0.643721 41.5995 0.235873 40.4204 0.307545 39.2207C0.379221 38.021 0.924547 36.8989 1.82356 36.1012C2.72257 35.3036 3.90163 34.8957 5.10135 34.9674L15.2153 35.5745C15.8096 35.6094 16.3912 35.7612 16.9269 36.021C17.4625 36.2808 17.9417 36.6436 18.337 37.0887C18.7324 37.5338 19.0362 38.0525 19.231 38.615C19.4258 39.1776 19.5079 39.773 19.4725 40.3673Z" fill="#fcfbf8"/>
</svg>
