<svg width="101" height="93" viewBox="0 0 101 93" fill="none" xmlns="http://www.w3.org/2000/svg">
<path d="M127.585 75.466C128.076 73.7571 128.054 71.9413 127.521 70.245C126.988 68.5486 125.967 67.0466 124.587 65.926L98.3254 44.7049L104.936 11.3375C105.287 9.58961 105.114 7.7769 104.437 6.12756C103.76 4.47822 102.61 3.06599 101.133 2.06871C99.6548 1.07143 97.915 0.53367 96.1322 0.523153C94.3494 0.512636 92.6034 1.02983 91.114 2.00961L62.6765 20.647L33.1286 4.22543C31.5709 3.35452 29.7908 2.96288 28.0115 3.09963C26.2321 3.23637 24.5328 3.89541 23.1265 4.9941C21.7202 6.09279 20.6696 7.58222 20.1065 9.27562C19.5433 10.969 19.4926 12.791 19.9608 14.5131L28.6499 47.3134L3.75431 70.514C2.44803 71.7257 1.52794 73.2957 1.10907 75.0275C0.690199 76.7593 0.791131 78.5762 1.39925 80.251C2.00737 81.9258 3.09568 83.3841 4.52814 84.4438C5.96059 85.5034 7.67362 86.1172 9.45305 86.2086L43.2195 87.8132L57.3933 118.561C58.1438 120.177 59.354 121.536 60.8726 122.468C62.3912 123.4 64.1509 123.864 65.9316 123.801C67.7122 123.738 69.4349 123.152 70.8842 122.116C72.3335 121.079 73.4452 119.639 74.0801 117.974L86.3042 86.1808L119.949 81.9911C121.724 81.7775 123.395 81.0441 124.754 79.8831C126.112 78.7221 127.097 77.1853 127.585 75.466ZM118.855 72.9912L85.2099 77.1809C83.5744 77.3819 82.0246 78.025 80.7273 79.041C79.43 80.057 78.4343 81.4075 77.8472 82.9472L65.6292 114.772L51.4742 84.0361C50.7851 82.5342 49.6962 81.2509 48.3265 80.3266C46.9569 79.4023 45.3593 78.8726 43.7087 78.7955L9.94228 77.1909L34.8287 53.9431C36.0369 52.8226 36.9167 51.3939 37.3735 49.8107C37.8303 48.2275 37.8468 46.5497 37.4212 44.9578L28.7022 12.1919C28.7099 12.1767 28.7195 12.1625 28.7307 12.1496L58.2661 28.5695C59.7096 29.3689 61.344 29.759 62.993 29.6977C64.642 29.6365 66.2429 29.1261 67.6231 28.2218L96.0383 9.61727L89.4124 42.9265C89.0902 44.5448 89.216 46.2204 89.7761 47.7725C90.3363 49.3246 91.3095 50.6943 92.591 51.7339L118.874 72.9834C118.874 72.9834 118.855 73.0116 118.852 73.0163L118.855 72.9912Z" fill="#fcfbf8"/>
</svg>
