<svg xmlns="http://www.w3.org/2000/svg" width="64" height="65" viewBox="0 0 64 65" fill="none">
  <path d="M32 6.5C26.8577 6.5 21.8309 8.02487 17.5552 10.8818C13.2795 13.7387 9.94702 17.7994 7.97914 22.5502C6.01127 27.3011 5.49638 32.5288 6.49959 37.5723C7.50281 42.6159 9.97907 47.2486 13.6152 50.8848C17.2514 54.5209 21.8842 56.9972 26.9277 58.0004C31.9712 59.0036 37.1989 58.4887 41.9498 56.5209C46.7007 54.553 50.7613 51.2205 53.6182 46.9448C56.4751 42.6691 58 37.6423 58 32.5C57.9868 25.6084 55.2433 19.0029 50.3702 14.1298C45.4971 9.25674 38.8916 6.51321 32 6.5ZM41.425 39.075C41.8006 39.4542 42.0113 39.9663 42.0113 40.5C42.0113 41.0337 41.8006 41.5458 41.425 41.925C41.0427 42.2946 40.5318 42.5013 40 42.5013C39.4682 42.5013 38.9573 42.2946 38.575 41.925L32 35.325L25.425 41.925C25.0427 42.2946 24.5318 42.5013 24 42.5013C23.4682 42.5013 22.9573 42.2946 22.575 41.925C22.1994 41.5458 21.9888 41.0337 21.9888 40.5C21.9888 39.9663 22.1994 39.4542 22.575 39.075L29.175 32.5L22.575 25.925C22.2561 25.5364 22.0931 25.0431 22.1178 24.541C22.1424 24.0389 22.353 23.5639 22.7084 23.2084C23.0639 22.853 23.5389 22.6424 24.041 22.6178C24.5431 22.5931 25.0364 22.7561 25.425 23.075L32 29.675L38.575 23.075C38.9636 22.7561 39.4569 22.5931 39.959 22.6178C40.4611 22.6424 40.9361 22.853 41.2916 23.2084C41.6471 23.5639 41.8576 24.0389 41.8823 24.541C41.9069 25.0431 41.7439 25.5364 41.425 25.925L34.825 32.5L41.425 39.075Z" fill="#13476C"/>
</svg>
